<?xml version="1.0" encoding="UTF-8" standalone="no"?>
<!-- Generator: Adobe Illustrator 24.2.0, SVG Export Plug-In . SVG Version: 6.00 Build 0)  -->

<svg
   xmlns:dc="http://purl.org/dc/elements/1.1/"
   xmlns:cc="http://creativecommons.org/ns#"
   xmlns:rdf="http://www.w3.org/1999/02/22-rdf-syntax-ns#"
   xmlns:svg="http://www.w3.org/2000/svg"
   xmlns="http://www.w3.org/2000/svg"
   xmlns:sodipodi="http://sodipodi.sourceforge.net/DTD/sodipodi-0.dtd"
   xmlns:inkscape="http://www.inkscape.org/namespaces/inkscape"
   version="1.1"
   x="0px"
   y="0px"
   viewBox="0 0 151.18425 44.496606"
   xml:space="preserve"
   id="svg36"
   sodipodi:docname="app-store.svg"
   width="151.18425"
   height="44.496605"
   inkscape:version="0.92.4 (5da689c313, 2019-01-14)"><metadata
   id="metadata42"><rdf:RDF><cc:Work
       rdf:about=""><dc:format>image/svg+xml</dc:format><dc:type
         rdf:resource="http://purl.org/dc/dcmitype/StillImage" /></cc:Work></rdf:RDF></metadata><defs
   id="defs40" /><sodipodi:namedview
   pagecolor="#ffffff"
   bordercolor="#666666"
   borderopacity="1"
   objecttolerance="10"
   gridtolerance="10"
   guidetolerance="10"
   inkscape:pageopacity="0"
   inkscape:pageshadow="2"
   inkscape:window-width="1366"
   inkscape:window-height="705"
   id="namedview38"
   showgrid="false"
   inkscape:zoom="1.2944837"
   inkscape:cx="109.115"
   inkscape:cy="32.065001"
   inkscape:window-x="-8"
   inkscape:window-y="-8"
   inkscape:window-maximized="1"
   inkscape:current-layer="svg36" />
<style
   type="text/css"
   id="style2">
	.st0{fill:#A7A9AC;}
	.st1{fill:#FFFFFF;}
</style>
<g
   id="Google_Play"
   transform="translate(-1.74,-21.923396)">
</g>
<g
   id="App_Store"
   transform="matrix(0.6947167,0,0,0.6947167,-1.2088071,-1.6464786)">
	<g
   id="g9">
		<path
   d="M 211.17,65.62 H 9.93 c -4.08,0 -7.38,-3.3 -7.38,-7.38 V 10.56 c 0,-4.08 3.31,-7.38 7.38,-7.38 h 201.24 c 4.08,0 7.38,3.31 7.38,7.38 v 47.67 c 0,4.08 -3.3,7.39 -7.38,7.39 z"
   id="path5"
   inkscape:connector-curvature="0" />
		<path
   class="st0"
   d="M 211.17,66.42 H 9.93 c -4.52,0 -8.19,-3.67 -8.19,-8.19 V 10.56 c 0,-4.52 3.67,-8.19 8.19,-8.19 h 201.24 c 4.52,0 8.19,3.67 8.19,8.19 v 47.67 c 0,4.52 -3.67,8.19 -8.19,8.19 z M 9.93,3.99 c -3.62,0 -6.57,2.95 -6.57,6.57 v 47.67 c 0,3.63 2.95,6.57 6.57,6.57 h 201.24 c 3.63,0 6.57,-2.95 6.57,-6.57 V 10.56 c 0,-3.63 -2.95,-6.57 -6.57,-6.57 z"
   id="path7"
   inkscape:connector-curvature="0"
   style="fill:#a7a9ac" />
	</g>
	<g
   id="g15">
		<path
   class="st1"
   d="m 50.31,33.77 c -0.05,-5.21 4.26,-7.74 4.46,-7.86 -2.44,-3.56 -6.23,-4.05 -7.56,-4.09 -3.18,-0.33 -6.26,1.9 -7.88,1.9 -1.65,0 -4.15,-1.87 -6.83,-1.82 -3.46,0.06 -6.69,2.06 -8.47,5.16 -3.66,6.34 -0.93,15.65 2.58,20.78 1.76,2.51 3.81,5.31 6.49,5.21 2.62,-0.11 3.6,-1.67 6.77,-1.67 3.14,0 4.06,1.67 6.8,1.61 2.82,-0.05 4.59,-2.52 6.28,-5.05 2.03,-2.88 2.84,-5.71 2.88,-5.85 -0.06,-0.01 -5.47,-2.08 -5.52,-8.32"
   id="path11"
   inkscape:connector-curvature="0"
   style="fill:#ffffff" />
		<path
   class="st1"
   d="m 45.14,18.46 c 1.41,-1.77 2.38,-4.17 2.11,-6.61 -2.04,0.09 -4.6,1.41 -6.07,3.14 -1.3,1.52 -2.47,4.02 -2.17,6.36 2.3,0.18 4.66,-1.15 6.13,-2.89"
   id="path13"
   inkscape:connector-curvature="0"
   style="fill:#ffffff" />
	</g>
	<g
   id="g33">
		<path
   class="st1"
   d="M 88.25,44.65 H 84.6 l -2,-6.3 h -6.96 l -1.91,6.3 h -3.56 l 6.9,-21.44 h 4.26 z m -6.26,-8.94 -1.81,-5.6 C 79.99,29.54 79.63,28.19 79.1,26.07 h -0.06 c -0.21,0.91 -0.55,2.26 -1.02,4.04 l -1.78,5.6 z"
   id="path17"
   inkscape:connector-curvature="0"
   style="fill:#ffffff" />
		<path
   class="st1"
   d="m 106,36.73 c 0,2.63 -0.71,4.71 -2.13,6.23 -1.27,1.36 -2.85,2.03 -4.74,2.03 -2.04,0 -3.5,-0.73 -4.39,-2.19 h -0.06 v 8.14 H 91.24 V 34.28 c 0,-1.65 -0.04,-3.35 -0.13,-5.09 h 3.02 l 0.19,2.45 h 0.07 c 1.14,-1.85 2.88,-2.77 5.22,-2.77 1.82,0 3.35,0.72 4.56,2.16 1.22,1.46 1.83,3.35 1.83,5.7 m -3.49,0.13 c 0,-1.5 -0.34,-2.75 -1.02,-3.72 -0.74,-1.02 -1.74,-1.53 -2.99,-1.53 -0.85,0 -1.62,0.28 -2.31,0.84 -0.69,0.57 -1.14,1.3 -1.35,2.21 -0.11,0.43 -0.16,0.77 -0.16,1.05 v 2.58 c 0,1.12 0.34,2.07 1.03,2.84 0.69,0.78 1.59,1.16 2.69,1.16 1.29,0 2.3,-0.49 3.02,-1.49 0.73,-0.99 1.09,-2.31 1.09,-3.94"
   id="path19"
   inkscape:connector-curvature="0"
   style="fill:#ffffff" />
		<path
   class="st1"
   d="m 123.78,36.73 c 0,2.63 -0.71,4.71 -2.13,6.23 -1.27,1.36 -2.85,2.03 -4.74,2.03 -2.03,0 -3.5,-0.73 -4.39,-2.19 h -0.06 v 8.14 h -3.43 V 34.28 c 0,-1.65 -0.04,-3.35 -0.13,-5.09 h 3.02 l 0.19,2.45 h 0.07 c 1.14,-1.85 2.88,-2.77 5.21,-2.77 1.82,0 3.34,0.72 4.56,2.16 1.22,1.46 1.83,3.35 1.83,5.7 m -3.49,0.13 c 0,-1.5 -0.34,-2.75 -1.02,-3.72 -0.74,-1.02 -1.74,-1.53 -2.99,-1.53 -0.85,0 -1.62,0.28 -2.31,0.84 -0.69,0.57 -1.14,1.3 -1.35,2.21 -0.11,0.43 -0.16,0.77 -0.16,1.05 v 2.58 c 0,1.12 0.34,2.07 1.03,2.84 0.69,0.78 1.58,1.16 2.69,1.16 1.29,0 2.3,-0.49 3.02,-1.49 0.72,-0.99 1.09,-2.31 1.09,-3.94"
   id="path21"
   inkscape:connector-curvature="0"
   style="fill:#ffffff" />
		<path
   class="st1"
   d="m 143.66,38.64 c 0,1.82 -0.63,3.31 -1.91,4.45 -1.4,1.25 -3.34,1.88 -5.84,1.88 -2.31,0 -4.16,-0.44 -5.56,-1.33 l 0.8,-2.86 c 1.51,0.91 3.16,1.37 4.97,1.37 1.29,0 2.3,-0.29 3.02,-0.87 0.72,-0.59 1.08,-1.37 1.08,-2.34 0,-0.87 -0.3,-1.6 -0.89,-2.2 -0.59,-0.6 -1.58,-1.15 -2.96,-1.66 -3.75,-1.4 -5.63,-3.45 -5.63,-6.15 0,-1.76 0.66,-3.21 1.97,-4.33 1.31,-1.13 3.06,-1.69 5.25,-1.69 1.95,0 3.57,0.34 4.86,1.02 l -0.86,2.8 c -1.21,-0.66 -2.58,-0.99 -4.1,-0.99 -1.21,0 -2.15,0.3 -2.83,0.89 -0.57,0.53 -0.86,1.18 -0.86,1.94 0,0.85 0.33,1.55 0.98,2.1 0.57,0.51 1.61,1.06 3.12,1.66 1.84,0.74 3.2,1.61 4.07,2.61 0.89,0.98 1.32,2.22 1.32,3.7"
   id="path23"
   inkscape:connector-curvature="0"
   style="fill:#ffffff" />
		<path
   class="st1"
   d="m 155.02,31.77 h -3.78 v 7.51 c 0,1.91 0.67,2.86 2.01,2.86 0.61,0 1.12,-0.05 1.52,-0.16 l 0.09,2.61 c -0.67,0.25 -1.57,0.38 -2.67,0.38 -1.36,0 -2.42,-0.41 -3.18,-1.24 -0.76,-0.83 -1.15,-2.22 -1.15,-4.17 v -7.79 h -2.26 v -2.58 h 2.26 v -2.83 l 3.37,-1.02 v 3.85 h 3.78 v 2.58 z"
   id="path25"
   inkscape:connector-curvature="0"
   style="fill:#ffffff" />
		<path
   class="st1"
   d="m 172.1,36.8 c 0,2.38 -0.68,4.33 -2.03,5.85 -1.42,1.57 -3.31,2.35 -5.66,2.35 -2.27,0 -4.08,-0.75 -5.42,-2.26 -1.35,-1.5 -2.02,-3.4 -2.02,-5.69 0,-2.4 0.69,-4.36 2.08,-5.88 1.39,-1.53 3.26,-2.29 5.61,-2.29 2.27,0 4.09,0.75 5.47,2.26 1.31,1.46 1.97,3.35 1.97,5.66 m -3.57,0.11 c 0,-1.42 -0.31,-2.65 -0.92,-3.67 -0.72,-1.23 -1.75,-1.85 -3.08,-1.85 -1.38,0 -2.43,0.62 -3.15,1.85 -0.62,1.02 -0.92,2.26 -0.92,3.73 0,1.42 0.3,2.65 0.92,3.67 0.74,1.23 1.78,1.85 3.12,1.85 1.31,0 2.34,-0.63 3.08,-1.88 0.64,-1.04 0.95,-2.28 0.95,-3.7"
   id="path27"
   inkscape:connector-curvature="0"
   style="fill:#ffffff" />
		<path
   class="st1"
   d="m 183.26,32.22 c -0.34,-0.06 -0.7,-0.09 -1.08,-0.09 -1.21,0 -2.14,0.46 -2.8,1.37 -0.57,0.81 -0.86,1.82 -0.86,3.05 v 8.11 h -3.43 l 0.03,-10.59 c 0,-1.78 -0.04,-3.4 -0.13,-4.87 h 2.99 l 0.13,2.96 h 0.09 c 0.36,-1.02 0.94,-1.84 1.72,-2.45 0.76,-0.55 1.59,-0.83 2.48,-0.83 0.32,0 0.6,0.02 0.86,0.06 z"
   id="path29"
   inkscape:connector-curvature="0"
   style="fill:#ffffff" />
		<path
   class="st1"
   d="m 198.62,36.19 c 0,0.62 -0.04,1.13 -0.12,1.56 h -10.3 c 0.04,1.53 0.54,2.69 1.49,3.5 0.87,0.72 1.99,1.08 3.37,1.08 1.52,0 2.91,-0.24 4.17,-0.73 l 0.54,2.39 c -1.46,0.64 -3.19,0.96 -5.19,0.96 -2.39,0 -4.28,-0.71 -5.64,-2.12 -1.36,-1.41 -2.05,-3.3 -2.05,-5.68 0,-2.33 0.64,-4.27 1.91,-5.82 1.33,-1.65 3.14,-2.48 5.4,-2.48 2.23,0 3.92,0.83 5.06,2.48 0.9,1.31 1.36,2.93 1.36,4.86 m -3.28,-0.89 c 0.02,-1.02 -0.2,-1.9 -0.67,-2.64 -0.59,-0.95 -1.51,-1.43 -2.74,-1.43 -1.12,0 -2.03,0.47 -2.73,1.4 -0.57,0.74 -0.91,1.63 -1.01,2.67 z"
   id="path31"
   inkscape:connector-curvature="0"
   style="fill:#ffffff" />
	</g>
</g>
</svg>