<?xml version="1.0" encoding="UTF-8" standalone="no"?>
<!-- Generator: Adobe Illustrator 24.2.0, SVG Export Plug-In . SVG Version: 6.00 Build 0)  -->

<svg
   xmlns:dc="http://purl.org/dc/elements/1.1/"
   xmlns:cc="http://creativecommons.org/ns#"
   xmlns:rdf="http://www.w3.org/1999/02/22-rdf-syntax-ns#"
   xmlns:svg="http://www.w3.org/2000/svg"
   xmlns="http://www.w3.org/2000/svg"
   xmlns:sodipodi="http://sodipodi.sourceforge.net/DTD/sodipodi-0.dtd"
   xmlns:inkscape="http://www.inkscape.org/namespaces/inkscape"
   version="1.1"
   id="Layer_1"
   x="0px"
   y="0px"
   viewBox="0 0 346 506.9"
   style="enable-background:new 0 0 346 506.9;"
   xml:space="preserve"
   sodipodi:docname="banner-shape.svg"
   inkscape:version="0.92.4 (5da689c313, 2019-01-14)"><metadata
   id="metadata18"><rdf:RDF><cc:Work
       rdf:about=""><dc:format>image/svg+xml</dc:format><dc:type
         rdf:resource="http://purl.org/dc/dcmitype/StillImage" /></cc:Work></rdf:RDF></metadata><defs
   id="defs16" /><sodipodi:namedview
   pagecolor="#ffffff"
   bordercolor="#666666"
   borderopacity="1"
   objecttolerance="10"
   gridtolerance="10"
   guidetolerance="10"
   inkscape:pageopacity="0"
   inkscape:pageshadow="2"
   inkscape:window-width="1366"
   inkscape:window-height="705"
   id="namedview14"
   showgrid="false"
   inkscape:zoom="0.46557507"
   inkscape:cx="173"
   inkscape:cy="253.45"
   inkscape:window-x="-8"
   inkscape:window-y="-8"
   inkscape:window-maximized="1"
   inkscape:current-layer="Layer_1" />
<style
   type="text/css"
   id="style2">
	.st0{fill:#285FCE;}
	.st1{fill:url(#SVGID_1_);}
</style>
<path
   class="st0"
   d="M342.4,275.3c0,0.1,0,0.2,0,0.3C342.4,275.5,342.4,275.4,342.4,275.3z"
   id="path4" />
<linearGradient
   id="SVGID_1_"
   gradientUnits="userSpaceOnUse"
   x1="1.000977e-02"
   y1="253.5006"
   x2="343.985"
   y2="253.5006">
	<stop
   offset="0"
   style="stop-color:#78A045"
   id="stop6" />
	<stop
   offset="1"
   style="stop-color:#B2CB5E"
   id="stop8" />
</linearGradient>
<path
   class="st1"
   d="M335,186.5c0,0-20.7-76.5,9-185.5H0v95v376c27.3,17.5,58.7,29.2,92.4,33.3c0,0,0,0,0,0c0.9,0.1,1.8,0.1,2.7,0.2  c0.2,0,0.5,0,0.7,0c1.7,0.1,3.4,0.2,5.1,0.2c0.1,0,0.3,0,0.4,0c0.9,0,1.7,0.1,2.6,0.1c0.3,0,0.7,0,1,0c1.6,0,3.2,0.1,4.8,0.1  c0.3,0,0.6,0,0.8,0c0.8,0,1.7,0,2.6,0c0.4,0,0.8,0,1.3,0c1.5,0,3,0,4.6-0.1c0.4,0,0.8,0,1.1,0c0.8,0,1.7,0,2.5-0.1  c0.5,0,1,0,1.5-0.1c1.4-0.1,2.9-0.1,4.3-0.2c0.5,0,1-0.1,1.4-0.1c0.8-0.1,1.7-0.1,2.5-0.2c0.5,0,1.1-0.1,1.6-0.1  c1.4-0.1,2.8-0.2,4.2-0.3c0.5,0,1.1-0.1,1.6-0.1c0.8-0.1,1.7-0.2,2.5-0.3c0.6-0.1,1.1-0.1,1.7-0.2c1.3-0.1,2.7-0.3,4.1-0.5  c0.6-0.1,1.3-0.2,1.9-0.2c0.8-0.1,1.7-0.2,2.5-0.3c0.6-0.1,1.2-0.2,1.8-0.3c1.3-0.2,2.6-0.4,4-0.6c0.7-0.1,1.4-0.2,2.1-0.3  c0.8-0.1,1.7-0.3,2.5-0.4c0.6-0.1,1.3-0.2,1.9-0.4c1.3-0.2,2.5-0.5,3.8-0.7c0.8-0.2,1.5-0.3,2.3-0.5c0.8-0.2,1.7-0.4,2.5-0.5  c0.7-0.1,1.3-0.3,2-0.4c1.2-0.3,2.4-0.6,3.6-0.9c0.9-0.2,1.7-0.4,2.6-0.6c0.8-0.2,1.7-0.4,2.5-0.7c0.7-0.2,1.4-0.4,2.1-0.6  c1.1-0.3,2.1-0.6,3.2-0.9c1-0.3,2.1-0.6,3.1-0.9c0.8-0.2,1.7-0.5,2.5-0.8c0.7-0.2,1.5-0.5,2.2-0.7c0.8-0.3,1.6-0.5,2.4-0.8  c61.4-23.6,109.7-73.5,131.1-135.9c0,0,0,0,0,0c0.4-1.5,0.9-3,1.3-4.6c0,0,0-0.1,0-0.1c0.8-3.1,1.6-6.2,2.4-9.4c0-0.1,0-0.2,0.1-0.3  c1.1-4.8,2.1-9.7,3-14.8c0-0.1,0-0.3,0.1-0.4c0.6-3.4,1.1-6.9,1.6-10.4c0,0,0-0.1,0-0.1c0.2-1.7,0.4-3.4,0.7-5.1  c0-0.2,0-0.3,0.1-0.5c0.4-3.6,0.8-7.2,1.1-10.9c0-0.2,0-0.3,0-0.5c0.1-1.7,0.3-3.5,0.4-5.2c0-0.2,0-0.3,0-0.5  c0.3-3.8,0.4-7.6,0.6-11.5c0-0.2,0-0.5,0-0.7c0.1-1.8,0.1-3.7,0.1-5.6c0-0.1,0-0.2,0-0.3c0-1.9,0-3.7,0-5.6c0,0,0,0,0,0  c0-0.2,0-0.4,0-0.6c0,0,0-0.1,0-0.1C342.5,244.3,340.2,216.9,335,186.5z"
   id="path11"
   style="fill:#ffbf00;fill-opacity:1" />
</svg>