<?xml version="1.0" encoding="utf-8"?>
<!-- Generator: Adobe Illustrator 24.2.0, SVG Export Plug-In . SVG Version: 6.00 Build 0)  -->
<svg version="1.1" id="Layer_1" xmlns="http://www.w3.org/2000/svg" xmlns:xlink="http://www.w3.org/1999/xlink" x="0px" y="0px"
	 viewBox="0 0 13.75 13.94" style="enable-background:new 0 0 13.75 13.94;" xml:space="preserve">
<style type="text/css">
	.st0{filter:url(#Adobe_OpacityMaskFilter);}
	.st1{fill:#FFFFFF;}
	.st2{mask:url(#SVGID_1_);}
	.st3{fill:#4C8900;}
</style>
<defs>
	<filter id="Adobe_OpacityMaskFilter" filterUnits="userSpaceOnUse" x="0.31" y="0.44" width="13.01" height="13.01">
		<feColorMatrix  type="matrix" values="1 0 0 0 0  0 1 0 0 0  0 0 1 0 0  0 0 0 1 0"/>
	</filter>
</defs>
<mask maskUnits="userSpaceOnUse" x="0.31" y="0.44" width="13.01" height="13.01" id="SVGID_1_">
	<g class="st0">
		<g>
			<g>
				
					<rect x="-2.23" y="-0.64" transform="matrix(0.1096 -0.994 0.994 0.1096 -2.8878 13.9499)" class="st1" width="17.15" height="18.46"/>
				<path d="M6.38,16.2c-0.02-0.05-0.03-0.09-0.04-0.14c-0.03,0.03-0.05,0.04-0.07,0.06c-0.01-0.01-0.02-0.02-0.03-0.02
					c-0.01-0.02-0.01-0.04-0.02-0.06C6.15,15.96,6.14,16,6.11,16.05C6.1,16.06,6.11,16.07,6.1,16.1c-0.26,0.07-0.24,0.04-0.28,0.22
					c-0.08,0.01-0.17-0.08-0.23,0.04c-0.02-0.04-0.03-0.01,0.02-0.19c0.03,0.03,0.05,0.05,0.08,0.07c0.05-0.07,0.05-0.05-0.03-0.1
					c0.01-0.06,0.02-0.12,0.03-0.19c0.11,0.02,0.18,0.15,0.32,0.1C6,16.02,5.99,15.99,5.98,15.97c0.23-0.11,0.23-0.11,0.31-0.09
					c-0.02,0.04-0.01,0.02-0.05,0.07c0.05,0.01,0.09,0.01,0.15,0.02c0.01,0.03,0.02,0.07,0.04,0.12c0.03,0,0.07,0.01,0.1,0
					c0.12-0.05,0.09-0.03,0.2,0.06c0.13-0.14,0.09-0.12,0.18-0.09c-0.12,0.26-0.26,0.03-0.38,0.15C6.49,16.24,6.43,16.24,6.38,16.2z
					"/>
				<path d="M1.27,15.07c0.16-0.04,0.27-0.11,0.35,0.01c0.07,0.1,0.05,0.17-0.06,0.24c-0.05-0.02-0.09-0.03-0.16-0.05
					c0,0.19,0.01,0.16-0.02,0.19c-0.1,0.09-0.1,0.09-0.01,0.2c0.09-0.06,0.1-0.16,0.13-0.15c0.23,0.13,0.19,0.12,0.19,0.14
					c-0.04,0.06-0.18-0.01-0.16,0.15c-0.56-0.25-0.34-0.07-0.22-0.67C1.26,15.07,1.27,15.08,1.27,15.07z"/>
				<path d="M3.94,16.27c0,0.04-0.01,0.09-0.01,0.13c0.2,0.05,0.25,0.05,0.12,0.09c0.04,0.05,0.08,0.1,0.12,0.16
					c-0.03,0.02-0.04,0.02-0.06,0.03c0.02,0.3,0.02,0.24-0.04,0.27c0,0,0,0.01-0.03-0.18C4,16.78,3.98,16.85,3.93,16.81
					c-0.04-0.04-0.04-0.09-0.01-0.14c0.03,0,0.05,0,0.1,0c-0.03-0.04-0.05-0.07-0.08-0.1c-0.14,0.05-0.18,0.18-0.24,0.3
					c-0.02-0.03-0.04-0.06-0.06-0.09c0.03-0.03,0.05-0.05,0.07-0.06c0.02-0.2-0.01-0.12,0.1-0.34c-0.04-0.04-0.1-0.02-0.09-0.09
					c0.02,0,0.04-0.01,0.05-0.01c0.04,0.02,0.07,0.01,0.1-0.02C3.9,16.22,3.95,16.29,3.94,16.27z"/>
				<path d="M5.39,16.92c0.02-0.1,0.06-0.06-0.19-0.25c-0.04,0.04-0.06,0.13-0.16,0.11c0.02-0.05,0.04-0.1,0.07-0.17
					c0.04-0.01,0.09-0.01,0.15-0.02c0.03-0.13-0.01-0.1,0.15-0.01c0-0.05,0.01-0.08,0.01-0.11c0.08-0.04,0.16,0.15,0.13,0.18
					c-0.03,0.02-0.08,0.01-0.08,0.07c0,0.06,0.05,0.06,0.09,0.08c0.03,0.01,0.06,0.03,0.08,0.04C5.64,16.9,5.67,16.86,5.39,16.92z"
					/>
				<path d="M-0.92,11.17c0.04-0.02,0.07-0.03,0.12-0.06c-0.09-0.02-0.15-0.06-0.14-0.16c0.04-0.01,0.09-0.02,0.15-0.04
					c0,0.09,0,0.12,0.01,0.13c0.05,0.01,0.07,0.04,0.09,0.08c0.02,0.03,0.1,0.04,0.1,0.07c0.02,0.1,0.05,0.1,0.06,0.12
					c-0.04,0.15-0.15,0-0.21,0.1C-0.73,11.41-0.72,11.43-0.92,11.17z M-0.66,11.22c-0.04-0.02-0.03-0.02-0.05,0
					C-0.67,11.25-0.68,11.25-0.66,11.22z"/>
				<path d="M-1.15,7.43c0.03,0.05,0.05,0.1,0.08,0.15c0.04,0,0.07-0.01,0.11-0.01c-0.02,0.04-0.03,0.08-0.05,0.11
					c0.04,0.05,0.08,0.11,0.12,0.17C-0.93,7.88-0.96,7.9-1,7.86c-0.17-0.18-0.15-0.14-0.33-0.18c0.03-0.03,0.05-0.06,0.07-0.1
					C-1.42,7.52-1.44,7.53-1.15,7.43z"/>
				<path d="M1.21,12.42c0.02-0.01,0.05-0.03,0.11-0.05c-0.01,0.05-0.02,0.08-0.03,0.11c0.05,0.01,0.12,0.03,0.1,0.1
					c-0.02,0.06-0.08,0.07-0.13,0.06c0.05,0.1,0.06,0.05-0.01,0.18c-0.06,0-0.11,0-0.16,0c0.02-0.07,0.01-0.14,0.08-0.2
					C1.2,12.6,1.19,12.5,1.21,12.42z"/>
				<path d="M1.27,15.07c-0.03,0-0.08,0.02-0.08-0.04c0-0.04-0.02-0.06-0.06-0.06c-0.04,0-0.07,0.01-0.07,0.06
					c0,0.01-0.01,0.02-0.03,0.05c-0.11-0.12-0.04-0.08-0.13-0.01c-0.02,0.02-0.05,0.02-0.08,0.04c-0.04-0.15,0.17-0.13,0.22-0.24
					c0.01-0.02,0.07-0.02,0.1-0.02c0.03,0,0.05,0.02,0.08,0.02c0.1,0.01,0.11,0.02,0.08,0.12C1.27,15.08,1.28,15.06,1.27,15.07z"/>
				<path d="M-0.16,11.38c-0.09-0.02-0.09-0.02-0.08-0.15c-0.03,0.01-0.05,0.01-0.08,0.02c0.04,0.11,0.04,0.09,0.01,0.12
					c-0.18-0.13-0.13-0.09-0.16-0.19c0.04-0.04,0.07-0.07,0.1-0.1C-0.17,11.14-0.17,11.14-0.16,11.38z"/>
				<path d="M-0.43,11.69c0.09-0.06,0.09-0.06,0.16-0.04c0.03-0.04,0.06-0.08,0.1-0.13c0.02,0.16-0.08,0.25-0.13,0.35
					c-0.03,0.06-0.1,0.03-0.15,0.01c0.05-0.04,0.09-0.08,0.14-0.12c-0.07-0.06-0.12-0.03-0.16,0.01c-0.05-0.03-0.1-0.06-0.15-0.09
					C-0.58,11.61-0.58,11.61-0.43,11.69z"/>
				<path d="M2.32,9.53C2.3,9.66,2.3,9.65,2.33,9.62c0.03,0.06,0.06,0.11,0.1,0.17c-0.11,0.03,0.02,0.06,0,0.1
					C2.33,9.94,2.25,9.88,2.24,9.76C2.15,9.73,2.18,9.74,2.1,9.71C2.18,9.66,2.19,9.55,2.32,9.53z"/>
				<path d="M6.67,15.91c-0.07,0-0.13,0-0.18-0.07c-0.07-0.1-0.16-0.18-0.25-0.27c0.05-0.01,0.11-0.03,0.15-0.04
					C6.51,15.65,6.54,15.82,6.67,15.91z"/>
				<path d="M-0.68,12.25c0.01,0.02,0.03,0.04,0.04,0.06c-0.08,0.03-0.19-0.01-0.21,0.11c-0.05-0.01-0.1-0.02-0.13-0.02
					c-0.01-0.04-0.04-0.1-0.04-0.1c0.07-0.04,0.04-0.16,0.15-0.17c-0.01,0.03-0.01,0.07-0.02,0.12
					C-0.89,12.24-0.65,12.28-0.68,12.25z"/>
				<path d="M3.14,11.06c-0.09-0.02-0.09-0.02-0.23,0.07c-0.07-0.05-0.01-0.11,0-0.17c0.03,0,0.07-0.01,0.11-0.01
					c-0.03-0.05,0.01-0.03-0.15-0.06c0.04-0.12,0.04-0.12,0.12-0.06C3.03,10.85,3.15,10.86,3.14,11.06z"/>
				<path d="M0.49,15.51c-0.01-0.14-0.02-0.27-0.03-0.4c0.09-0.02,0.06,0.06,0.09,0.09c0.05,0.03,0.12-0.02,0.13,0.05
					c0.01,0.03-0.03,0.07-0.05,0.1c-0.03,0.05-0.09,0.08-0.11,0.15C0.53,15.51,0.51,15.51,0.49,15.51z"/>
				<path d="M2.06,15.12c-0.06-0.08-0.03-0.13,0-0.17C2.04,14.92,2.02,14.89,2,14.86c0.03-0.06,0.07-0.11,0.02-0.18
					C2,14.66,2.04,14.6,2.06,14.53c0.09,0.13,0.04,0.26,0.06,0.38C2.36,15.09,2.1,14.88,2.06,15.12z"/>
				<path d="M2.74,10.55c0.2-0.07,0.22-0.06,0.16-0.17c-0.01-0.02,0-0.04,0.01-0.07c0.09,0.08,0.22,0.11,0.15,0.27
					c-0.1-0.01-0.21,0.01-0.32,0.01C2.74,10.57,2.74,10.56,2.74,10.55z"/>
				<path d="M3.42,16.89c0.01-0.01,0.03-0.01,0.04-0.02c0,0.01,0.01,0.02,0.01,0.03l0.21,0.02c0,0-0.01-0.01-0.01-0.01
					c-0.18-0.08-0.36-0.18-0.39-0.05c0.01,0.01,0.02,0.01,0.03,0.02L3.42,16.89z"/>
				<path d="M-2.7,8.86c0.26,0.2-0.01-0.07,0.11-0.1c0.07-0.02,0.14,0.07,0.16,0.1c-0.08,0.02-0.08,0.02-0.08,0.13
					C-2.52,9.08-2.63,9.11-2.69,9C-2.7,8.97-2.7,8.93-2.7,8.86z"/>
				<path d="M4.84,13.37c0.09,0.02,0.03,0.13,0.1,0.18c-0.08,0.04-0.16,0.07-0.13,0.19c-0.09-0.02-0.07-0.01-0.11-0.24
					C4.8,13.42,4.77,13.45,4.84,13.37z"/>
				<path d="M6.18,15.06c-0.08,0-0.01,0.05-0.25-0.2c0.04-0.04,0.08-0.09,0.11-0.12c-0.02-0.05-0.04-0.1-0.07-0.15
					c0.09,0,0.09,0,0.16,0.16c-0.07,0.04-0.05,0.03-0.08,0.05c-0.04,0.08,0.08,0.05,0.07,0.12C6.11,14.97,6.15,15.01,6.18,15.06z"/>
				<path d="M2.4,11.72c0.03,0.04,0.05,0.07,0.08,0.11c0.03-0.04,0.05-0.07,0.07-0.1c0.04,0.03,0.04,0,0.01,0.2
					c-0.09-0.05-0.14,0.09-0.23,0C2.31,11.86,2.34,11.79,2.4,11.72z"/>
				<path d="M-0.74,12.19c0.01-0.03,0.03-0.06,0.05-0.12c0.05-0.03,0.17-0.03,0.18-0.16c0.07,0.02,0.06,0.08,0.07,0.11
					c-0.03,0.03-0.05,0.06-0.07,0.08c-0.03,0.03-0.07,0.04-0.09,0.07c-0.02,0.03-0.01,0.08-0.07,0.08
					C-0.67,12.25-0.66,12.27-0.74,12.19z"/>
				<path d="M5.46,13.83c0.03,0.01,0.06,0.02,0.09,0.02c0.01,0.1-0.09,0.08-0.12,0.13c-0.05-0.06-0.09-0.11-0.14-0.17
					c0.14-0.1,0.08-0.09,0.26-0.03C5.53,13.84,5.48,13.81,5.46,13.83z"/>
				<path d="M3.28,14.51c-0.04-0.02-0.08-0.05-0.13-0.08c0.03-0.03,0.06-0.07,0.1-0.12c0.07,0.07,0.12,0.14,0.21,0.12
					C3.44,14.41,3.5,14.6,3.28,14.51z"/>
				<path d="M2.64,8.94c0.01,0.09-0.07,0.15,0.04,0.21C2.62,9.16,2.6,9.17,2.58,9.16C2.5,9.13,2.43,9.09,2.35,9.04
					c0.07,0,0.12-0.02,0.17-0.06C2.55,8.96,2.59,8.96,2.64,8.94z"/>
				<path d="M5.64,11.39c-0.11,0.05-0.12,0.04-0.12-0.08c0-0.07-0.04-0.17,0.02-0.18c0.02,0,0.06,0.01,0.06,0.03
					C5.61,11.23,5.69,11.29,5.64,11.39z"/>
				<path d="M4.91,16.26c0.15,0,0.17,0.11,0.22,0.21c-0.03-0.01-0.05-0.01-0.09-0.02c0,0.06,0.01,0.11,0.01,0.16
					C4.96,16.57,4.98,16.59,4.91,16.26z"/>
				<path d="M3.28,14.16c-0.07,0.1-0.03,0.07-0.15,0.08c0.06-0.11,0.11-0.2,0.16-0.3c0.04,0.06,0.1,0.09,0.07,0.17
					C3.4,14.16,3.41,14.15,3.28,14.16z"/>
				<path d="M5.32,10.3c0.06,0.02,0.11,0.03,0.17,0.05c-0.06,0.07-0.11,0.14-0.16,0.21c-0.04-0.01-0.07-0.03-0.12-0.04
					C5.36,10.37,5.34,10.42,5.32,10.3z"/>
				<path d="M-2.88,16.07c0.12-0.19,0.05-0.12,0.2-0.09c0.03,0.01,0.07,0,0.12,0.01c-0.06,0.09-0.09,0.15-0.16,0.11
					C-2.77,16.07-2.82,16.08-2.88,16.07z"/>
				<path d="M-0.9,13.57c0-0.06,0-0.1,0-0.14c0.12-0.14,0.26,0.06,0.16,0.1C-0.79,13.55-0.84,13.56-0.9,13.57z"/>
				<path d="M2.54,10.07c0-0.04-0.01-0.07-0.01-0.12c0.03,0,0.06,0,0.09,0.01c-0.02,0.05-0.07,0.08,0,0.13
					c0.04,0.03,0.08,0.07,0.11,0.11c-0.07,0.02-0.15,0.03-0.2-0.06c-0.01-0.02-0.05-0.03-0.08-0.04
					C2.47,10.06,2.45,10.07,2.54,10.07z"/>
				<path d="M-2.48,6.7c-0.13,0.13-0.07-0.02-0.26,0.06l0,0.01c0.05,0.07-0.03,0.05,0.4,0.05C-2.4,6.76-2.44,6.73-2.48,6.7z"/>
				<path d="M-0.06,12.77c-0.04-0.14-0.01-0.23,0.09-0.31c0.01,0.02,0.03,0.06,0.03,0.06c-0.09,0.06-0.04,0.13-0.02,0.22
					C0.01,12.74-0.02,12.75-0.06,12.77z"/>
				<path d="M-1.81,5.93C-1.76,6.16-1.8,6.1-1.61,6.21c0,0.01-0.01,0.02-0.01,0.03c-0.1,0.01-0.03,0.03-0.24-0.07
					C-1.8,6.11-1.87,6.03-1.81,5.93z"/>
				<path d="M-2.05,8.51c-0.06,0.06-0.1,0.1-0.15,0.15c0.03-0.12-0.08-0.18-0.12-0.26C-2.29,8.39-2.32,8.38-2.05,8.51z"/>
				<path d="M2.03,14.27c-0.04,0.05-0.08,0.04-0.12,0.01c-0.06-0.03-0.09-0.01-0.1,0.06c0,0.05-0.01,0.06-0.07,0.05
					c0.01-0.06-0.01,0,0.07-0.2C1.9,14.2,1.97,14.2,2.03,14.27z"/>
				<path d="M7.39,13.77c0.02-0.02,0.03-0.03,0.05-0.05c-0.01-0.01-0.03-0.02-0.03-0.03c-0.02-0.09,0.05-0.08,0.06-0.07
					c0.06,0.05,0.11,0.1,0.18,0.17C7.55,13.79,7.48,13.78,7.39,13.77z"/>
				<path d="M1.79,15.23c0.03-0.12,0.14-0.04,0.19-0.09c0.02,0.05,0.05,0.1,0.07,0.15c-0.01,0.01-0.04,0.03-0.04,0.02
					c-0.05-0.07-0.13-0.05-0.19-0.07C1.81,15.25,1.8,15.24,1.79,15.23z"/>
				<path d="M1.73,16.27c0.1-0.04,0.1-0.04,0.08-0.15c0.04,0.03,0.07,0.04,0.1,0.06c-0.01,0.11-0.03,0.15-0.1,0.16
					C1.78,16.35,1.78,16.34,1.73,16.27z"/>
				<path d="M1.83,12.12c0.08-0.03,0.15-0.05,0.23-0.07c0,0.07,0.01,0.12-0.05,0.15C1.95,12.23,1.91,12.21,1.83,12.12z"/>
				<path d="M-0.43,14.22c-0.01-0.09-0.03-0.15-0.04-0.23c0.02-0.02,0.05-0.04,0.09,0.01C-0.32,14.07-0.33,14.11-0.43,14.22z"/>
				<path d="M6.76,17.11c-0.02,0.03-0.03,0.05-0.04,0.08C6.6,17.17,6.6,17.05,6.5,16.98C6.63,16.99,6.68,17.07,6.76,17.11z"/>
				<path d="M3.37,13.94c-0.02-0.05-0.04-0.09-0.06-0.14c0.05-0.03,0.11-0.06,0.16-0.09C3.5,13.8,3.5,13.8,3.41,13.84
					C3.41,13.88,3.45,13.93,3.37,13.94z"/>
				<path d="M0.11,12.31c0.04-0.04,0.08-0.07,0.13-0.12c0.01,0.06,0.03,0.12,0.03,0.17c0,0.03-0.06,0.05-0.09,0.03
					C0.16,12.36,0.14,12.34,0.11,12.31z"/>
				<path d="M0.9,11.77c0.14-0.05,0.2,0.04,0.18,0.12c-0.01,0.02-0.04,0.04-0.05,0.03C1,11.91,0.96,11.85,0.9,11.77z"/>
				<path d="M3.36,11.84c0.1-0.04,0.18-0.08,0.27-0.12c0,0.04,0,0.08-0.01,0.1C3.56,11.92,3.49,11.87,3.36,11.84z"/>
				<path d="M2.82,9.91c0.1,0.03,0.1,0.03,0.11,0.18c-0.06-0.02-0.11-0.03-0.17-0.05C2.78,9.99,2.8,9.95,2.82,9.91z"/>
				<path d="M3.45,14.43c0.08-0.08,0.01-0.15-0.04-0.23c0.1,0.02,0.18,0.04,0.21,0.15C3.43,14.43,3.45,14.42,3.45,14.43z"/>
				<path d="M1.83,14.88c0.02-0.05,0.03-0.1,0.05-0.15c0.11,0.04,0.06,0.15,0.11,0.21C1.9,14.97,1.88,14.9,1.83,14.88z"/>
				<path d="M5.14,16.01c-0.01,0.01-0.04,0.03-0.06,0.03c-0.04,0-0.11-0.06-0.11-0.1C4.98,15.85,5.14,15.9,5.14,16.01z"/>
				<path d="M-1.17,14.86c-0.02,0.02-0.05,0.04-0.07,0.06c-0.07-0.03-0.15-0.06-0.23-0.1C-1.43,14.73-1.23,14.84-1.17,14.86z"/>
				<path d="M2.9,13.72c-0.03,0.03-0.06,0.05-0.1,0.09c-0.04-0.11-0.01-0.09-0.14-0.09c0.02-0.03,0.03-0.07,0.05-0.07
					C2.78,13.62,2.84,13.65,2.9,13.72z"/>
				<path d="M1.97,14.49c0.03-0.07,0.04-0.11,0.07-0.17c0.05,0.05,0.09,0.09,0.15,0.15C2.11,14.47,2.06,14.48,1.97,14.49z"/>
				<path d="M6.11,16.23c-0.04,0.08-0.08,0.14-0.11,0.2C5.84,16.43,5.94,16.26,6.11,16.23z"/>
				<path d="M1.37,7.14c0.04,0,0.06-0.12,0.13-0.03C1.46,7.17,1.41,7.22,1.33,7.2c-0.05-0.01-0.1-0.02-0.1-0.08
					C1.28,7.07,1.32,7.14,1.37,7.14z"/>
				<path d="M-2.28,7.16c0.2-0.08,0.22-0.11,0.27-0.03C-2.11,7.17-2.31,7.26-2.28,7.16z"/>
				<path d="M3.34,9.31C3.31,9.31,3.28,9.3,3.25,9.29c-0.01,0-0.02-0.03-0.02-0.04c0.11-0.17,0.1-0.13,0.16-0.14
					C3.38,9.18,3.36,9.24,3.34,9.31z"/>
				<path d="M3.85,14.1c0.06,0,0.12,0.01,0.17-0.04c0.04-0.04,0.06-0.02,0.11,0.03C3.91,14.18,3.89,14.19,3.85,14.1z"/>
				<path d="M4.69,14.11c-0.21,0-0.26-0.13-0.22-0.17C4.5,13.91,4.51,13.94,4.69,14.11z"/>
				<path d="M-1.36,11.11c0.12,0.03,0.13,0.05,0.03,0.19C-1.41,11.25-1.37,11.18-1.36,11.11z"/>
				<path d="M-0.9,11.75c0.05-0.1,0.08-0.1,0.21,0.02C-0.7,11.85-0.73,11.82-0.9,11.75z"/>
				<path d="M11.27,17.36c-0.11,0-0.14-0.06-0.15-0.15C11.26,17.18,11.22,17.16,11.27,17.36z"/>
				<path d="M0.74,13.02c-0.08,0.01-0.16,0.01-0.24,0.02c-0.01-0.01-0.01-0.02-0.01-0.02c0.03-0.09,0.12-0.04,0.17-0.08
					C0.69,12.92,0.7,12.93,0.74,13.02z"/>
				<path d="M2.25,12.21c0.02-0.2-0.01-0.16,0.12-0.22c0.05,0.05-0.05,0.08-0.02,0.13C2.36,12.15,2.32,12.21,2.25,12.21z"/>
				<path d="M4.02,14.69c0.08,0.02,0.16,0.04,0.23,0.05c-0.01,0.07-0.07,0.07-0.09,0.06C4.11,14.78,4.03,14.77,4.02,14.69z"/>
				<path d="M4.8,2.11C4.74,2.2,4.7,2.21,4.6,2.17C4.64,2.08,4.69,2.07,4.8,2.11z"/>
				<path d="M-1.65,7.39c-0.01,0.05-0.01,0.1-0.02,0.16C-1.83,7.63-1.76,7.37-1.65,7.39z"/>
				<path d="M-3.42,14.64c0-0.09,0.02-0.13,0.1-0.12c0.02,0.05,0.04,0.11,0.06,0.16C-3.34,14.73-3.34,14.58-3.42,14.64z"/>
				<path d="M1.03,6.06c0.14,0.05,0.15,0.06,0.23,0.16C1.24,6.25,1.27,6.23,1.18,6.27C1.16,6.19,1.17,6.22,1.15,6.16
					C1.04,6.13,1.08,6.15,1.03,6.06z"/>
				<path d="M-1.25,7.22c-0.06-0.01-0.11-0.03-0.11-0.1c0.01-0.04,0.05-0.05,0.14-0.04C-1.23,7.13-1.24,7.18-1.25,7.22z"/>
				<path d="M3.26,13.07c-0.06,0-0.1,0-0.17,0c0.01-0.04,0.02-0.08,0.03-0.12C3.25,12.99,3.25,12.99,3.26,13.07z"/>
				<path d="M5.29,10.22c0.09-0.1,0.08-0.06,0.05-0.21c0.14,0.01,0.07,0.19-0.03,0.23C5.31,10.23,5.3,10.23,5.29,10.22z"/>
				<path d="M2.87,9.02C2.8,9,2.77,8.92,2.8,8.86c0.01-0.04,0.01-0.04,0.09-0.01C2.88,8.9,2.87,8.96,2.87,9.02z"/>
				<path d="M-2.42,16.02c0.01,0.03,0.02,0.06,0.04,0.1c-0.04,0.02-0.09,0.03-0.13,0.05C-2.53,16.06-2.53,16.06-2.42,16.02z"/>
				<path d="M7.36,14.16c0.06-0.04,0.06-0.04,0.15-0.02C7.47,14.2,7.47,14.2,7.5,14.28C7.39,14.3,7.41,14.2,7.36,14.16z"/>
				<path d="M-1.19,7.33c0.1-0.04,0.18-0.1,0.2,0.02C-1.17,7.43-1.17,7.32-1.19,7.33z"/>
				<path d="M2.64,10.5c0-0.07,0.01-0.13,0.01-0.19c0.12-0.02,0.05,0.1,0.12,0.14C2.72,10.47,2.69,10.48,2.64,10.5z"/>
				<path d="M10.68,17.1c0.04,0.02,0.1-0.01,0.11,0.06c0.01,0.07-0.08,0.04-0.11,0.08C10.65,17.1,10.65,17.12,10.68,17.1z"/>
				<path d="M-1.99,6.52c0.04,0.03,0.07,0.05,0.09,0.07c-0.06,0.08-0.06,0.08-0.15,0.04C-2.04,6.6-2.02,6.57-1.99,6.52z"/>
				<path d="M14.04,15.56c-0.05,0.05,0,0.15-0.09,0.16c-0.02-0.04-0.07-0.09,0.02-0.17C13.98,15.54,14.02,15.56,14.04,15.56z"/>
				<path d="M-2.16,8.05c0.05,0.07,0.07,0.12,0.04,0.19C-2.16,8.23-2.19,8.21-2.24,8.2C-2.21,8.15-2.19,8.11-2.16,8.05z"/>
				<path d="M-1.03,11.54c0.07-0.02,0.12-0.05,0.17,0.01C-0.94,11.62-0.96,11.63-1.03,11.54z"/>
				<path d="M3.08,16.19c-0.11-0.02-0.07-0.06,0.01-0.23C3.16,16.04,3.09,16.11,3.08,16.19z"/>
				<path d="M-0.61,11.56c0,0-0.04,0.01-0.06,0.01c-0.02-0.03,0.07-0.07-0.06-0.16c0,0-0.02,0,0.22,0.02
					C-0.49,11.47-0.61,11.48-0.61,11.56z"/>
				<path d="M4.7,16.92c-0.08,0.05-0.1,0.1-0.18,0.03c-0.01-0.01-0.03-0.09,0.08-0.07C4.65,16.9,4.71,16.93,4.7,16.92z"/>
				<path d="M5.07,9.9c0.12-0.06,0.08-0.06,0.14-0.03c0,0-0.07,0.12-0.07,0.12C5.07,9.96,5.08,9.96,5.07,9.9z"/>
				<path d="M8.81,9.96c0.08-0.04,0.02-0.05,0.2,0.02C9,9.99,8.99,10.01,8.98,10.02C8.92,10.02,8.86,10.03,8.81,9.96z"/>
				<path d="M6.45,16.64c0.02-0.06,0.03-0.09,0.05-0.14C6.72,16.58,6.7,16.56,6.45,16.64z"/>
				<path d="M12.8,14.38c-0.01-0.07-0.02-0.11-0.02-0.15c0.05-0.02,0.09-0.01,0.13,0.04C12.87,14.3,12.84,14.33,12.8,14.38z"/>
				<path d="M-0.95,11.83c0.03-0.01,0.07-0.01,0.11-0.02c0.01,0.05,0.01,0.09,0.02,0.14C-1.01,11.85-0.98,11.88-0.95,11.83z"/>
				<path d="M5.18,13.76c-0.02-0.04-0.04-0.09-0.06-0.13c0.05,0,0.1-0.01,0.15-0.01C5.2,13.78,5.22,13.76,5.18,13.76z"/>
				<path d="M12.53,14.97c0.08-0.03,0.15-0.06,0.23-0.09C12.75,14.99,12.69,15.02,12.53,14.97z"/>
				<path d="M3.53,16.59c0.08,0.03,0.05,0.07,0.06,0.11c-0.06,0.05-0.11,0.06-0.17,0C3.54,16.67,3.52,16.7,3.53,16.59z"/>
				<path d="M6.81,11.28c0.09-0.06,0.13-0.12,0.18,0.05C6.94,11.31,6.89,11.3,6.81,11.28z"/>
				<path d="M-0.65,1.44C-0.68,1.39-0.7,1.36-0.7,1.34c0.02-0.08,0.13-0.09,0.1,0.02C-0.6,1.38-0.62,1.4-0.65,1.44z"/>
				<path d="M10.64,17.38c-0.01,0.02-0.02,0.05-0.03,0.06c-0.06,0.04-0.11,0.05-0.15,0.02C10.63,17.33,10.59,17.34,10.64,17.38z"/>
				<path d="M3.47,13.89c0.05,0.07,0.03,0.05,0.06,0.09c-0.02,0.03-0.05,0.06-0.07,0.1C3.38,14.01,3.47,13.97,3.47,13.89z"/>
				<path d="M-1.13,12.32c-0.04-0.15-0.05-0.12,0.03-0.17C-1.04,12.22-1.05,12.27-1.13,12.32z"/>
				<path d="M0.1-0.49C0.07-0.46,0.04-0.43,0-0.39c-0.03-0.03-0.06-0.06-0.02-0.1C0.01-0.51,0.05-0.55,0.1-0.49z"/>
				<path d="M11.02,16.82c-0.04,0.01-0.08,0.04-0.09,0.03c-0.05-0.04-0.02-0.08,0.02-0.13C10.97,16.75,10.99,16.77,11.02,16.82z"/>
				<path d="M-0.24-0.26c0.07,0.02,0.12,0.03,0.17,0.04C-0.05-0.11-0.23-0.15-0.24-0.26z"/>
				<path d="M2.74,7.81c-0.12,0-0.12,0-0.1-0.12C2.73,7.68,2.68,7.77,2.74,7.81z"/>
				<path d="M0.53,14.56c0.07,0.04,0.11,0.06,0.16,0.09c-0.03,0.03-0.05,0.05-0.09,0.09C0.58,14.68,0.56,14.63,0.53,14.56z"/>
				<path d="M13.21,1.36c0.02,0.05,0.04,0.07,0.06,0.12c-0.06,0-0.1,0.01-0.15,0.01C13.15,1.44,13.17,1.41,13.21,1.36z"/>
				<path d="M1.36,5.67c-0.03,0.1-0.03,0.1-0.12,0.11C1.25,5.71,1.29,5.68,1.36,5.67z"/>
				<path d="M-0.32,7.19c-0.07,0.04-0.04,0.14-0.14,0.13C-0.45,7.21-0.45,7.2-0.32,7.19z"/>
				<path d="M-1.17,12.1c-0.05-0.03-0.08-0.04-0.11-0.06c0.04-0.06,0.01-0.05,0.1-0.06C-1.18,12.01-1.18,12.04-1.17,12.1z"/>
				<path d="M-2.47,15.51c0.01-0.05,0.01-0.09,0.01-0.13c0.06,0.01,0.08,0.04,0.07,0.09C-2.38,15.49-2.39,15.49-2.47,15.51z"/>
				<path d="M-0.6,10.96c-0.01-0.06-0.01-0.1-0.01-0.14c0.08,0.05,0.06,0.02,0.11,0.11C-0.54,10.94-0.56,10.95-0.6,10.96z"/>
				<path d="M-1.29,6.66c-0.05,0.06-0.05,0.06-0.16,0.02C-1.4,6.58-1.34,6.66-1.29,6.66L-1.29,6.66z"/>
				<path d="M-3.13,10.64c0.04-0.03,0.07-0.04,0.11-0.07c0,0.06,0.01,0.1,0.01,0.16C-3.06,10.7-3.08,10.67-3.13,10.64z"/>
				<path d="M3.33,15.38c0.06-0.01,0.08-0.03,0.11-0.03c0.07,0.01,0.07,0.1-0.03,0.09C3.4,15.44,3.38,15.42,3.33,15.38z"/>
				<path d="M14.08,15.3c-0.03,0-0.05,0-0.08,0.01c-0.05-0.05-0.02-0.1,0.01-0.17C14.04,15.2,14.06,15.25,14.08,15.3z"/>
				<path d="M-1.29,7.4c0.02-0.09,0.06-0.13,0.12-0.17C-1.2,7.36-1.17,7.32-1.29,7.4z"/>
				<path d="M-0.67,11.57c-0.01,0.04-0.02,0.09-0.1,0.08c0.01-0.05,0.02-0.09,0.04-0.14C-0.67,11.57-0.68,11.55-0.67,11.57z"/>
				<path d="M1.59,13.73C1.47,13.7,1.47,13.7,1.5,13.6C1.57,13.61,1.58,13.66,1.59,13.73z"/>
				<path d="M5.61,13.91c0.09-0.03,0.1-0.02,0.1,0.11C5.63,14.03,5.64,13.95,5.61,13.91z"/>
				<path d="M-1.43,6.43c-0.03,0.03-0.05,0.05-0.08,0.08C-1.55,6.42-1.55,6.42-1.43,6.43z"/>
				<path d="M9.19,16.07c-0.08,0.07-0.04,0.07-0.17,0c0.01-0.02-0.02-0.01,0.16-0.02C9.19,16.05,9.19,16.06,9.19,16.07z"/>
				<path d="M12.37,15.15c0.13-0.08,0.09-0.06,0.15-0.05C12.49,15.18,12.53,15.17,12.37,15.15z"/>
				<path d="M12.9,15.52c-0.01,0.07-0.01,0.07-0.09,0.16C12.8,15.6,12.84,15.56,12.9,15.52z"/>
				<path d="M-1.52,10.27c0.07-0.14,0.07-0.15,0.1,0.04C-1.46,10.29-1.49,10.28-1.52,10.27z"/>
				<path d="M10.47,15.77c-0.02,0.06-0.04,0.09-0.09,0.07c-0.01-0.01-0.03-0.04-0.03-0.04C10.37,15.73,10.42,15.76,10.47,15.77z"/>
				<path d="M-2.7,13.68c-0.08-0.03-0.09-0.07-0.06-0.13C-2.7,13.58-2.67,13.61-2.7,13.68z"/>
				<path d="M-2.65,8.63C-2.69,8.7-2.73,8.72-2.79,8.7C-2.78,8.62-2.72,8.63-2.65,8.63z"/>
				<path d="M-0.21-0.61c-0.04,0.02-0.06,0.04-0.07,0.04C-0.3-0.58-0.33-0.6-0.33-0.62c0-0.01,0.03-0.05,0.04-0.05
					C-0.27-0.65-0.25-0.63-0.21-0.61z"/>
				<path d="M1.31,6.46C1.3,6.5,1.29,6.52,1.28,6.54C1.12,6.43,1.14,6.44,1.31,6.46z"/>
				<path d="M-0.55,7.59c0-0.07-0.04-0.04-0.1-0.03c0.11-0.15,0.09-0.14,0.13,0.02C-0.53,7.58-0.54,7.59-0.55,7.59z"/>
				<path d="M-1.4,11.44c0.02,0.02,0.01,0,0.02,0.09c-0.02,0-0.04,0.02-0.05,0.01C-1.5,11.51-1.48,11.41-1.4,11.44z"/>
				<path d="M7.59,14.22c0.04-0.03,0.08-0.05,0.12-0.08C7.76,14.25,7.63,14.29,7.59,14.22z"/>
				<path d="M9.19,16.18c0.06-0.06,0.06-0.06,0.13-0.01C9.24,16.23,9.24,16.23,9.19,16.18z"/>
				<path d="M2.93,11.4c0.06,0.02,0.1,0.03,0.14,0.04C2.98,11.51,2.97,11.51,2.93,11.4z"/>
				<path d="M1.47,10.21c-0.04,0-0.07,0-0.11,0.01c0.01-0.03,0.01-0.06,0.02-0.07C1.43,10.12,1.46,10.15,1.47,10.21z"/>
				<path d="M11.07,17.08c0.06-0.04,0.04-0.05,0.1,0.02C11.12,17.15,11.14,17.15,11.07,17.08z"/>
				<path d="M12.9,17.03c0.02,0,0.02-0.01,0.03,0c0.09,0.03,0.06,0.11,0.03,0.1C12.9,17.11,12.9,17.07,12.9,17.03z"/>
				<path d="M-1.39,10.11c-0.04-0.06-0.05-0.1,0.01-0.14C-1.35,10.01-1.37,10.05-1.39,10.11z"/>
				<path d="M3.04,11.23c-0.01,0.05,0.01,0.07-0.06,0.11c0,0-0.03-0.02-0.03-0.03C2.97,11.24,3.01,11.24,3.04,11.23z"/>
				<path d="M1.76,6.36C1.72,6.34,1.68,6.33,1.63,6.3C1.72,6.25,1.72,6.25,1.76,6.36z"/>
				<path d="M-2.35,5.99c0.03-0.03,0.05-0.05,0.08-0.08c0.02,0.04,0.03,0.08,0.04,0.11C-2.26,6.04-2.24,6.04-2.35,5.99z"/>
				<path d="M-2.27,6.45c0.03-0.01,0.07-0.02,0.11-0.03c0,0.03,0,0.05,0.01,0.07C-2.22,6.49-2.36,6.52-2.27,6.45z"/>
				<path d="M6.22,16.52c-0.1,0.01-0.1,0.01-0.1-0.07C6.17,16.44,6.2,16.46,6.22,16.52z"/>
				<path d="M4.72,15.85c0.07-0.02,0.07-0.02,0.08,0.09C4.77,15.96,4.79,15.98,4.72,15.85z"/>
				<path d="M13.83,16.98c-0.06,0.08-0.11-0.03-0.16-0.01C13.78,16.94,13.79,16.94,13.83,16.98z"/>
				<path d="M-2.23,7.77c0.05-0.03,0.1-0.07,0.16-0.02C-2.13,7.79-2.13,7.79-2.23,7.77z"/>
				<path d="M4.56-0.03c0.07-0.02,0.11,0,0.14,0.04C4.68,0.05,4.71,0.05,4.56-0.03z"/>
				<path d="M6.16,15.24c0.09-0.08,0.09-0.08,0.14,0.02C6.25,15.25,6.21,15.24,6.16,15.24z"/>
				<path d="M3.94,16.27C3.93,16.2,4,16.19,4.07,16.31C3.99,16.33,3.93,16.25,3.94,16.27z"/>
				<path d="M3.64,15.52c-0.04,0.02-0.06,0.03-0.08,0.03c-0.01,0-0.03-0.03-0.03-0.04C3.58,15.43,3.59,15.47,3.64,15.52z"/>
				<path d="M5.55,13.27c0.03,0.02,0.06,0.04,0.1,0.07C5.56,13.37,5.56,13.37,5.55,13.27z"/>
				<path d="M7.47,14.05c-0.1-0.02-0.1-0.02-0.04-0.11C7.44,13.98,7.45,14.01,7.47,14.05z"/>
				<path d="M4.7,16.92c-0.01-0.09,0.1-0.06,0.15-0.01C4.68,16.92,4.7,16.92,4.7,16.92z"/>
				<path d="M3.09,13.58C3,13.55,3,13.51,3.02,13.45C3.07,13.44,3.05,13.42,3.09,13.58z"/>
				<path d="M0.99,6.54C0.84,6.63,0.86,6.62,0.84,6.6C0.9,6.53,0.92,6.47,0.99,6.54z"/>
				<path d="M1.77,15.62c0-0.1,0-0.1,0.09-0.11C1.82,15.55,1.79,15.58,1.77,15.62z"/>
				<path d="M-0.95,7.55C-1,7.49-0.97,7.45-0.93,7.4C-0.9,7.48-0.9,7.48-0.95,7.55z"/>
				<path d="M13.94,14.48c0.12,0.03,0.1,0.02,0.11,0.04C13.9,14.57,13.86,14.6,13.94,14.48z"/>
				<path d="M5.4,11.56c-0.17,0.03-0.15,0.04-0.15,0c0.04-0.04,0.1-0.01,0.15-0.02C5.4,11.55,5.4,11.55,5.4,11.56z"/>
				<path d="M5.96,14.42c0.1-0.05,0.11,0.05,0.06,0.06C5.97,14.49,5.96,14.46,5.96,14.42z"/>
				<path d="M7.43,12.22c0.04-0.02,0.09-0.03,0.1,0.05C7.41,12.24,7.43,12.26,7.43,12.22z"/>
				<path d="M11.21,17.52c-0.03,0.08-0.08,0.06-0.14,0.07C11.11,17.53,11.14,17.51,11.21,17.52z"/>
				<path d="M1.65,14.45c-0.03-0.05-0.03-0.05,0.01-0.13C1.68,14.39,1.68,14.39,1.65,14.45z"/>
				<path d="M3.31,16.23c-0.09,0.02-0.09,0.02-0.13-0.06C3.21,16.15,3.19,16.14,3.31,16.23z"/>
				<path d="M3.36,14.12c0.11-0.02,0.12-0.02,0.16,0.05C3.36,14.15,3.39,14.16,3.36,14.12z"/>
				<path d="M13.62,16.41c0.06,0.02,0.04,0.01,0.07,0.04c-0.09,0.08-0.08,0.07-0.1,0.05C13.6,16.48,13.61,16.45,13.62,16.41z"/>
				<path d="M11.82,17.05c0.04-0.01,0.08-0.02,0.12-0.03C11.92,17.09,11.92,17.09,11.82,17.05z"/>
				<path d="M-1.03,14.96c-0.06-0.05-0.01-0.09,0-0.14C-0.98,14.87-0.99,14.91-1.03,14.96z"/>
				<path d="M-1.07,4.95c0.04,0,0.07-0.01,0.11-0.01C-1.02,5.03-1.02,5.03-1.07,4.95z"/>
				<path d="M5.14,15.85c-0.05-0.04-0.07-0.05-0.11-0.08c0.01-0.01,0.02-0.03,0.03-0.03C5.14,15.72,5.13,15.78,5.14,15.85z"/>
				<path d="M0.05-0.35c0.15,0.01,0.15,0.01,0.1,0.1C0.12-0.28,0.09-0.31,0.05-0.35z"/>
				<path d="M1.16,5.89C1.13,5.85,1.12,5.87,1.19,5.8C1.24,5.84,1.24,5.82,1.16,5.89z"/>
				<path d="M5.12,12.43c0.05,0.1,0.07,0.07-0.03,0.13C5.06,12.53,5.06,12.55,5.12,12.43z"/>
				<path d="M13.45,16.22c0.02,0.04,0.03,0.07,0.05,0.1C13.41,16.32,13.41,16.32,13.45,16.22z"/>
				<path d="M8.27,16.55c-0.03-0.07-0.03-0.07,0.08-0.09C8.32,16.49,8.3,16.51,8.27,16.55z"/>
				<path d="M13.73,14.63c-0.06-0.01-0.1-0.01-0.14-0.02C13.64,14.57,13.64,14.57,13.73,14.63z"/>
				<path d="M5.3,11.41c0.02,0.01,0.02,0.01,0.02,0.01c0.01,0.03,0.02,0.07-0.03,0.09c-0.01,0-0.04-0.02-0.04-0.02
					C5.27,11.46,5.29,11.43,5.3,11.41z"/>
				<path d="M5.07,13.98c0-0.09,0.04-0.1,0.09-0.11C5.19,13.91,5.2,13.88,5.07,13.98z"/>
				<path d="M1.79,5.85C1.75,5.87,1.72,5.88,1.68,5.9C1.69,5.84,1.69,5.84,1.79,5.85z"/>
				<path d="M6.24,14.04c0,0.08,0,0.08-0.07,0.08C6.2,14.09,6.21,14.07,6.24,14.04z"/>
				<path d="M-0.63,6.7c-0.04,0.07-0.07,0.07-0.1,0.04c-0.01-0.01,0-0.04,0.01-0.04C-0.7,6.69-0.67,6.69-0.63,6.7z"/>
				<path d="M-1.32,12.01c-0.04-0.05-0.06-0.08-0.02-0.13C-1.28,11.91-1.29,11.95-1.32,12.01z"/>
				<path d="M13.69,15.81c-0.02,0.03-0.04,0.06-0.05,0.09C13.6,15.86,13.6,15.86,13.69,15.81z"/>
				<path d="M6.31,14.49c-0.03,0.02-0.05,0.03-0.08,0.03c-0.01,0-0.03-0.04-0.02-0.04c0.01-0.02,0.04-0.03,0.06-0.04
					C6.28,14.44,6.29,14.47,6.31,14.49z"/>
				<path d="M13.07,16.64c-0.05-0.06-0.02-0.09,0.03-0.13C13.13,16.57,13.13,16.61,13.07,16.64z"/>
				<path d="M6.19,17.1c-0.09,0-0.09,0-0.04-0.12C6.16,17.03,6.17,17.07,6.19,17.1z"/>
				<path d="M-1.11,11.18c0.03-0.02,0.06-0.04,0.1-0.06c-0.01,0.05-0.01,0.08-0.01,0.12C-1.05,11.23-1.08,11.21-1.11,11.18z"/>
				<path d="M3.96,14.58c0.04-0.01,0.07-0.02,0.11-0.03C4.03,14.65,4.03,14.65,3.96,14.58z"/>
				<path d="M1.85,9.29c0.06,0.05,0.01,0.09,0.02,0.13C1.81,9.37,1.81,9.37,1.85,9.29z"/>
				<path d="M1.19,9.45C1.16,9.47,1.11,9.5,1.1,9.42c0-0.01,0.03-0.03,0.04-0.03C1.15,9.39,1.16,9.42,1.19,9.45z"/>
				<path d="M13.24,15.79c0.06-0.02,0.1-0.03,0.13,0.03C13.33,15.85,13.29,15.86,13.24,15.79z"/>
				<path d="M-0.03,10.49c-0.06,0.03-0.03,0.04-0.1-0.02C-0.09,10.43-0.11,10.43-0.03,10.49z"/>
				<path d="M6.4,15.16c0.05,0.08,0.06,0.06-0.02,0.11C6.35,15.23,6.35,15.26,6.4,15.16z"/>
				<path d="M-1.06,11.08c-0.04,0.05-0.09,0.05-0.17,0.03C-1.14,11.03-1.04,11.11-1.06,11.08z"/>
				<path d="M4.09,10.12c0-0.03,0.01-0.06,0.01-0.1c0.02,0.02,0.04,0.03,0.05,0.04C4.15,10.1,4.14,10.13,4.09,10.12z"/>
				<path d="M5.91,16.37c-0.02,0.01,0,0.01-0.07,0.02c0-0.01-0.01-0.03,0-0.04C5.88,16.3,5.9,16.35,5.91,16.37
					C5.92,16.37,5.91,16.37,5.91,16.37z"/>
				<path d="M5.07,16.93C5.03,17,4.98,16.99,4.94,16.99C4.93,16.95,4.91,16.97,5.07,16.93z"/>
				<path d="M-3.15,15.62c-0.05,0.03-0.08,0.05-0.13,0.08C-3.25,15.62-3.24,15.59-3.15,15.62z"/>
				<path d="M3.63,10.17c-0.08-0.01-0.08-0.01-0.1-0.08C3.61,10.09,3.62,10.18,3.63,10.17z"/>
				<path d="M-0.67,6.62c-0.06,0.04-0.09,0.02-0.11-0.04C-0.74,6.59-0.7,6.61-0.67,6.62z"/>
				<path d="M3.63,10.17c0.04,0.01,0.07,0.02,0.11,0.04C3.66,10.26,3.65,10.26,3.63,10.17C3.63,10.17,3.63,10.17,3.63,10.17z"/>
				<path d="M-1.69,6.6c-0.05,0-0.11,0.05-0.14-0.06C-1.77,6.56-1.73,6.58-1.69,6.6z"/>
				<path d="M3.33,16.61c-0.09,0.08-0.07,0.07-0.1,0.04c0-0.05,0.01-0.09,0.07-0.07C3.31,16.58,3.32,16.6,3.33,16.61z"/>
				<path d="M-2.48,4.92c0.05-0.06,0.08-0.04,0.11-0.01C-2.38,4.96-2.36,4.95-2.48,4.92z"/>
				<path d="M14.11,15.74c0.01,0.06-0.02,0.09-0.06,0.11C14.03,15.83,14.02,15.85,14.11,15.74z"/>
				<path d="M14.7,15.92c-0.04-0.01-0.07-0.01-0.11-0.02c0.03-0.03,0.05-0.05,0.08-0.07C14.68,15.86,14.69,15.88,14.7,15.92z"/>
				<path d="M-0.1-0.35c0.04,0.02,0.07,0.03,0.11,0.05C-0.06-0.26-0.08-0.29-0.1-0.35z"/>
				<path d="M6.95,9.7c-0.04-0.05-0.03-0.04,0-0.08C7,9.68,7,9.66,6.95,9.7z"/>
				<path d="M2.91,13.65c0.05,0,0.08-0.01,0.13-0.01C3,13.71,2.97,13.72,2.91,13.65z"/>
				<path d="M3.78,12.16c0.09-0.11,0.07-0.11,0.07-0.03C3.86,12.18,3.83,12.18,3.78,12.16z"/>
				<path d="M3.66,9.24c0.07,0,0.07,0,0.06,0.07C3.7,9.28,3.68,9.26,3.66,9.24z"/>
				<path d="M1.62,12.59c0.02-0.02,0.04-0.04,0.07-0.06c0.01,0.03,0.02,0.04,0.01,0.05C1.69,12.62,1.67,12.65,1.62,12.59z"/>
				<path d="M-1.29,6.66c0-0.02-0.02-0.06-0.01-0.07c0.03-0.03,0.06-0.01,0.08,0.03C-1.3,6.66-1.29,6.66-1.29,6.66z"/>
				<path d="M1.21,6.97C1.18,6.95,1.16,6.93,1.12,6.91C1.18,6.88,1.18,6.88,1.21,6.97z"/>
				<path d="M2.62,7.18c0.04,0.06,0.04,0.03,0,0.09C2.58,7.23,2.58,7.26,2.62,7.18z"/>
				<path d="M-1.84,14.94c0-0.02-0.01-0.05-0.01-0.07c0,0,0.03-0.01,0.03-0.01c0.01,0.02,0.02,0.04,0.02,0.06
					C-1.81,14.93-1.82,14.93-1.84,14.94z"/>
				<path d="M14.05,16.95c0.03-0.05,0.01-0.04,0.1-0.02C14.13,16.98,14.15,16.97,14.05,16.95z"/>
				<path d="M2.01,15.92C1.98,15.86,2,15.84,2.04,15.83c0.01,0,0.03,0.02,0.03,0.02C2.05,15.87,2.03,15.89,2.01,15.92z"/>
				<path d="M12.3,15.23c-0.01,0.04,0,0.03-0.06,0.07c-0.02-0.02-0.03,0,0.03-0.08C12.28,15.22,12.29,15.23,12.3,15.23z"/>
				<path d="M1.74,12.3c0.01,0.08,0.01,0.08-0.05,0.12C1.7,12.37,1.72,12.34,1.74,12.3z"/>
				<path d="M2.61,11.73c-0.06-0.07,0.01-0.08,0.02-0.1C2.67,11.64,2.67,11.62,2.61,11.73z"/>
				<path d="M-0.39,12.79c-0.05,0.01-0.07,0.01-0.1,0.01C-0.47,12.73-0.47,12.73-0.39,12.79z"/>
				<path d="M-0.95,11.83c-0.03,0.05-0.01,0.04-0.11,0.01C-1.01,11.79-0.98,11.8-0.95,11.83z"/>
				<path d="M3.2,13.7c0.07,0.06,0.01,0.09,0,0.12C3.17,13.81,3.17,13.84,3.2,13.7z"/>
				<path d="M3.98,10.26c-0.02-0.02-0.04-0.04-0.06-0.06C3.99,10.19,3.99,10.19,3.98,10.26z"/>
				<path d="M2.27,9.49c-0.1,0-0.09,0.01-0.09-0.04C2.29,9.45,2.27,9.44,2.27,9.49z"/>
				<path d="M2.27,7.73C2.25,7.71,2.24,7.69,2.23,7.67C2.28,7.67,2.28,7.67,2.27,7.73z"/>
				<path d="M0.84,5.47C0.8,5.43,0.8,5.41,0.85,5.38C0.89,5.41,0.88,5.44,0.84,5.47z"/>
				<path d="M1.51,5.96c0.11,0.01,0.1,0,0.1,0.03c-0.05,0.02-0.03,0.02-0.1,0C1.51,5.98,1.51,5.97,1.51,5.96z"/>
				<path d="M-1.46,6.01c-0.01-0.08-0.01-0.12,0.08-0.1C-1.41,5.94-1.43,5.97-1.46,6.01z"/>
				<path d="M1.4,7.26C1.38,7.26,1.35,7.27,1.33,7.27C1.34,7.22,1.34,7.22,1.4,7.26z"/>
				<path d="M6.23,13.11c0.1,0.04,0.09,0.02,0.07,0.06C6.2,13.13,6.21,13.15,6.23,13.11z"/>
				<path d="M5.95,13.26c-0.02,0.06-0.05,0.07-0.11,0.04C5.91,13.26,5.88,13.27,5.95,13.26z"/>
				<path d="M4.68,13.82c0.01-0.02,0.03-0.03,0.05-0.05c0,0,0.02,0.01,0.02,0.01c-0.01,0.02-0.02,0.04-0.03,0.06
					C4.7,13.83,4.69,13.82,4.68,13.82z"/>
				<path d="M7.37,14.35c-0.1-0.03-0.09-0.02-0.08-0.06C7.39,14.31,7.37,14.3,7.37,14.35z"/>
				<path d="M10.47,15.33c0.08,0,0.09,0.02,0.07,0.07C10.52,15.38,10.51,15.36,10.47,15.33z"/>
				<path d="M13.68,15.7c0.09,0.04,0.08,0.02,0.07,0.06C13.65,15.74,13.66,15.75,13.68,15.7z"/>
				<path d="M9.23,15.75c0.05,0.11,0.05,0.09,0,0.11C9.18,15.79,9.19,15.82,9.23,15.75z"/>
				<path d="M-3,10.82c0.03-0.02,0.05-0.03,0.08-0.05c0.01,0.02,0.01,0.03,0.01,0.04C-2.93,10.84-2.95,10.86-3,10.82z"/>
				<path d="M5.25,16.06c-0.03-0.03-0.04-0.05-0.06-0.07c0.01-0.01,0.02-0.02,0.04-0.02C5.27,15.97,5.28,15.99,5.25,16.06z"/>
				<path d="M-0.33,15.81c-0.07,0.05-0.04,0.04-0.08,0.01C-0.36,15.76-0.37,15.76-0.33,15.81z"/>
				<path d="M-0.79,10.74c-0.03,0.02-0.06,0.03-0.09,0.04C-0.87,10.71-0.87,10.71-0.79,10.74z"/>
				<path d="M6.09,11.23c0.12,0.01,0.1,0,0.1,0.03C6.08,11.25,6.09,11.26,6.09,11.23z"/>
				<path d="M10.75,17.58c-0.02,0.06-0.04,0.07-0.1,0.04C10.69,17.61,10.71,17.6,10.75,17.58z"/>
				<path d="M-0.85,7.58c0.04,0,0.06-0.01,0.11-0.01C-0.78,7.61-0.81,7.63-0.85,7.58z"/>
				<path d="M13.36,14.51c-0.07,0.05-0.06,0.04-0.07,0.03c0.02-0.06,0.01-0.04,0.06-0.05C13.35,14.49,13.36,14.5,13.36,14.51z"/>
				<path d="M-2.14,4.32C-2.2,4.39-2.22,4.36-2.28,4.33C-2.22,4.32-2.19,4.32-2.14,4.32z"/>
				<path d="M-1.54,6.12c0.02-0.04,0.03-0.06,0.04-0.09C-1.47,6.07-1.46,6.1-1.54,6.12z"/>
				<path d="M1.52,15.34c0.04,0.06,0.04,0.06-0.02,0.09C1.51,15.4,1.51,15.38,1.52,15.34z"/>
				<path d="M-1.06,11.08c0.03-0.07,0.03-0.07,0.1,0C-1.08,11.08-1.07,11.08-1.06,11.08z"/>
				<path d="M-0.47,6.04C-0.49,6.1-0.52,6.09-0.58,6.06C-0.5,6.02-0.53,6.03-0.47,6.04z"/>
				<path d="M13.8,0.92c-0.03,0.01-0.05,0.02-0.08,0.03C13.73,0.9,13.73,0.9,13.8,0.92z"/>
				<path d="M13.63,17.08c-0.01-0.05-0.03-0.04,0.05-0.06C13.69,17.06,13.69,17.05,13.63,17.08z"/>
				<path d="M6.27,16.73c0.04,0,0.07,0.01,0.09,0.01C6.38,16.74,6.34,16.85,6.27,16.73z"/>
				<path d="M2.06,1.29c0.05,0,0.07,0,0.11,0C2.14,1.34,2.12,1.35,2.06,1.29z"/>
				<path d="M2.88,14.27c-0.02,0.01-0.05,0.01-0.08,0.02C2.82,14.23,2.82,14.23,2.88,14.27z"/>
				<path d="M12.69,15.34c-0.07,0.01-0.06,0.01-0.05-0.04C12.7,15.32,12.69,15.32,12.69,15.34z"/>
				<path d="M1.49,6.21c-0.01-0.06-0.02-0.05,0-0.07C1.54,6.19,1.55,6.17,1.49,6.21L1.49,6.21z"/>
				<path d="M2.43,7.62c0.06,0.09,0.05,0.07,0.03,0.09C2.39,7.63,2.39,7.65,2.43,7.62z"/>
				<path d="M4.36,14.07c0.03-0.01,0.05-0.01,0.07-0.02C4.42,14.12,4.42,14.12,4.36,14.07z"/>
				<path d="M3.59,13.91c0.04,0.02,0.06,0.03,0.11,0.06C3.63,13.99,3.6,13.99,3.59,13.91z"/>
				<path d="M-0.46,7.45C-0.52,7.38-0.51,7.4-0.49,7.37C-0.42,7.43-0.42,7.41-0.46,7.45z"/>
				<path d="M1.86,9.19c-0.08,0.03-0.07,0.03-0.08,0C1.86,9.15,1.85,9.15,1.86,9.19z"/>
				<path d="M10.18,16.26c-0.06,0.04-0.06-0.01-0.09-0.06C10.13,16.23,10.16,16.24,10.18,16.26z"/>
				<path d="M-2.29,16.19c-0.07-0.01-0.06,0-0.06-0.02C-2.28,16.15-2.29,16.15-2.29,16.19z"/>
				<path d="M-0.44,15.81c-0.08,0-0.07,0-0.08-0.02c0.05-0.03,0.03-0.02,0.08-0.01C-0.43,15.8-0.44,15.81-0.44,15.81z"/>
				<path d="M-2.69,7.27c0.02,0.01,0.03,0.03,0.05,0.05C-2.71,7.36-2.68,7.3-2.69,7.27z"/>
				<path d="M12.48,16.96c0.09,0.02,0.07,0.01,0.07,0.04c-0.07,0-0.04,0-0.08-0.02C12.47,16.97,12.48,16.97,12.48,16.96z"/>
				<path d="M0.13,12.46c-0.03-0.07-0.03-0.05,0-0.07C0.16,12.46,0.16,12.45,0.13,12.46z"/>
				<path d="M3.71,15.59c-0.09,0.02-0.07,0.02-0.09-0.02C3.68,15.55,3.66,15.55,3.71,15.59z"/>
				<path d="M-1.58,7.27c0,0,0.02,0.01,0.02,0.01C-1.57,7.3-1.58,7.32-1.58,7.34C-1.62,7.32-1.63,7.33-1.58,7.27z"/>
				<path d="M12.78,15.79c-0.05,0-0.06-0.01-0.05-0.05c0-0.01,0.02-0.01,0.03-0.02C12.76,15.74,12.77,15.77,12.78,15.79z"/>
				<path d="M9.6,15.15c-0.06,0.02-0.04,0.03-0.08-0.01C9.56,15.11,9.54,15.12,9.6,15.15z"/>
				<path d="M2.51,14.32c-0.09-0.02-0.08-0.01-0.08-0.04C2.53,14.31,2.51,14.3,2.51,14.32z"/>
				<path d="M5.54,11.92c-0.08-0.01-0.07,0-0.07-0.03C5.56,11.89,5.54,11.88,5.54,11.92z"/>
				<path d="M11.28,17.1c-0.01,0.08-0.01,0.08-0.05,0.1C11.22,17.19,11.21,17.21,11.28,17.1z"/>
				<path d="M6.34,14.62c-0.08,0.02-0.06,0.02-0.08-0.01C6.31,14.59,6.29,14.59,6.34,14.62z"/>
				<path d="M12.73,17.26c0.07,0.05,0.06,0.04,0.04,0.07C12.7,17.28,12.7,17.3,12.73,17.26z"/>
				<path d="M2.56,14.11c0.03,0.03,0.04,0.05,0.07,0.07C2.57,14.19,2.55,14.17,2.56,14.11z"/>
				<path d="M13.59,15.2c-0.04,0.03-0.07,0.02-0.09-0.02C13.54,15.15,13.56,15.17,13.59,15.2z"/>
				<path d="M13.42,15.22c-0.03-0.05-0.02-0.03,0.01-0.06C13.46,15.21,13.47,15.19,13.42,15.22z"/>
				<path d="M-3.32,13.06c-0.06,0.03-0.04,0.04-0.08,0C-3.36,13.03-3.38,13.03-3.32,13.06z"/>
				<path d="M13.9,15.93c0.03-0.06,0.06-0.03,0.08-0.03C13.99,15.94,14,15.93,13.9,15.93z"/>
				<path d="M-2.81,11.49c0.04,0.06,0.04,0.04,0,0.08C-2.83,11.54-2.83,11.56-2.81,11.49z"/>
				<path d="M8.24,13.52c-0.02,0.02-0.03,0.03-0.03,0.03c-0.01-0.01-0.02-0.02-0.02-0.03c0,0,0.01-0.02,0.02-0.02
					C8.22,13.51,8.23,13.52,8.24,13.52z"/>
				<path d="M4.96,13.1c0.02,0.02,0.03,0.04,0.03,0.05c0,0-0.02,0.02-0.02,0.02C4.91,13.14,4.93,13.14,4.96,13.1z"/>
				<path d="M13.26,16.92c-0.07,0.01-0.05,0.02-0.08-0.03C13.23,16.88,13.21,16.87,13.26,16.92z"/>
				<path d="M3.19,16.35c0.04-0.01,0.02-0.02,0.05,0.05C3.2,16.41,3.22,16.42,3.19,16.35z"/>
				<path d="M-2.49,6.17c-0.08,0.01-0.07,0.02-0.07-0.02C-2.48,6.14-2.49,6.13-2.49,6.17z"/>
				<path d="M2.94,6.54C2.92,6.5,2.91,6.52,2.95,6.48C2.97,6.5,2.97,6.48,2.94,6.54z"/>
				<path d="M3.63,16.53c0.01-0.02,0.02-0.05,0.04-0.08C3.71,16.52,3.68,16.53,3.63,16.53z"/>
				<path d="M2.94,6.42C3.02,6.4,3.01,6.4,3.01,6.43C2.93,6.44,2.95,6.45,2.94,6.42z"/>
				<path d="M1.41,5.91C1.49,5.9,1.48,5.89,1.48,5.92C1.4,5.92,1.41,5.93,1.41,5.91z"/>
				<path d="M9.05,10.06c0.01,0.01,0.02,0.02,0.03,0.03c-0.01,0.01-0.02,0.02-0.04,0.02c0,0-0.02-0.02-0.02-0.02
					C9.02,10.07,9.03,10.07,9.05,10.06z"/>
				<path d="M1.86,9.09C1.79,9.06,1.8,9.07,1.81,9.05C1.88,9.08,1.87,9.07,1.86,9.09z"/>
				<path d="M2.12,8.93c0.04-0.02,0.05-0.02,0.07-0.02c0,0,0.02,0.02,0.01,0.03C2.17,8.96,2.15,8.94,2.12,8.93z"/>
				<path d="M4.13,0.63c-0.02,0-0.04,0.01-0.05,0.01c0,0-0.01-0.02-0.01-0.02C4.1,0.59,4.12,0.62,4.13,0.63z"/>
				<path d="M4.47,0.22c0.02,0,0.04,0.01,0.08,0.01C4.51,0.28,4.49,0.26,4.46,0.24C4.45,0.23,4.46,0.22,4.47,0.22z"/>
				<path d="M4.2-0.11c-0.01,0.04,0,0.06-0.05,0.05C4.18-0.13,4.17-0.12,4.2-0.11z"/>
				<path d="M13.24,17.18c-0.02,0.02,0,0.02-0.06-0.01C13.2,17.14,13.19,17.14,13.24,17.18z"/>
				<path d="M4.28-0.25c0.06-0.01,0.05-0.01,0.05,0.02C4.27-0.23,4.28-0.22,4.28-0.25z"/>
				<path d="M-2.28,8.03c0.01,0.02,0.02,0.03,0.03,0.05c-0.01,0.01-0.03,0.01-0.04,0.01c-0.01,0-0.02-0.02-0.02-0.02
					C-2.3,8.05-2.29,8.05-2.28,8.03z"/>
				<path d="M12.98,16.47c0.05-0.05,0.04-0.04,0.05-0.03C12.99,16.49,13,16.49,12.98,16.47z"/>
				<path d="M0.28,14.99c0.05,0.04,0.04,0.03,0.03,0.05C0.26,15,0.26,15.01,0.28,14.99z"/>
				<path d="M1.37,16.61c-0.06,0.02-0.04,0.03-0.07-0.02C1.33,16.57,1.31,16.57,1.37,16.61z"/>
				<path d="M4.84,16.2c-0.02-0.03-0.03-0.02,0.01-0.05C4.87,16.18,4.87,16.17,4.84,16.2z"/>
				<path d="M2.71,11.53c-0.05,0-0.04,0.01-0.05-0.03C2.71,11.49,2.7,11.49,2.71,11.53z"/>
				<path d="M10.75,15.97c-0.02-0.01-0.03-0.01-0.05-0.02c0-0.01,0.01-0.02,0.01-0.02C10.77,15.95,10.76,15.95,10.75,15.97z"/>
				<path d="M9.27,15.65c0.02,0.04,0.03,0.03-0.01,0.06C9.23,15.68,9.23,15.69,9.27,15.65z"/>
				<path d="M3.56,12.62c-0.03,0.05-0.02,0.04-0.04,0.03C3.54,12.6,3.54,12.61,3.56,12.62z"/>
				<path d="M9.52,13.17c0.01,0.03,0.03,0.05-0.02,0.07c0,0-0.02-0.02-0.02-0.02C9.49,13.21,9.5,13.2,9.52,13.17z"/>
				<path d="M-2.29,14.21c0.02-0.06,0.01-0.06,0.04-0.05C-2.28,14.23-2.27,14.22-2.29,14.21z"/>
				<path d="M13.34,15.46c-0.04,0.05-0.03,0.04-0.06,0.02C13.32,15.43,13.31,15.43,13.34,15.46z"/>
				<path d="M-0.55,10.72c-0.05,0.01-0.03,0.02-0.06-0.01C-0.58,10.68-0.6,10.68-0.55,10.72z"/>
				<path d="M3.32,9.01c-0.04,0.02-0.03,0.02-0.05,0C3.32,8.99,3.3,9,3.32,9.01z"/>
				<path d="M3.77,10.04c0.01,0.02,0.02,0.02-0.02,0.04C3.74,10.04,3.74,10.05,3.77,10.04z"/>
				<path d="M-2.35,6.38c0.07,0.01,0.08,0.04,0.08,0.07C-2.28,6.46-2.27,6.47-2.35,6.38z"/>
				<path d="M-0.24,15.98c0.02,0.04,0.03,0.03-0.01,0.06C-0.27,16-0.27,16.01-0.24,15.98z"/>
				<path d="M-2.29,8.89C-2.34,8.9-2.32,8.91-2.35,8.86C-2.31,8.85-2.33,8.83-2.29,8.89z"/>
				<path d="M13.31,1.51c0.03,0.07,0.03,0.05,0,0.06C13.28,1.51,13.28,1.52,13.31,1.51z"/>
				<path d="M4.41,10.29c0,0-0.01-0.01-0.01-0.02c0.01-0.01,0.02-0.03,0.04-0.04C4.46,10.26,4.46,10.25,4.41,10.29z"/>
				<path d="M-2.28,15.19c-0.04,0.02-0.02,0.03-0.05,0C-2.3,15.16-2.32,15.17-2.28,15.19z"/>
				<path d="M-0.07,10.62c-0.07-0.01-0.06,0-0.05-0.04C-0.06,10.61-0.06,10.6-0.07,10.62z"/>
				<path d="M1.35,16.42C1.3,16.44,1.31,16.44,1.3,16.4C1.36,16.4,1.35,16.4,1.35,16.42z"/>
				<path d="M-0.78,8.29c-0.02,0.02-0.01,0.02-0.04,0C-0.8,8.28-0.81,8.27-0.78,8.29z"/>
				<path d="M5.74,13.08c-0.02-0.02-0.02-0.01,0-0.04C5.76,13.05,5.76,13.04,5.74,13.08z"/>
				<path d="M6.27,12.79c0.01,0.06,0.01,0.04-0.01,0.07C6.23,12.84,6.21,12.83,6.27,12.79z"/>
				<path d="M2.51,16.24c-0.05,0.03-0.03,0.03-0.07-0.01C2.49,16.21,2.47,16.21,2.51,16.24z"/>
				<path d="M1.17,6.04C1.18,6.05,1.2,6.06,1.21,6.07c0,0-0.01,0.02-0.01,0.02C1.14,6.07,1.15,6.07,1.17,6.04z"/>
				<path d="M12.94,13.91c0.03-0.02,0.02-0.03,0.05,0.01C12.96,13.96,12.97,13.96,12.94,13.91z"/>
				<path d="M0.45,4.27C0.51,4.31,0.5,4.3,0.49,4.32C0.43,4.28,0.43,4.29,0.45,4.27z"/>
				<path d="M3.21,9.4C3.2,9.39,3.18,9.38,3.18,9.37C3.19,9.36,3.2,9.35,3.21,9.34c0,0,0.02,0.01,0.02,0.02
					C3.23,9.37,3.22,9.38,3.21,9.4z"/>
				<path d="M6.04,13.44c0.04,0.05,0.04,0.03,0.01,0.06C6.01,13.45,6.01,13.46,6.04,13.44z"/>
				<path d="M1.09,15.46c0-0.02,0-0.04,0-0.06c0.01,0,0.02,0,0.02,0C1.11,15.47,1.11,15.46,1.09,15.46z"/>
				<path d="M5.4,13.46c-0.07,0.02-0.06,0.02-0.06,0C5.41,13.44,5.4,13.43,5.4,13.46z"/>
				<path d="M6.19,13.72c0.03,0.04,0.03,0.03,0,0.05C6.16,13.74,6.16,13.75,6.19,13.72z"/>
				<path d="M1.8,5.58C1.8,5.61,1.82,5.6,1.75,5.62C1.74,5.58,1.73,5.6,1.8,5.58z"/>
				<path d="M3.46,5.73c0.05,0.04,0.05,0.03,0.03,0.05C3.44,5.75,3.44,5.76,3.46,5.73z"/>
				<path d="M13.74,14.89c-0.01-0.07-0.01-0.06,0.02-0.06C13.76,14.9,13.77,14.89,13.74,14.89z"/>
				<path d="M-2.5,8.54c-0.04,0.03-0.02,0.04-0.07,0.01C-2.55,8.52-2.56,8.52-2.5,8.54z"/>
				<path d="M-0.52,11.43c0.11-0.03,0.09-0.03,0.1,0C-0.52,11.44-0.51,11.45-0.52,11.43z"/>
				<path d="M12.3,15.03c-0.03,0.05-0.02,0.05-0.05,0.03C12.29,15.01,12.28,15.01,12.3,15.03z"/>
				<path d="M1.49,6.2c0,0.07,0.02,0.07-0.07,0.01C1.43,6.19,1.41,6.2,1.49,6.2L1.49,6.2z"/>
				<path d="M12.77,17.8c-0.05,0.05-0.04,0.05-0.07,0.01C12.75,17.75,12.74,17.75,12.77,17.8z"/>
				<path d="M4.42,14.38c0.03,0.05,0.03,0.04-0.01,0.06C4.38,14.39,4.38,14.41,4.42,14.38z"/>
				<path d="M-0.03,8.75C-0.07,8.8-0.06,8.8-0.07,8.78C-0.04,8.73-0.05,8.74-0.03,8.75z"/>
				<path d="M1.99,5.58c0.02,0.04,0.03,0.02,0,0.05C1.96,5.6,1.97,5.61,1.99,5.58z"/>
			</g>
			<g>
				
					<rect x="0.23" y="-2.84" transform="matrix(0.1096 -0.994 0.994 0.1096 -0.4848 12.2319)" class="st1" width="12.72" height="18.46"/>
				<path d="M1.68,11.93c-0.04-0.04-0.06-0.09-0.02-0.15c0.04,0.05,0.07,0.09,0.05,0.16C1.69,11.93,1.68,11.93,1.68,11.93z"/>
				<path d="M11.07,12.9c0.1-0.01,0.1-0.01,0.11,0.07C11.1,12.97,11.12,12.99,11.07,12.9z"/>
				<path d="M12.04,12.99c0.06,0.01,0.06,0.05,0.05,0.08C12.05,13.07,12.06,13.09,12.04,12.99z"/>
				<path d="M13.56,6.53c0.09,0.04,0.04,0.11,0.06,0.15c0.03,0.07-0.01,0.1-0.04,0.15c0.02,0.03,0.04,0.05,0.06,0.07
					c0.09-0.04,0.18-0.1,0.29-0.05c0.02-0.05,0.04-0.09,0.06-0.12c0.05,0,0.1,0,0.16,0c-0.06,0.13-0.11,0.12-0.01,0.19
					c0.05,0.04,0.04,0.08,0,0.13C14.1,7.02,14.05,7,14,6.98c-0.1,0.02-0.09,0.14-0.16,0.2c-0.04-0.04-0.06-0.09-0.13-0.08
					c-0.02,0-0.06-0.02-0.07-0.04c-0.01-0.14-0.15-0.03-0.22-0.17c-0.02-0.05-0.08-0.08-0.13-0.12c0-0.05,0.05-0.07,0.1-0.08
					c0.05-0.01,0.07-0.04,0.1-0.08C13.5,6.58,13.54,6.56,13.56,6.53z M13.93,6.96c-0.04-0.02-0.06-0.04-0.08-0.04
					c-0.06,0.01-0.06,0.06-0.06,0.11C13.83,7.02,13.87,7,13.93,6.96z"/>
				<path d="M10.16,4.64c0-0.02,0-0.04,0.01-0.06c-0.11-0.02-0.11-0.02-0.18,0.08c-0.05,0-0.1,0-0.16,0
					C9.84,4.63,9.85,4.6,9.87,4.58c0.11-0.1,0.11-0.14,0.02-0.24c0.35-0.07,0.34,0.3,0.32,0.06c0.03,0,0.06,0,0.09,0
					c0,0.07,0.01,0.12,0.01,0.18c0.12-0.02,0.16,0.01,0.21,0.15c-0.11,0.07-0.21,0.18-0.36,0.15c-0.03-0.01-0.07,0-0.07-0.06
					c0.05,0.01,0.09-0.04,0.14,0.01c0.01,0.01,0.05,0,0.06-0.02c0.01-0.01,0-0.05-0.01-0.06c-0.02-0.02-0.05-0.02-0.19-0.05
					C10.09,4.65,10.12,4.64,10.16,4.64c0.02,0.02,0.03,0.03,0.05,0.06c0.02-0.03,0.03-0.05,0.06-0.09
					C10.22,4.62,10.19,4.63,10.16,4.64z"/>
				<path d="M11.78,7.85c0.01-0.02,0.01-0.04,0.02-0.07c0.05,0.03,0.09,0.05,0.14,0.08c-0.05,0.06-0.09,0.11-0.13,0.17
					c0.06,0.07,0.02,0.14-0.03,0.23c-0.03-0.08,0-0.07-0.14-0.03c-0.14,0.04-0.2-0.11-0.14-0.16c0.16-0.12,0.2-0.09,0.19-0.17
					C11.67,7.81,11.74,7.86,11.78,7.85z"/>
				<path d="M2.17,5.5C2.05,5.54,1.93,5.57,1.82,5.45c0.01-0.03,0.03-0.07,0.05-0.11C1.92,5.37,1.96,5.4,2.02,5.37
					C2.05,5.36,2.09,5.39,2.13,5.4C2.2,5.34,2.12,5.31,2.12,5.26C2.15,5.2,2.18,5.13,2.22,5.04c0.03,0.11,0.01,0.2,0.05,0.29
					C2.3,5.41,2.32,5.5,2.35,5.58C2.26,5.59,2.26,5.59,2.17,5.5z"/>
				<path d="M3.33,5.19C3.28,5.21,3.2,5.22,3.22,5.31C3.16,5.32,3.1,5.32,3.05,5.28c0.11-0.1,0.15-0.12,0.08-0.16
					C3.1,5.18,2.99,5.18,3.05,5.28c-0.01,0.09-0.1,0.05-0.14,0.08c-0.05-0.04-0.09-0.07-0.14-0.1C2.83,5.22,2.89,5.18,2.92,5.1
					C2.93,5.06,3,5.04,3.05,5c0.04,0.09,0.16,0.05,0.18,0.17c0.03-0.02,0.03,0,0.01-0.09C3.22,5.03,3.22,5.03,3.3,5.01
					c0.02,0.04-0.02,0.1,0.04,0.13C3.35,5.14,3.32,5.19,3.33,5.19z"/>
				<path d="M-0.8,3.12c0.15-0.13,0.1,0.13,0.23,0.05C-0.59,3.13-0.6,3.1-0.62,3.06c0.03-0.01,0.05-0.01,0.08-0.02
					c0.07,0.11,0.15,0.2,0.17,0.33c0.01,0.06,0.02,0.06-0.04,0.13C-0.62,3.45-0.68,3.26-0.8,3.12z"/>
				<path d="M13.61,5.67c0.03-0.05,0.05-0.08,0.07-0.11c0.02,0.01,0.04,0.01,0.07,0.02c-0.04,0.08-0.1,0.11-0.18,0.13
					c0.09,0.03,0.17,0.04,0.25-0.03c-0.02,0.11-0.14,0.09-0.2,0.16c0.05,0.05,0.1,0,0.14,0c0.01,0.06,0.01,0.06-0.1,0.12
					c-0.07-0.03-0.12-0.08-0.11-0.15c-0.07-0.02-0.13-0.03-0.2-0.05c0.01-0.03,0.02-0.06,0.03-0.09c-0.02-0.05-0.11-0.03-0.11-0.11
					c0-0.05-0.04-0.11,0.03-0.16c0.04,0.07,0.06,0.14,0.11,0.19C13.46,5.63,13.54,5.64,13.61,5.67z"/>
				<path d="M14.63,10.19c0.05-0.05,0.12-0.07,0.19-0.07c0-0.09,0.12-0.02,0.12-0.11c0.05,0.05,0.1,0.1,0.14,0.14
					c-0.06,0.06-0.17-0.05-0.22,0.07c0.03,0.02,0.05,0.04,0.08,0.06c-0.02,0.07-0.05,0.13-0.08,0.21
					C14.75,10.41,14.65,10.33,14.63,10.19z"/>
				<path d="M15.14,7.52c-0.02-0.03-0.03-0.04-0.05-0.05c0.05-0.02,0.08-0.06,0.06-0.13c0.12,0.08,0.12,0.1,0.05,0.2
					c0.1-0.01,0.06-0.01,0.15,0.01c-0.04,0.02-0.06,0.03-0.08,0.04c0.03,0.17-0.13,0.12-0.15,0.16c-0.05,0.07-0.12-0.01-0.17,0.04
					c-0.2-0.22-0.1-0.06,0.11-0.13c-0.02-0.03-0.04-0.07-0.06-0.1C15.05,7.54,15.09,7.53,15.14,7.52z"/>
				<path d="M9.84,3.93C9.77,3.84,9.86,3.79,9.84,3.72c0.05-0.02,0.09-0.05,0.13-0.07c-0.01-0.12-0.01-0.12,0.17-0.16
					c0.02,0.04,0.01,0.13-0.06,0.31C10,3.85,9.92,3.89,9.84,3.93z"/>
				<path d="M13.57,2.2c-0.02-0.03-0.02-0.07-0.05-0.1c-0.06-0.06-0.09-0.13-0.1-0.21c0-0.03-0.02-0.06-0.03-0.09
					c0-0.02,0-0.04,0.01-0.06c0.13,0.05,0.27,0.23,0.22,0.34c-0.03,0.07,0.07,0.22-0.04,0.26c-0.07,0.03-0.14,0.01-0.19-0.06
					C13.43,2.25,13.49,2.23,13.57,2.2z"/>
				<path d="M13.8,6.64c-0.03-0.07-0.17-0.14,0.05-0.18c0.05-0.01,0.1-0.04,0.16,0c0.04,0.02,0.1,0,0.15,0
					c0.02,0.06,0.01,0.1-0.05,0.13c-0.05,0.03-0.1,0.07-0.16,0.11C13.78,6.63,13.8,6.63,13.8,6.64z"/>
				<path d="M14.5,10c0.15-0.07,0.23-0.19,0.31-0.3c0.1,0.05,0.11,0.13,0.03,0.17c-0.17,0.09-0.19,0.32-0.29,0.29
					c-0.05-0.02-0.05-0.05-0.04-0.1C14.52,10.04,14.51,10.02,14.5,10z"/>
				<path d="M2.4,5c0.17,0.06,0.18,0.16,0.01,0.32C2.36,5.29,2.29,5.28,2.28,5.2C2.28,5.07,2.37,5.02,2.4,5z"/>
				<path d="M11.18,2.15c-0.07,0.11-0.17,0.07-0.19,0.08c-0.09,0.07-0.16,0-0.24-0.04c0.03-0.05,0.06-0.1,0.08-0.14
					c0.04,0.03,0.07,0.08,0.12,0.09c0.04,0.01,0.09-0.01,0.14-0.02C11.1,2.08,11.11,2.04,11.12,2c0.05,0.02,0.08,0.03,0.12,0.04
					c0,0,0.01-0.03-0.04,0.1C11.19,2.14,11.19,2.14,11.18,2.15z"/>
				<path d="M16.39,1.7C16.39,1.69,16.38,1.69,16.39,1.7c0.02,0.02-0.21-0.02-0.22-0.02c0.01-0.05,0.01-0.08,0.02-0.12
					c-0.11,0.01-0.08,0.13-0.15,0.17c-0.01,0,0.02,0.07,0.04,0.1c0.04,0.01,0.08,0.01,0.13,0.02c0.02-0.09,0.1-0.08,0.17-0.1
					L16.39,1.7z"/>
				<path d="M12.05,2.81c0.01-0.19,0.14-0.01,0.21-0.15c-0.25-0.11-0.21-0.07-0.23-0.18c0.06-0.03,0.05,0.02,0.07,0.05
					c0.03-0.01,0.05-0.01,0.08-0.02c0.04,0.05,0.11,0.09,0.12,0.14c0.01,0.05-0.03,0.12-0.07,0.15C12.15,2.87,12.32,2.96,12.05,2.81
					z"/>
				<path d="M10.36,3.97c0.03-0.15-0.21-0.1-0.15-0.22c0.05-0.1,0.24,0.02,0.31,0.26l0,0C10.46,4.07,10.42,3.98,10.36,3.97
					L10.36,3.97z"/>
				<path d="M7.76,10.24c-0.05-0.04-0.09-0.11-0.19-0.04c0.02-0.06,0.02-0.09,0.04-0.1c0.06-0.04,0.12-0.08,0.15-0.16
					c0.06,0.05,0.12,0.1,0.18,0.16C7.79,10.15,7.84,10.11,7.76,10.24z"/>
				<path d="M7.71,9.24c0.02-0.04,0.04-0.08,0.05-0.13C7.83,9.15,7.89,9.18,7.95,9.2c0.06,0.02,0.12,0.02,0.17,0.1
					C8.06,9.31,8.02,9.32,7.97,9.33c0-0.08,0.02-0.06-0.09-0.08C7.87,9.28,7.85,9.31,7.82,9.36C7.78,9.31,7.75,9.28,7.71,9.24z"/>
				<path d="M12.64,0.8c0.08-0.02,0.18,0,0.27-0.04c-0.01,0.2-0.09,0.16-0.18,0.14c-0.03,0.12-0.01,0.09-0.13,0.11
					C12.6,0.94,12.62,0.88,12.64,0.8z"/>
				<path d="M4.66,1.36C4.75,1.4,4.88,1.34,4.92,1.49c-0.06,0.03-0.1,0.1-0.18,0.07C4.66,1.53,4.66,1.45,4.66,1.36z"/>
				<path d="M11.4,7.48c-0.05,0.05-0.1,0.02-0.15,0c-0.04-0.08,0.01-0.12,0.05-0.16c-0.02-0.13-0.03-0.1,0.01-0.12
					C11.45,7.36,11.44,7.3,11.4,7.48L11.4,7.48z"/>
				<path d="M9.74,5.27C9.73,5.13,9.72,5.17,9.81,5.07c-0.02-0.03,0-0.02-0.11,0.01C9.66,4.91,9.8,4.85,9.79,4.93
					C9.79,5.01,9.7,4.97,9.9,5C9.86,5.1,9.85,5.2,9.74,5.27z"/>
				<path d="M12.25,1.92c0.05,0,0.09-0.01,0.13,0c0.16,0.04,0.06,0.21-0.06,0.18C12.25,2.08,12.24,2.04,12.25,1.92z"/>
				<path d="M10.68,4.35c0,0-0.04-0.01-0.06-0.02c0.04-0.04,0.07-0.08,0.12-0.13c0.06,0.1,0.11,0.19,0.16,0.29
					c-0.04,0.06-0.07-0.01-0.11-0.01C10.72,4.4,10.67,4.42,10.68,4.35z"/>
				<path d="M12.34,9.18c-0.03,0.04-0.05,0.06-0.06,0.07c-0.05,0.03-0.11,0.03-0.12,0.1c0,0.01-0.04,0.02-0.05,0.01
					c-0.01-0.01-0.03-0.04-0.02-0.05c0.06-0.12,0.09-0.04,0-0.18C12.1,9.11,12.06,9.1,12.34,9.18z"/>
				<path d="M13.62,6.4c-0.3-0.02-0.22,0.02-0.37-0.13c0.15-0.07,0.04-0.04,0.23,0.05C13.64,6.38,13.64,6.32,13.62,6.4z"/>
				<path d="M14.18,5.51c0.12-0.19,0.05-0.12,0.2-0.09c0.03,0.01,0.07,0,0.12,0.01c-0.06,0.09-0.09,0.15-0.16,0.11
					C14.29,5.51,14.24,5.52,14.18,5.51z"/>
				<path d="M13.81,5.63c-0.04-0.12-0.05-0.09,0.04-0.13c0.07-0.03,0.07-0.03,0.11,0.04c0.02,0.03,0.06,0.06,0.09,0.09
					c-0.11,0.07-0.15-0.04-0.22-0.07C13.83,5.65,13.83,5.63,13.81,5.63z"/>
				<path d="M11.64,5.15c-0.02-0.06-0.12-0.04-0.09-0.12c0.05,0.02,0.11,0.03,0.16,0.05c0.12,0.05,0.04,0.3-0.14,0.09
					C11.59,5.16,11.61,5.15,11.64,5.15z"/>
				<path d="M2.95,4.85C3,4.88,3.04,4.91,3.01,4.96C2.97,5.05,2.9,5.06,2.77,5.02C2.83,4.96,2.89,4.91,2.95,4.85z"/>
				<path d="M10.85,2.74c0.01-0.15-0.05-0.18,0.11-0.28c0.03-0.02,0.07-0.02,0.08,0.02c0.01,0.02-0.01,0.08-0.02,0.08
					c-0.1,0-0.09,0.09-0.12,0.14C10.89,2.71,10.87,2.72,10.85,2.74z"/>
				<path d="M11.4,7.48c0.03,0,0.07,0,0.11,0.01c0.04,0.2,0.04,0.14,0,0.21c-0.06-0.06-0.05-0.04-0.06-0.07
					c-0.04,0.01-0.08,0.06-0.11,0.01C11.41,7.46,11.4,7.47,11.4,7.48z"/>
				<path d="M-1.99,7.32c0,0.1,0,0.19-0.11,0.22C-2.17,7.41-2.13,7.34-1.99,7.32z"/>
				<path d="M1.14,4.17C1.25,4,1.25,4,1.22,3.87c0.04,0.02,0.07,0.03,0.1,0.05C1.34,3.9,1.36,3.87,1.41,3.84
					C1.39,3.91,1.39,3.96,1.32,4C1.27,4.02,1.27,4.19,1.14,4.17z"/>
				<path d="M11.74,1.02c-0.04-0.04-0.07-0.07-0.1-0.11c0.04-0.06,0.08-0.11,0.13-0.18c0.01,0.03,0.04,0.05,0.03,0.06
					C11.76,0.86,11.81,0.94,11.74,1.02z"/>
				<path d="M6.13,0.45C6.2,0.36,6.22,0.31,6.28,0.32c0.02,0,0.04,0.06,0.02,0.11C6.28,0.46,6.26,0.5,6.23,0.56
					C6.19,0.47,6.22,0.5,6.13,0.45z"/>
				<path d="M3.98,3.84C4.03,3.9,4.13,3.92,4.15,4.02C4.13,4.03,4.11,4.05,4.1,4.04C3.98,3.99,3.86,3.92,3.98,3.84z"/>
				<path d="M14.17,5.58c0.02,0.01,0.17,0.07,0.09,0.18c-0.03,0.04-0.1,0.04-0.1,0c-0.01-0.05-0.01-0.1-0.02-0.16
					C14.15,5.6,14.16,5.59,14.17,5.58z"/>
				<path d="M6.11,9.14C6.11,9.1,6.1,9.05,6.09,9.02c0.08-0.05,0.08,0.03,0.12,0.05C6.25,9,6.31,9.02,6.37,9.03
					C6.31,9.13,6.21,9.11,6.11,9.14z"/>
				<path d="M13.34,1.6c0,0.05,0.01,0.09,0.02,0.14c-0.07-0.01-0.13-0.01-0.19-0.02C13.18,1.63,13.23,1.6,13.34,1.6z"/>
				<path d="M8.92,12.1c0.05-0.03,0.1-0.07,0.16-0.1c0.04,0.06,0.06,0.11,0.02,0.17C9.01,12.22,8.98,12.1,8.92,12.1z"/>
				<path d="M10.9,12.81c-0.06,0.07-0.11,0.07-0.22,0C10.77,12.71,10.77,12.7,10.9,12.81z"/>
				<path d="M6.73,9.91C6.7,9.98,6.63,9.93,6.59,9.97C6.53,9.9,6.58,9.84,6.6,9.77C6.75,9.92,6.74,9.91,6.73,9.91z"/>
				<path d="M15.89,4.3c-0.02,0.02-0.05,0.04-0.07,0.06c-0.07-0.03-0.15-0.06-0.23-0.1C15.64,4.17,15.83,4.28,15.89,4.3z"/>
				<path d="M7.94,10.7c0.06,0.01,0.09,0.01,0.14,0.02c0.01,0.05,0.01,0.1,0.02,0.16C8.01,10.85,7.95,10.81,7.94,10.7z"/>
				<path d="M7.4,12.3c0.07-0.02,0.12-0.04,0.19-0.06c0,0.03,0.01,0.06,0,0.09c-0.02,0.09-0.08,0.05-0.18,0
					C7.41,12.33,7.41,12.33,7.4,12.3z"/>
				<path d="M14.32,6.03c-0.01,0.04-0.02,0.08-0.03,0.12c-0.09-0.01-0.12-0.09-0.17-0.14C14.14,5.97,14.1,5.98,14.32,6.03z"/>
				<path d="M8.26,3.43c0.03,0.04,0.17,0.2,0.04,0.2c-0.04,0-0.08-0.01-0.11-0.01C8.21,3.56,8.23,3.51,8.26,3.43z"/>
				<path d="M9.3,7.81C9.23,7.78,9.17,7.76,9.17,7.68C9.23,7.67,9.3,7.65,9.36,7.72C9.34,7.75,9.32,7.78,9.3,7.81z"/>
				<path d="M3.46,4.26C3.41,4.13,3.42,4.08,3.46,4.05c0.04-0.02,0.07,0,0.13,0.09C3.53,4.15,3.46,4.16,3.46,4.26z"/>
				<path d="M14.8,9.05c0.04-0.07,0.07-0.13,0.11-0.2c0.02,0.02,0.04,0.02,0.04,0.03c-0.01,0.05-0.02,0.11-0.04,0.16
					C14.89,9.07,14.85,9.1,14.8,9.05z"/>
				<path d="M11.73,5.53c0.04,0,0.08,0,0.17,0.01c-0.1,0.05-0.04,0.13-0.07,0.19C11.7,5.63,11.72,5.68,11.73,5.53z"/>
				<path d="M11.06,5.89c-0.12,0.07-0.14-0.05-0.23-0.03C11.15,5.5,10.84,5.81,11.06,5.89z"/>
				<path d="M16.17,1.19c0.05-0.1,0.08-0.1,0.21,0.02C16.36,1.29,16.33,1.26,16.17,1.19z"/>
				<path d="M14.69,8.51c0.08-0.02,0.14-0.03,0.21-0.04c0.01,0.05-0.01,0.09-0.06,0.12C14.78,8.61,14.74,8.56,14.69,8.51z"/>
				<path d="M12.62,3.07c-0.06,0-0.12,0.01-0.19,0.02c0-0.05,0.01-0.11,0.01-0.18C12.51,2.97,12.57,3.02,12.62,3.07z"/>
				<path d="M1.18-0.03c0.07,0.01,0.14-0.01,0.17,0.09C1.32,0.08,1.28,0.1,1.26,0.1C1.2,0.09,1.2,0.03,1.18-0.03z"/>
				<path d="M7.33,9.29c-0.1-0.11-0.1-0.2,0.01-0.27C7.34,9.11,7.34,9.19,7.33,9.29z"/>
				<path d="M0.99,9.12c0.17,0.07,0.14,0.19,0.1,0.2C1.03,9.34,1.02,9.27,0.99,9.12z"/>
				<path d="M7.34,2.17C7.37,2.09,7.4,2.02,7.36,1.94c0-0.01,0.03-0.04,0.04-0.06C7.42,1.9,7.44,1.92,7.44,1.94
					c0,0.06-0.02,0.11-0.02,0.16C7.41,2.15,7.39,2.17,7.34,2.17z"/>
				<path d="M6.96,9.86c0,0.05-0.01,0.1-0.01,0.14C6.89,9.92,6.79,9.97,6.73,9.91C6.73,9.91,6.71,9.91,6.96,9.86z"/>
				<path d="M4.73,5.15C4.68,5.23,4.64,5.29,4.6,5.36C4.53,5.24,4.56,5.17,4.73,5.15z"/>
				<path d="M11.26,6.95c0.02,0,0.05-0.01,0.08-0.01c0.01,0.14,0.01,0.15-0.08,0.21C11.28,7.01,11.27,7.06,11.26,6.95z"/>
				<path d="M14.37,6.65c0.01,0.02,0.02,0.06,0.04,0.06c0.1,0.01,0.09,0.08,0.07,0.14C14.37,6.82,14.36,6.8,14.37,6.65z"/>
				<path d="M12.28,1.27c0.04-0.06,0.03-0.13,0.11-0.15C12.41,1.28,12.39,1.31,12.28,1.27z"/>
				<path d="M13.64,4.08c0-0.09,0.02-0.13,0.1-0.12c0.02,0.05,0.04,0.11,0.06,0.16C13.72,4.17,13.72,4.02,13.64,4.08z"/>
				<path d="M6.27,8.55c0.11,0.02,0.05,0.14,0.01,0.26C6.18,8.79,6.21,8.75,6.27,8.55z"/>
				<path d="M13.39,7.23c-0.07,0.02-0.15,0.04-0.23-0.03c0.05-0.02,0.1-0.04,0.16-0.06C13.4,7.24,13.39,7.23,13.39,7.23z"/>
				<path d="M9.92,7.9C9.88,7.95,9.84,8,9.8,8.05C9.76,7.99,9.76,7.95,9.81,7.89C9.84,7.86,9.84,7.86,9.92,7.9z"/>
				<path d="M11.18,2.15c0.04-0.02,0.08-0.04,0.06-0.12c0,0-0.01,0,0.05-0.02c0.02,0.06,0.03,0.12,0.05,0.2
					C11.28,2.18,11.22,2.2,11.18,2.15z"/>
				<path d="M14.64,5.46c0.01,0.03,0.02,0.06,0.04,0.1c-0.04,0.02-0.09,0.03-0.13,0.05C14.53,5.5,14.53,5.5,14.64,5.46z"/>
				<path d="M14.89,10.66c0.02,0.13-0.01,0.12-0.18,0.08C14.7,10.7,14.68,10.72,14.89,10.66z"/>
				<path d="M10.61,4.95c0.01,0.05,0.02,0.08,0.03,0.12c-0.09,0.08-0.09,0.08-0.15,0.02C10.52,5.05,10.56,5,10.61,4.95z"/>
				<path d="M9.87,8.24C9.84,8.19,9.83,8.16,9.81,8.13c0.06-0.04,0.1-0.05,0.15,0.01C9.94,8.17,9.91,8.2,9.87,8.24z"/>
				<path d="M12.74,1.2c-0.09,0.07-0.16,0.03-0.22-0.01C12.6,1.17,12.67,1.14,12.74,1.2z"/>
				<path d="M16.11,1.27c0.03-0.01,0.07-0.01,0.11-0.02c0.01,0.05,0.01,0.09,0.02,0.14C16.06,1.29,16.08,1.32,16.11,1.27z"/>
				<path d="M2.36,10.38c0,0.14-0.01,0.15-0.15,0.13c0.03-0.03,0.07-0.04,0.07-0.06C2.29,10.39,2.32,10.39,2.36,10.38z"/>
				<path d="M1.88,5.26c0.03-0.12,0.21-0.08,0.12,0.05C1.97,5.29,1.93,5.27,1.88,5.26z"/>
				<path d="M9.93,4.88c0.09,0.05,0.09,0.05,0.08,0.14C9.93,4.99,9.92,4.98,9.93,4.88z"/>
				<path d="M7.21,9.37c0.07,0.07,0.19,0.02,0.2,0.16C7.36,9.5,7.33,9.45,7.26,9.48C7.23,9.5,7.21,9.45,7.21,9.37z"/>
				<path d="M11.57,7.27c0.06,0.02,0.14-0.03,0.18,0.07C11.67,7.34,11.6,7.36,11.57,7.27z"/>
				<path d="M13.3,3.81c-0.01,0.05-0.02,0.07-0.03,0.11c-0.11-0.07-0.08-0.04-0.09-0.11C13.21,3.81,13.24,3.81,13.3,3.81z"/>
				<path d="M2.21,4.85c0-0.13,0.04-0.16,0.16-0.13C2.37,4.71,2.39,4.7,2.21,4.85z"/>
				<path d="M7.05,11.44c0.09-0.02,0.12,0.03,0.11,0.15C7.12,11.6,7.14,11.62,7.05,11.44z"/>
				<path d="M15.93,1.76c-0.04-0.15-0.05-0.12,0.03-0.17C16.02,1.66,16.01,1.71,15.93,1.76z"/>
				<path d="M14.04,7.2c0.03-0.05,0.05-0.09,0.07-0.14C14.18,7.16,14.17,7.19,14.04,7.2z"/>
				<path d="M10.76,4.89c-0.04,0.03,0,0.03-0.17,0c0,0,0-0.01-0.01-0.01c0.04-0.07,0.07-0.09,0.13-0.07c0,0,0.01-0.02-0.03,0.06
					C10.74,4.85,10.72,4.84,10.76,4.89z"/>
				<path d="M10.21,3.37c-0.03,0.01-0.06,0.01-0.09,0.02c-0.03-0.07-0.03-0.07,0.02-0.14C10.17,3.29,10.19,3.32,10.21,3.37z"/>
				<path d="M6.17,10.1C6.16,10,6.25,10.03,6.3,10C6.29,10.07,6.27,10.12,6.17,10.1z"/>
				<path d="M15.89,1.54c-0.05-0.03-0.08-0.04-0.11-0.06c0.04-0.06,0.01-0.05,0.1-0.06C15.88,1.45,15.88,1.48,15.89,1.54z"/>
				<path d="M11.93,5.15c0.04,0.02,0.07,0.03,0.1,0.05C12,5.26,11.95,5.25,11.89,5.25C11.91,5.22,11.92,5.19,11.93,5.15z"/>
				<path d="M-2.96,9.95c0.03-0.03,0.05-0.05,0.08-0.08c0.02,0.02,0.04,0.04,0.06,0.06C-2.86,10-2.9,9.99-2.96,9.95z"/>
				<path d="M11.86,1.29c0.06,0.04,0.08,0.09,0.05,0.15C11.83,1.41,11.83,1.41,11.86,1.29z"/>
				<path d="M14.59,4.95c0.01-0.05,0.01-0.09,0.01-0.13c0.06,0.01,0.08,0.04,0.07,0.09C14.68,4.93,14.67,4.93,14.59,4.95z"/>
				<path d="M13.67,7.57c-0.03-0.03-0.06-0.06-0.09-0.08C13.65,7.41,13.77,7.51,13.67,7.57z"/>
				<path d="M6.59,8.92C6.61,8.9,6.63,8.87,6.66,8.85c0.01-0.01,0.05,0,0.06,0.01c0.01,0.01,0,0.05-0.01,0.06
					C6.68,8.93,6.64,8.94,6.6,8.94C6.6,8.94,6.59,8.93,6.59,8.92z"/>
				<path d="M11.3,5.9c-0.07-0.01-0.1-0.01-0.15-0.02c0.03-0.04,0.05-0.06,0.07-0.1C11.25,5.82,11.27,5.85,11.3,5.9z"/>
				<path d="M11.71,2.25c-0.01,0.06-0.02,0.1-0.03,0.14c-0.05-0.02-0.02,0.01-0.09-0.11C11.63,2.27,11.66,2.26,11.71,2.25z"/>
				<path d="M11.63,1.97c0.01-0.04,0.02-0.06,0.03-0.09c0.09,0,0.06,0.09,0.1,0.13C11.72,1.99,11.68,1.98,11.63,1.97z"/>
				<path d="M14.22,7.07c-0.05-0.07,0-0.09,0.04-0.13c0.02,0.03,0.03,0.05,0.05,0.07C14.28,7.03,14.25,7.05,14.22,7.07z"/>
				<path d="M14.73,8.36c-0.06,0.03-0.1,0.05-0.14,0c0.01-0.05,0.05-0.07,0.09-0.06C14.69,8.31,14.7,8.34,14.73,8.36z"/>
				<path d="M14.65,7.81c0.14,0.02,0.11,0.12,0.08,0.13C14.69,7.95,14.68,7.9,14.65,7.81L14.65,7.81z"/>
				<path d="M10.66,1.81c-0.02-0.07-0.14-0.05-0.11-0.16C10.57,1.72,10.69,1.7,10.66,1.81z"/>
				<path d="M12.41,3.29c0.03,0.07,0.09,0.1,0.02,0.17C12.38,3.41,12.38,3.36,12.41,3.29z"/>
				<path d="M11.43,4.75c0.02,0.03,0.04,0.06,0.06,0.1c-0.04,0.01-0.07,0.02-0.11,0.04C11.4,4.74,11.39,4.76,11.43,4.75z"/>
				<path d="M7.79,3.52C7.74,3.55,7.69,3.57,7.63,3.6C7.65,3.51,7.67,3.5,7.79,3.52z"/>
				<path d="M12.1,7.05C12.07,7.02,12.05,7,12.03,6.98c0.02-0.02,0.04-0.04,0.06-0.07C12.14,6.95,12.11,6.99,12.1,7.05z"/>
				<path d="M11.59,5.96c-0.02-0.04-0.04-0.09-0.05-0.13C11.62,5.83,11.63,5.85,11.59,5.96z"/>
				<path d="M12.31,2.97c0.02-0.03,0.03-0.06,0.06-0.12c0.03,0.05,0.04,0.08,0.07,0.13C12.38,2.98,12.35,2.97,12.31,2.97z"/>
				<path d="M14.36,3.12c-0.08-0.03-0.09-0.07-0.06-0.13C14.36,3.01,14.39,3.05,14.36,3.12z"/>
				<path d="M4.12,2.76c0-0.07,0-0.11,0.07-0.13C4.21,2.7,4.19,2.74,4.12,2.76z"/>
				<path d="M10.33,3.59c-0.05,0.01-0.08,0.02-0.11,0.03c-0.03-0.04-0.03-0.06,0.01-0.08C10.28,3.52,10.31,3.54,10.33,3.59z"/>
				<path d="M14.22,6.32c-0.06,0.06-0.13,0.02-0.19,0.04C14.06,6.28,14.03,6.29,14.22,6.32z"/>
				<path d="M3.75,4.21c-0.07,0.01-0.07,0.01-0.1-0.08C3.72,4.13,3.72,4.13,3.75,4.21z"/>
				<path d="M11.11,12.66c-0.09-0.05-0.1,0.05-0.17,0.09c0.02-0.07,0.03-0.1,0.04-0.14C11.12,12.63,11.1,12.62,11.11,12.66z"/>
				<path d="M9.65,5.04C9.6,5.01,9.57,4.99,9.52,4.96C9.55,4.89,9.68,4.92,9.65,5.04z"/>
				<path d="M-2.84,8.33c0.01-0.01,0.01-0.02,0.02-0.02c0.04-0.01,0.08-0.01,0.1,0.04C-2.7,8.39-2.8,8.45-2.84,8.33z"/>
				<path d="M9.05,11.81c-0.06,0.07-0.02,0.04-0.16,0.09c-0.01-0.01-0.02-0.03-0.03-0.05C9.07,11.81,9.06,11.81,9.05,11.81z"/>
				<path d="M1.19,10.08c0,0.11-0.03,0.14-0.12,0.13C1.15,10.13,1.12,10.16,1.19,10.08z"/>
				<path d="M12.05,1.19c0.04,0.04,0.14,0.02,0.09,0.12C12.1,1.28,12.03,1.28,12.05,1.19z"/>
				<path d="M10.44,2.41c0.02,0.04,0.04,0.07,0.06,0.11c-0.03,0.03-0.06,0.04-0.08,0.01C10.39,2.49,10.39,2.45,10.44,2.41z"/>
				<path d="M8.63,12.15c-0.01-0.11-0.01-0.12,0.11-0.12C8.7,12.07,8.67,12.1,8.63,12.15z"/>
				<path d="M3.22,4.62C3.32,4.6,3.32,4.6,3.3,4.7C3.27,4.67,3.24,4.64,3.22,4.62z"/>
				<path d="M10.67,4.57c-0.08-0.01-0.09-0.06-0.1-0.14C10.71,4.49,10.65,4.58,10.67,4.57z"/>
				<path d="M11.35,6.84c0.05-0.01,0.1-0.02,0.15-0.02c-0.01,0.02-0.02,0.05-0.03,0.06C11.43,6.89,11.38,6.89,11.35,6.84z"/>
				<path d="M8.65,12.29c-0.05-0.01-0.08-0.01-0.13-0.01c0.04-0.05,0.08-0.07,0.13-0.04C8.65,12.24,8.65,12.27,8.65,12.29z"/>
				<path d="M8.24,10.59c0.06-0.08,0.06-0.08,0.12-0.04C8.32,10.58,8.3,10.64,8.24,10.59z"/>
				<path d="M8.44,9.59C8.42,9.57,8.4,9.56,8.38,9.54C8.39,9.5,8.41,9.48,8.45,9.5C8.49,9.52,8.48,9.55,8.44,9.59z"/>
				<path d="M10.46,5.24c-0.04-0.04-0.08-0.06-0.09-0.09c-0.01-0.03,0.03-0.05,0.07-0.04C10.45,5.14,10.45,5.18,10.46,5.24z"/>
				<path d="M10.7,4.67c-0.03-0.01-0.07-0.02-0.13-0.04c0.05-0.03,0.07-0.05,0.1-0.06c0,0,0,0,0,0C10.7,4.69,10.7,4.68,10.7,4.67z"
					/>
				<path d="M12.7,6.6c-0.02,0.04-0.04,0.06-0.05,0.09c-0.03-0.02-0.03,0.01-0.02-0.1C12.65,6.59,12.67,6.59,12.7,6.6z"/>
				<path d="M11.95,5.81c0.04,0.04,0.07,0.08,0.02,0.15C11.92,5.8,11.91,5.83,11.95,5.81z"/>
				<path d="M0.49,7.8C0.4,7.73,0.5,7.67,0.53,7.7C0.56,7.74,0.53,7.77,0.49,7.8z"/>
				<path d="M14.74,7.96c-0.07,0.1-0.07,0.1-0.17,0.05C14.63,8,14.68,7.99,14.74,7.96z"/>
				<path d="M14.52,6.66c-0.09-0.06-0.09-0.06-0.03-0.15C14.5,6.56,14.51,6.6,14.52,6.66z"/>
				<path d="M10.09,5.05C10.19,5,10.19,5,10.23,5.11C10.18,5.09,10.14,5.07,10.09,5.05z"/>
				<path d="M11.75,2.65c0.08-0.06,0.08-0.06,0.12,0.02C11.83,2.67,11.8,2.66,11.75,2.65z"/>
				<path d="M9.92,7.71C10,7.74,10,7.74,9.93,7.83C9.93,7.78,9.92,7.75,9.92,7.71z"/>
				<path d="M8.67,3.52c-0.04-0.05-0.05-0.08,0-0.11C8.71,3.44,8.72,3.47,8.67,3.52z"/>
				<path d="M3.44,4.45C3.46,4.43,3.48,4.4,3.51,4.37C3.52,4.39,3.54,4.4,3.54,4.42C3.54,4.48,3.49,4.47,3.44,4.45z"/>
				<path d="M16.03,4.4c-0.06-0.05-0.01-0.09,0-0.14C16.09,4.31,16.07,4.35,16.03,4.4z"/>
				<path d="M3.42,4.38c-0.06,0.09-0.04,0.08-0.1,0.04C3.4,4.34,3.37,4.35,3.42,4.38z"/>
				<path d="M8.38,7.7C8.34,7.6,8.39,7.57,8.44,7.55C8.46,7.57,8.47,7.54,8.38,7.7z"/>
				<path d="M9.21,9.25C9.17,9.31,9.14,9.34,9.09,9.3C9.1,9.23,9.14,9.23,9.21,9.25z"/>
				<path d="M13.96,7.37c-0.03,0.01-0.07,0.01-0.12,0.02C13.87,7.31,13.9,7.29,13.96,7.37z"/>
				<path d="M6.97,8.04C6.94,7.97,7.01,7.96,7.03,7.91C7.1,8.04,6.95,8.03,6.97,8.04z"/>
				<path d="M10.8,1.42c-0.05-0.07-0.06-0.11,0-0.16C10.8,1.3,10.8,1.34,10.8,1.42z"/>
				<path d="M11.68,6.63c0.02,0.04,0.03,0.09,0.06,0.14C11.66,6.75,11.66,6.75,11.68,6.63z"/>
				<path d="M12.9,1.85c-0.08,0.02-0.09-0.02-0.11-0.07C12.86,1.76,12.88,1.8,12.9,1.85z"/>
				<path d="M3.31,0.75c0.05-0.02,0.08,0,0.09,0.08C3.27,0.78,3.29,0.79,3.31,0.75z"/>
				<path d="M9.21,12.04c-0.06-0.1-0.06-0.1,0.01-0.14C9.26,11.95,9.23,11.98,9.21,12.04z"/>
				<path d="M12.22,5.6c0,0.07,0,0.11-0.07,0.13C12.15,5.67,12.15,5.62,12.22,5.6z"/>
				<path d="M6.16,0.15c0.01-0.07,0.01-0.13,0.07-0.13C6.26,0.06,6.27,0.03,6.16,0.15z"/>
				<path d="M8.82,12.18c-0.03,0.07-0.06,0.07-0.1,0.02C8.75,12.19,8.78,12.18,8.82,12.18z"/>
				<path d="M11.78,7.58c0.04-0.02,0.07-0.03,0.1-0.04c0.01,0.01,0.02,0.02,0.02,0.02C11.88,7.62,11.85,7.64,11.78,7.58z"/>
				<path d="M2.96,11.55c0.03,0.05,0.05,0.08,0.08,0.12C2.95,11.66,2.95,11.66,2.96,11.55z"/>
				<path d="M15.75,1.45c-0.04-0.05-0.06-0.08-0.02-0.13C15.78,1.35,15.77,1.39,15.75,1.45z"/>
				<path d="M7.68,9.93C7.66,9.89,7.64,9.87,7.64,9.85c0-0.01,0.03-0.03,0.04-0.03c0.02,0.01,0.04,0.03,0.04,0.05
					C7.72,9.88,7.7,9.9,7.68,9.93z"/>
				<path d="M11.89,6.94c-0.06-0.09-0.06-0.09,0.04-0.12C11.91,6.86,11.9,6.89,11.89,6.94z"/>
				<path d="M10.9,6.73c0.04,0.08,0.05,0.06-0.02,0.11C10.85,6.78,10.84,6.81,10.9,6.73z"/>
				<path d="M2.48,9.73C2.49,9.76,2.5,9.79,2.51,9.81c-0.03,0.01,0,0.02-0.11-0.05C2.43,9.75,2.45,9.74,2.48,9.73z"/>
				<path d="M2.65,4.88c0,0.05,0,0.08,0.01,0.13C2.62,4.98,2.6,4.97,2.59,4.95C2.56,4.9,2.6,4.9,2.65,4.88z"/>
				<path d="M15.7,7.01c-0.07-0.05-0.09-0.09-0.06-0.13C15.69,6.87,15.67,6.85,15.7,7.01z"/>
				<path d="M3.41,2.97C3.3,2.98,3.3,2.98,3.31,2.88C3.34,2.91,3.37,2.93,3.41,2.97z"/>
				<path d="M2.37,4.71C2.43,4.68,2.43,4.67,2.49,4.7c0,0,0,0.03,0,0.03C2.47,4.74,2.44,4.74,2.42,4.74
					C2.4,4.74,2.37,4.71,2.37,4.71z"/>
				<path d="M12.11,4.53C12.08,4.61,12.04,4.58,12,4.57C11.99,4.54,11.96,4.55,12.11,4.53z"/>
				<path d="M4-0.22c0.04,0.06,0.04,0.04-0.03,0.08C3.94-0.18,3.92-0.16,4-0.22z"/>
				<path d="M13.92,5.06c-0.05,0.03-0.08,0.05-0.13,0.08C13.81,5.06,13.83,5.03,13.92,5.06z"/>
				<path d="M9.18,12.17c0.09-0.01,0.09,0.03,0.08,0.11C9.23,12.23,9.21,12.2,9.18,12.17z"/>
				<path d="M8.58,11.84c-0.01,0.04-0.02,0.09-0.1,0.04C8.58,11.8,8.56,11.81,8.58,11.84z"/>
				<path d="M13.83,6.23c0.04,0.06,0.03,0.02,0.04,0.12C13.8,6.33,13.8,6.29,13.83,6.23z"/>
				<path d="M11.07,5.02c0.01,0.04,0.01,0.07,0.02,0.1C11.02,5.11,11.02,5.11,11.07,5.02z"/>
				<path d="M13.07,1.56c-0.08,0.03-0.1,0-0.1-0.06C13,1.51,13.03,1.53,13.07,1.56z"/>
				<path d="M11.99,4.76c-0.06,0.04-0.1,0.04-0.12-0.04C11.91,4.74,11.95,4.75,11.99,4.76z"/>
				<path d="M2.98,4.67C3.01,4.7,3.02,4.71,3.05,4.74C3.01,4.76,2.98,4.76,2.93,4.78C2.95,4.73,2.96,4.71,2.98,4.67z"/>
				<path d="M0.76,9.2c0.06-0.07,0.09-0.03,0.12,0.01C0.84,9.21,0.8,9.21,0.76,9.2z"/>
				<path d="M10.36,3.97c-0.01,0.13,0,0.13-0.06,0.04C10.37,3.97,10.36,3.98,10.36,3.97z"/>
				<path d="M10.53,4.02c0.06,0.03,0.05,0.06,0.02,0.11C10.49,4.09,10.55,4,10.53,4.02z"/>
				<path d="M8.97,4.4c0.02,0.08-0.03,0.08-0.06,0.11C8.88,4.48,8.88,4.51,8.97,4.4z"/>
				<path d="M13.39,7.23c0.12-0.05,0.1-0.05,0.11-0.02C13.47,7.24,13.44,7.29,13.39,7.23C13.39,7.23,13.39,7.23,13.39,7.23z"/>
				<path d="M11.59,11.56c0.03-0.04,0.04-0.07,0.06-0.09C11.67,11.53,11.67,11.53,11.59,11.56z"/>
				<path d="M12.47,4.84c-0.02-0.04-0.04-0.06-0.06-0.08C12.46,4.76,12.51,4.76,12.47,4.84z"/>
				<path d="M7.64,12.14c-0.01-0.08-0.02-0.07,0.04-0.06C7.66,12.16,7.67,12.15,7.64,12.14z"/>
				<path d="M2,5.08C1.91,5.1,1.91,5.01,1.94,5.01C1.99,5.01,2,5.04,2,5.08z"/>
				<path d="M11.93,2.47c0.03,0.05,0.04,0.07,0.06,0.11c-0.04-0.01-0.06-0.01-0.09-0.02C11.9,2.54,11.91,2.52,11.93,2.47z"/>
				<path d="M15.23,4.38c0-0.02-0.01-0.05-0.01-0.07c0,0,0.03-0.01,0.03-0.01c0.01,0.02,0.02,0.04,0.02,0.06
					C15.25,4.37,15.24,4.37,15.23,4.38z"/>
				<path d="M7.92,3.5C7.91,3.45,7.91,3.43,7.9,3.39c0.04,0.02,0.06,0.03,0.09,0.04C7.96,3.45,7.95,3.47,7.92,3.5z"/>
				<path d="M10.72,5.27c0.07,0,0.08,0.03,0.07,0.07C10.74,5.33,10.76,5.35,10.72,5.27z"/>
				<path d="M14.45,7.15c-0.02-0.02-0.04-0.04-0.03-0.05c0-0.01,0.02-0.03,0.04-0.04c0.01,0,0.03,0.02,0.04,0.03
					C14.48,7.11,14.47,7.12,14.45,7.15z"/>
				<path d="M14.07,6.2c-0.02-0.02-0.04-0.04-0.08-0.08c0.06,0.01,0.08,0.01,0.13,0.02C14.06,6.21,14.07,6.2,14.07,6.2z"/>
				<path d="M12.34,0.9c0.12,0.03,0.1,0.02,0.09,0.05C12.32,0.92,12.34,0.93,12.34,0.9z"/>
				<path d="M16.11,1.27c-0.03,0.05-0.01,0.04-0.11,0.01C16.05,1.23,16.08,1.24,16.11,1.27z"/>
				<path d="M12.71,1.83c0.03,0.07,0.02,0.09-0.02,0.1c-0.01,0-0.02-0.01-0.03-0.02C12.68,1.89,12.69,1.87,12.71,1.83z"/>
				<path d="M3.38,5.56C3.32,5.59,3.34,5.59,3.3,5.55C3.36,5.51,3.34,5.52,3.38,5.56z"/>
				<path d="M9.94,6.5C9.92,6.48,9.91,6.47,9.91,6.46c0-0.01,0.01-0.03,0.02-0.03c0.01,0,0.03,0.01,0.03,0.02
					C9.97,6.46,9.95,6.47,9.94,6.5z"/>
				<path d="M14.6,7.89c-0.01-0.01-0.03-0.02-0.03-0.03c0-0.05,0.05-0.03,0.07-0.04C14.68,7.8,14.63,7.85,14.6,7.89z"/>
				<path d="M9.98,0.81c-0.07,0.03-0.05,0.04-0.09,0C9.9,0.78,9.88,0.79,9.98,0.81z"/>
				<path d="M8.91,8.14c-0.07,0.02-0.05,0.03-0.1-0.03C8.85,8.08,8.82,8.07,8.91,8.14z"/>
				<path d="M6.24,7.89C6.22,7.87,6.2,7.85,6.18,7.83C6.24,7.81,6.25,7.83,6.24,7.89z"/>
				<path d="M1.79,7.44C1.77,7.47,1.76,7.5,1.74,7.53C1.73,7.51,1.72,7.51,1.72,7.5C1.71,7.45,1.73,7.44,1.79,7.44z"/>
				<path d="M6.66,8.18c0.06-0.06,0.06-0.06,0.11,0C6.71,8.22,6.63,8.16,6.66,8.18z"/>
				<path d="M5.69,9.22C5.66,9.24,5.64,9.27,5.62,9.21c0,0,0.02-0.03,0.03-0.03C5.66,9.19,5.67,9.2,5.69,9.22z"/>
				<path d="M9.4,0.73c0.04,0.01,0.03,0,0.01,0.07C9.37,0.79,9.38,0.8,9.4,0.73z"/>
				<path d="M7.1,9.87c-0.04,0.06-0.07,0.06-0.1,0.04C7,9.87,6.98,9.89,7.1,9.87z"/>
				<path d="M2.66,9.78C2.6,9.8,2.61,9.81,2.58,9.75C2.63,9.73,2.61,9.72,2.66,9.78z"/>
				<path d="M8.7,10.53c0.06-0.03,0.08-0.02,0.09,0.05C8.75,10.56,8.73,10.55,8.7,10.53z"/>
				<path d="M2.26,9.93c-0.04,0-0.07-0.01-0.11-0.01C2.2,9.85,2.23,9.89,2.26,9.93z"/>
				<path d="M8.48,12.14c-0.01,0.08,0,0.07-0.05,0.06C8.44,12.12,8.42,12.13,8.48,12.14z"/>
				<path d="M12.51,12.62c-0.05,0.03-0.03,0.04-0.08-0.01C12.47,12.57,12.46,12.57,12.51,12.62z"/>
				<path d="M7.7,12.22c0.03,0.03,0.06,0.05,0.09,0.08C7.7,12.31,7.7,12.31,7.7,12.22z"/>
				<path d="M-0.9,11.43c0.03,0.01,0.08,0.01,0.1,0.08C-0.93,11.45-0.91,11.47-0.9,11.43z"/>
				<path d="M13.47,1.7c-0.07-0.02-0.06-0.01-0.04-0.05C13.49,1.67,13.48,1.66,13.47,1.7z"/>
				<path d="M11.99,2.34c-0.08-0.03-0.07-0.05-0.03-0.1C11.97,2.27,11.98,2.3,11.99,2.34z"/>
				<path d="M10.32,3.36c0.04,0.06,0.01,0.07-0.05,0.09C10.28,3.36,10.27,3.39,10.32,3.36z"/>
				<path d="M8.2,3.24C8.12,3.26,8.11,3.23,8.11,3.16C8.15,3.19,8.17,3.21,8.2,3.24z"/>
				<path d="M10.25,4.18c-0.03,0.01-0.05,0.03-0.1,0.05C10.17,4.16,10.2,4.16,10.25,4.18z"/>
				<path d="M7.55,10.03C7.57,10.01,7.6,10,7.62,9.97C7.62,10.04,7.62,10.04,7.55,10.03z"/>
				<path d="M3.93,4.31c-0.06,0-0.08-0.02-0.07-0.07C3.91,4.24,3.92,4.27,3.93,4.31z"/>
				<path d="M10.62,5.21c-0.06,0.02-0.06,0.02-0.07-0.04C10.58,5.18,10.6,5.2,10.62,5.21z"/>
				<path d="M8.07,5.55c-0.02,0-0.04,0-0.07,0c0,0-0.01-0.03,0-0.03C8.02,5.51,8.04,5.51,8.06,5.5C8.06,5.52,8.06,5.53,8.07,5.55z"
					/>
				<path d="M14.07,6.2c0,0.15-0.01,0.12-0.09-0.01C14.08,6.2,14.07,6.2,14.07,6.2z"/>
				<path d="M13.37,6.45c0,0.04-0.01,0.07-0.01,0.12C13.3,6.51,13.36,6.48,13.37,6.45z"/>
				<path d="M12.18,12.42c-0.03,0-0.06-0.01-0.11-0.01C12.13,12.36,12.16,12.39,12.18,12.42z"/>
				<path d="M9.05,4.9c0.04-0.04,0.01-0.04,0.1-0.01C9.14,4.93,9.16,4.93,9.05,4.9z"/>
				<path d="M9.54,3.86c-0.07-0.02-0.07,0,0-0.07C9.56,3.8,9.56,3.79,9.54,3.86L9.54,3.86z"/>
				<path d="M7.5,1.52c-0.02,0-0.04,0.01-0.05,0.01c-0.01,0-0.02-0.02-0.02-0.03c0-0.01,0.02-0.03,0.03-0.03
					c0.01,0,0.02,0.01,0.03,0.02C7.49,1.5,7.5,1.51,7.5,1.52z"/>
				<path d="M4.44,3.4C4.43,3.33,4.43,3.34,4.47,3.34C4.48,3.41,4.48,3.4,4.44,3.4z"/>
				<path d="M12.05,11.98c-0.07,0.02-0.05,0.03-0.1-0.02C12,11.92,11.98,11.92,12.05,11.98z"/>
				<path d="M4.7,1.07c0.02,0,0.04,0.01,0.06,0.01c0,0.01,0,0.02,0,0.02C4.68,1.1,4.7,1.1,4.7,1.07z"/>
				<path d="M10.92,1.42c-0.01,0.04,0.01,0.03-0.08,0.03C10.85,1.39,10.84,1.4,10.92,1.42z"/>
				<path d="M10.76,4.89c-0.04-0.05-0.03-0.03-0.04-0.09c0,0-0.01,0,0.07,0.02C10.78,4.84,10.77,4.86,10.76,4.89z"/>
				<path d="M9.81,4.11c0.09,0,0.08-0.01,0.08,0.02C9.8,4.15,9.81,4.16,9.81,4.11z"/>
				<path d="M10.78,5.17c0.05,0.08,0.05,0.06,0.03,0.08C10.73,5.23,10.74,5.25,10.78,5.17z"/>
				<path d="M10.65,3.63c0.04-0.07,0.03-0.06,0.07-0.03C10.66,3.66,10.68,3.65,10.65,3.63z"/>
				<path d="M-0.24,6.15c0.01,0.02,0.02,0.04,0.02,0.04c-0.05,0.05-0.05,0.02-0.07,0C-0.28,6.17-0.26,6.16-0.24,6.15z"/>
				<path d="M1.65,10.41c-0.02,0.01-0.04,0.02-0.05,0.02c-0.01-0.01-0.02-0.03-0.03-0.04c0-0.01,0.02-0.02,0.03-0.03
					C1.62,10.37,1.63,10.38,1.65,10.41z"/>
				<path d="M10.23,5.25c-0.02,0.08-0.01,0.06-0.06,0.08C10.15,5.27,10.17,5.26,10.23,5.25z"/>
				<path d="M8.63,10.19c0.04,0.05,0.04,0.03-0.01,0.07C8.59,10.22,8.59,10.24,8.63,10.19z"/>
				<path d="M7.22,9.94C7.3,9.91,7.29,9.91,7.3,9.95C7.21,9.98,7.23,9.98,7.22,9.94z"/>
				<path d="M9,7.87C8.98,7.85,8.95,7.85,8.94,7.83C8.93,7.81,8.97,7.8,8.99,7.81C9.03,7.84,9.03,7.83,9,7.87z"/>
				<path d="M11.75,2.92c-0.05,0.06-0.05,0.06-0.11,0C11.77,2.93,11.76,2.93,11.75,2.92z"/>
				<path d="M10.43,2.75c-0.04,0.03-0.06,0.05-0.11,0.08C10.33,2.76,10.35,2.74,10.43,2.75z"/>
				<path d="M11.82,2.93c-0.02,0.02-0.01,0.02-0.07-0.01C11.79,2.87,11.75,2.84,11.82,2.93z"/>
				<path d="M10.87,2.78c0.02,0.03,0.03,0.02-0.04,0.06C10.8,2.81,10.8,2.82,10.87,2.78z"/>
				<path d="M15.35,10.63c-0.04,0.02-0.05,0.04-0.07-0.03c0,0,0.03-0.02,0.03-0.02C15.32,10.59,15.33,10.6,15.35,10.63z"/>
				<path d="M10.45,2.71c0.03-0.06,0.01-0.05,0.06-0.03C10.47,2.74,10.48,2.73,10.45,2.71z"/>
				<path d="M11.14,3.83c0.02,0.08,0.02,0.04,0,0.12C11.09,3.85,11.08,3.87,11.14,3.83z"/>
				<path d="M0.03,7.53c-0.05,0.03-0.03,0.04-0.08-0.01C0,7.49-0.02,7.49,0.03,7.53z"/>
				<path d="M2.05,4.92C2.04,4.96,2.06,4.95,1.99,4.94C1.99,4.91,1.98,4.91,2.05,4.92z"/>
				<path d="M1.09,8.94C1.01,8.98,1.03,8.98,1,8.94C1.05,8.9,1.03,8.91,1.09,8.94z"/>
				<path d="M10.77,5.07c0.02,0.02,0.03,0.03,0.03,0.04c0,0.01-0.02,0.03-0.03,0.03c-0.01,0-0.03-0.01-0.03-0.02
					C10.75,5.11,10.76,5.09,10.77,5.07z"/>
				<path d="M7.44,4.04C7.38,4.06,7.4,4.07,7.36,4.02C7.41,3.99,7.39,3.99,7.44,4.04z"/>
				<path d="M7.41,8.53c0.07-0.08,0.05-0.08,0.07-0.05C7.41,8.55,7.42,8.55,7.41,8.53z"/>
				<path d="M5.86,12.06c-0.03-0.06-0.04-0.08,0-0.1C5.9,11.98,5.89,11.96,5.86,12.06z"/>
				<path d="M3.69,5.27C3.66,5.29,3.65,5.3,3.63,5.32C3.62,5.31,3.61,5.3,3.61,5.3C3.62,5.25,3.63,5.23,3.69,5.27z"/>
				<path d="M12.48,1.14c-0.04-0.06-0.04-0.05-0.03-0.07c0.04,0.02,0.03,0,0.04,0.06C12.49,1.13,12.49,1.14,12.48,1.14z"/>
				<path d="M1.39,10.12c0.02,0,0.04,0,0.06,0c0,0,0,0.02,0,0.02c-0.02,0.01-0.04,0.02-0.06,0.02C1.39,10.15,1.39,10.13,1.39,10.12z
					"/>
				<path d="M6.45,9.89c0.04,0.07,0.04,0.05,0.01,0.07C6.42,9.89,6.42,9.9,6.45,9.89z"/>
				<path d="M14.77,5.63c-0.07-0.01-0.06,0-0.06-0.02C14.79,5.59,14.77,5.59,14.77,5.63z"/>
				<path d="M2.85,11.03c0.02-0.01,0.04-0.02,0.06-0.02c0,0,0.01,0.02,0.01,0.02C2.85,11.07,2.87,11.06,2.85,11.03z"/>
				<path d="M7.58,12.15c0.04,0.04,0.05,0.02,0,0.07C7.54,12.17,7.54,12.19,7.58,12.15z"/>
				<path d="M7.32,12.18c0.01-0.01,0.03-0.03,0.05-0.04c0,0,0.02,0.01,0.02,0.01C7.34,12.22,7.34,12.21,7.32,12.18z"/>
				<path d="M4.31,3.12c0.01-0.01,0.02-0.02,0.03-0.02c0.02,0,0.05,0.01,0.07,0.03C4.3,3.15,4.31,3.15,4.31,3.12z"/>
				<path d="M8.62,2.8C8.61,2.79,8.59,2.77,8.58,2.75c0,0,0.01-0.01,0.01-0.01C8.65,2.79,8.65,2.78,8.62,2.8z"/>
				<path d="M10.51,2.91c0.04-0.01,0.03-0.02,0.05,0.04C10.52,2.97,10.53,2.98,10.51,2.91z"/>
				<path d="M8.84,12.45c-0.07,0.02-0.06,0.02-0.06-0.01C8.85,12.43,8.84,12.42,8.84,12.45z"/>
				<path d="M10.17,2.77c0.01-0.02,0.02-0.04,0.03-0.06C10.22,2.75,10.22,2.75,10.17,2.77z"/>
				<path d="M8.25,2.33C8.19,2.36,8.21,2.36,8.17,2.32C8.21,2.29,8.19,2.29,8.25,2.33z"/>
				<path d="M8.21,4.36C8.23,4.39,8.23,4.37,8.2,4.42C8.15,4.38,8.18,4.38,8.21,4.36z"/>
				<path d="M10.08,5.94c0,0.02,0,0.04,0,0.06c-0.01,0-0.02,0-0.02,0C10.04,5.93,10.04,5.94,10.08,5.94z"/>
				<path d="M13.74,2.5c-0.06,0.03-0.04,0.04-0.08,0C13.7,2.47,13.68,2.47,13.74,2.5z"/>
				<path d="M3.52,5.34C3.46,5.35,3.47,5.35,3.45,5.32C3.51,5.29,3.49,5.29,3.52,5.34z"/>
				<path d="M10.7,4.68c0.04,0,0.07,0,0.13,0C10.74,4.75,10.71,4.67,10.7,4.68z"/>
				<path d="M14.25,0.93c0.04,0.06,0.04,0.04,0,0.08C14.23,0.98,14.23,1,14.25,0.93z"/>
				<path d="M13.8,6.63c0.01,0.03,0.05,0.07-0.02,0.1C13.74,6.67,13.81,6.64,13.8,6.63z"/>
				<path d="M7.25,1.18C7.19,1.19,7.2,1.2,7.18,1.15C7.22,1.13,7.21,1.12,7.25,1.18z"/>
				<path d="M10.47,1.4c-0.02-0.01-0.03-0.01-0.05-0.02c0-0.01,0.01-0.02,0.01-0.02C10.49,1.38,10.48,1.38,10.47,1.4z"/>
				<path d="M7.96,1.12C7.93,1.14,7.94,1.15,7.91,1.1C7.94,1.09,7.93,1.08,7.96,1.12z"/>
				<path d="M6.44,0.84C6.38,0.87,6.4,0.88,6.36,0.82C6.41,0.8,6.39,0.8,6.44,0.84z"/>
				<path d="M5,0.62C5.02,0.69,5.03,0.67,4.98,0.7C4.96,0.64,4.96,0.66,5,0.62z"/>
				<path d="M12.46,6.94c-0.05-0.07-0.04-0.05-0.01-0.09C12.48,6.86,12.47,6.84,12.46,6.94z"/>
				<path d="M12.26,6.92c-0.01-0.02-0.03-0.03-0.03-0.04c0-0.01,0.02-0.03,0.03-0.03c0.01,0,0.03,0.02,0.03,0.03
					C12.29,6.88,12.27,6.9,12.26,6.92z"/>
				<path d="M-1.87,5.33C-1.89,5.38-1.9,5.4-1.91,5.45C-1.94,5.39-1.94,5.36-1.87,5.33z"/>
				<path d="M11.83,7.18c0.07,0.01,0.05,0,0.05,0.02C11.82,7.2,11.83,7.21,11.83,7.18z"/>
				<path d="M7.19,6.77C7.18,6.76,7.17,6.74,7.17,6.74c0-0.01,0.02-0.02,0.02-0.02c0.01,0,0.02,0.01,0.02,0.02
					C7.21,6.75,7.2,6.76,7.19,6.77z"/>
				<path d="M10.75,7.14c-0.02,0.01-0.04,0.02-0.06,0.02c0,0-0.02-0.02-0.02-0.02C10.73,7.1,10.72,7.11,10.75,7.14z"/>
				<path d="M12.77,7.41c-0.02,0.08-0.01,0.07-0.05,0.06C12.74,7.38,12.73,7.4,12.77,7.41z"/>
				<path d="M10.15,7.19c-0.01-0.01-0.02-0.02-0.03-0.03c0.01-0.01,0.02-0.02,0.03-0.03c0,0,0.02,0.01,0.02,0.01
					C10.17,7.16,10.16,7.17,10.15,7.19z"/>
				<path d="M6.35,0.6C6.29,0.57,6.3,0.54,6.32,0.51C6.36,0.5,6.35,0.49,6.35,0.6z"/>
				<path d="M14.85,8.37c-0.05-0.07-0.04-0.06-0.03-0.08c0.05,0.04,0.04,0.03,0.04,0.07C14.87,8.37,14.86,8.37,14.85,8.37z"/>
				<path d="M7.69,3.86C7.67,3.87,7.66,3.88,7.65,3.88c0,0-0.04-0.03,0.01-0.05C7.66,3.83,7.67,3.84,7.69,3.86z"/>
				<path d="M10.52,4.92c0.01-0.04,0.01-0.06,0.02-0.09C10.6,4.89,10.6,4.88,10.52,4.92z"/>
				<path d="M10.79,4.47c-0.01,0.04-0.03,0.05-0.08,0.03C10.78,4.44,10.76,4.45,10.79,4.47z"/>
				<path d="M6,7.84c-0.07,0.03-0.06,0.03-0.07,0C6,7.81,5.99,7.81,6,7.84z"/>
				<path d="M0.61,7.37c-0.04-0.05-0.04-0.04,0-0.08C0.65,7.34,0.64,7.32,0.61,7.37z"/>
				<path d="M9.6,4.83C9.54,4.86,9.56,4.87,9.52,4.83C9.56,4.8,9.54,4.8,9.6,4.83z"/>
				<path d="M9.54,3.86c0.06,0.06,0,0.08-0.02,0.06C9.48,3.88,9.56,3.85,9.54,3.86z"/>
				<path d="M3.07,3.23C3.1,3.14,3.09,3.16,3.11,3.16C3.1,3.25,3.11,3.24,3.07,3.23z"/>
				<path d="M7.46,9.62c0.08,0,0.07,0,0.07,0.03C7.45,9.65,7.46,9.66,7.46,9.62z"/>
				<path d="M-0.63,2.76c0.03-0.01,0.06-0.04,0.06,0.02c0,0.01-0.02,0.02-0.03,0.02C-0.61,2.79-0.62,2.78-0.63,2.76z"/>
				<path d="M0.22-0.22c-0.06,0.02-0.08,0-0.07-0.06C0.18-0.26,0.2-0.25,0.22-0.22z"/>
				<path d="M6.06,10.29c-0.1,0.04-0.08,0.04-0.1,0.02C6.01,10.25,5.99,10.26,6.06,10.29z"/>
				<path d="M14.77,3.65c0.02-0.06,0.01-0.06,0.04-0.05C14.78,3.66,14.79,3.66,14.77,3.65z"/>
				<path d="M10.8,3.19c-0.02,0.01-0.03,0.02-0.04,0.02c-0.01-0.03-0.03-0.04,0.02-0.05C10.79,3.16,10.79,3.18,10.8,3.19z"/>
				<path d="M11.02,5.51c0.04,0,0.06,0,0.09-0.01C11.08,5.55,11.08,5.55,11.02,5.51z"/>
				<path d="M12.26,3.14c0,0.02-0.01,0.03-0.01,0.05c0,0-0.02,0-0.02,0C12.23,3.13,12.23,3.14,12.26,3.14z"/>
				<path d="M8.39,2.62C8.4,2.63,8.4,2.64,8.41,2.65C8.4,2.66,8.39,2.67,8.37,2.67c0,0-0.02-0.02-0.02-0.02
					C8.36,2.64,8.37,2.63,8.39,2.62z"/>
				<path d="M8.6,5.35C8.55,5.37,8.56,5.37,8.55,5.35C8.61,5.33,8.6,5.33,8.6,5.35z"/>
				<path d="M2.75,4.9C2.71,4.92,2.73,4.93,2.7,4.88C2.74,4.87,2.73,4.87,2.75,4.9z"/>
				<path d="M0.81,8.51c0.01,0.02,0.02,0.03,0.02,0.04c0,0-0.02,0.02-0.02,0.02C0.8,8.56,0.79,8.54,0.78,8.53
					C0.79,8.53,0.8,8.52,0.81,8.51z"/>
				<path d="M6.97,8.04c0,0.03,0.01,0.06-0.04,0.07C6.91,8.05,6.97,8.05,6.97,8.04z"/>
				<path d="M6.17,9.22C6.11,9.23,6.13,9.24,6.1,9.19C6.16,9.18,6.14,9.18,6.17,9.22z"/>
				<path d="M5.55,9.21C5.54,9.22,5.53,9.23,5.52,9.23c-0.01,0-0.02-0.02-0.02-0.02c0-0.01,0.02-0.02,0.02-0.02
					C5.53,9.19,5.54,9.2,5.55,9.21z"/>
				<path d="M13.03,7.15c0.02,0.06,0.02,0.04,0,0.07C12.99,7.19,13,7.21,13.03,7.15z"/>
				<path d="M14.42,7.36c-0.02-0.02-0.02,0,0.01-0.06C14.45,7.31,14.45,7.3,14.42,7.36z"/>
				<path d="M2.76,9.31c0.01,0.01,0.02,0.02,0.02,0.03C2.77,9.34,2.76,9.36,2.76,9.35c-0.01,0-0.02-0.01-0.02-0.02
					C2.74,9.33,2.75,9.32,2.76,9.31z"/>
				<path d="M14.78,4.63c-0.04,0.02-0.02,0.03-0.05,0C14.76,4.6,14.75,4.6,14.78,4.63z"/>
				<path d="M13.28,7.08c0.03-0.05,0.01-0.03,0.06-0.06c-0.02,0.06-0.01,0.05-0.04,0.07C13.29,7.09,13.29,7.09,13.28,7.08z"/>
				<path d="M14.94,10.96c-0.03-0.03-0.03-0.02,0-0.05C14.97,10.94,14.96,10.92,14.94,10.96z"/>
				<path d="M4.91,0.45c0.01,0.01,0.02,0.02,0.03,0.02C4.93,0.48,4.92,0.49,4.91,0.5c0,0-0.02-0.01-0.02-0.02
					C4.89,0.47,4.9,0.46,4.91,0.45z"/>
				<path d="M7.42,10.12c-0.02,0.06-0.01,0.05-0.04,0.04C7.41,10.1,7.4,10.11,7.42,10.12z"/>
				<path d="M1.42,7.55C1.5,7.57,1.49,7.56,1.48,7.58C1.41,7.57,1.42,7.58,1.42,7.55z"/>
				<path d="M6.66,8.18C6.67,8.2,6.67,8.23,6.64,8.23c-0.01,0-0.02-0.01-0.03-0.02C6.67,8.18,6.66,8.18,6.66,8.18z"/>
				<path d="M7.11,7.75c-0.03,0.03-0.01,0.03-0.05,0C7.09,7.73,7.08,7.73,7.11,7.75z"/>
				<path d="M1.87,5.72c-0.03-0.03-0.04-0.02,0-0.05C1.9,5.7,1.9,5.69,1.87,5.72z"/>
				<path d="M2.95,10.26c-0.04-0.05-0.03-0.03,0-0.07C2.98,10.25,2.98,10.23,2.95,10.26z"/>
				<path d="M7.85,10.75c0.01-0.01,0.02-0.02,0.04-0.02c0,0,0.01,0.01,0.01,0.02C7.87,10.78,7.87,10.77,7.85,10.75z"/>
				<path d="M11.71,11.34c-0.04,0.05-0.03,0.05-0.05,0.03C11.69,11.32,11.68,11.33,11.71,11.34z"/>
				<path d="M9.27,4.9C9.21,4.92,9.23,4.92,9.21,4.89C9.26,4.87,9.25,4.86,9.27,4.9z"/>
				<path d="M7.98,11.11c-0.04-0.05-0.03-0.04-0.01-0.06C8.01,11.11,8.01,11.1,7.98,11.11z"/>
				<path d="M11.06,11.64c0.01,0.02,0.01,0.04,0.01,0.05C11.03,11.66,11.04,11.67,11.06,11.64z"/>
				<path d="M3.72,0.82C3.69,0.78,3.69,0.8,3.73,0.77C3.75,0.79,3.76,0.78,3.72,0.82z"/>
				<path d="M6.04,0.14c0.01,0.01,0.01,0.02,0.01,0.03c-0.01,0-0.02,0.01-0.03,0.01c0,0-0.01-0.02-0.01-0.02
					C6.02,0.15,6.03,0.15,6.04,0.14z"/>
				<path d="M12.31,5.23c0.02,0,0.03-0.01,0.05-0.01c0,0,0.01,0.02,0.01,0.02C12.31,5.26,12.32,5.26,12.31,5.23z"/>
				<path d="M11.86,11.88c0,0-0.01,0.02-0.01,0.02c-0.02-0.01-0.03-0.02-0.05-0.03C11.83,11.84,11.82,11.83,11.86,11.88z"/>
				<path d="M11.43,11.85c0.03,0.05,0.04,0.04-0.01,0.06C11.4,11.86,11.4,11.87,11.43,11.85z"/>
				<path d="M9.31,1.59c0.02,0.04,0.02,0.03-0.01,0.05C9.28,1.6,9.28,1.62,9.31,1.59z"/>
				<path d="M0.02,7.92C0,7.89-0.01,7.9,0.02,7.87C0.05,7.9,0.05,7.89,0.02,7.92z"/>
				<path d="M11.81,4.98c0,0.06,0,0.05-0.02,0.05C11.79,4.98,11.79,4.98,11.81,4.98z"/>
				<path d="M3.26,11.07c0.07,0,0.06-0.01,0.06,0.02C3.25,11.1,3.26,11.11,3.26,11.07z"/>
				<path d="M8.91,6.05C8.9,6.04,8.9,6.03,8.89,6.02c0.01,0,0.02-0.01,0.04-0.01c0,0,0.01,0.02,0.01,0.03
					C8.94,6.04,8.92,6.04,8.91,6.05z"/>
				<path d="M9.06,11.81c0.07-0.02,0.05-0.02,0.06,0.01C9.05,11.81,9.05,11.81,9.06,11.81z"/>
				<path d="M13.66,0.88c0.02,0.01,0.03,0.02,0.05,0.02c0,0.01-0.01,0.02-0.01,0.02C13.64,0.9,13.65,0.9,13.66,0.88z"/>
				<path d="M5.08,4.34c0-0.04-0.02-0.03,0.06-0.04C5.14,4.34,5.15,4.33,5.08,4.34z"/>
				<path d="M-0.73,4.89C-0.81,4.91-0.8,4.92-0.8,4.88C-0.72,4.86-0.74,4.86-0.73,4.89z"/>
				<path d="M4.53,1.36C4.54,1.38,4.55,1.39,4.55,1.4c0,0-0.02,0.02-0.02,0.02C4.48,1.38,4.5,1.38,4.53,1.36z"/>
				<path d="M7.62,11.95c-0.01,0.01-0.02,0.02-0.03,0.02c0,0-0.02-0.02-0.02-0.02c0-0.01,0.01-0.02,0.02-0.02
					C7.59,11.93,7.6,11.94,7.62,11.95z"/>
				<path d="M2.07,11.39c0.02,0.01,0.03,0.01,0.05,0.02c0,0.01-0.01,0.02-0.01,0.02C2.05,11.41,2.06,11.41,2.07,11.39z"/>
				<path d="M4.83,5.4c0.03,0.03,0.03,0.02,0,0.06C4.81,5.42,4.81,5.44,4.83,5.4z"/>
				<path d="M2.71,5.13c0.01,0.02,0.02,0.04,0.01,0.04C2.72,5.19,2.7,5.19,2.69,5.19c-0.01,0-0.02-0.02-0.02-0.03
					C2.68,5.15,2.69,5.15,2.71,5.13z"/>
				<path d="M13.42,2.51c-0.04,0.01-0.03,0.01-0.04-0.02C13.42,2.48,13.41,2.48,13.42,2.51z"/>
				<path d="M2.31,11.5c0.02,0.03,0.03,0.04,0.03,0.06c0,0-0.02,0.02-0.02,0.02C2.27,11.55,2.3,11.53,2.31,11.5z"/>
				<path d="M3.33,5.19c0.02,0,0.04,0.01,0.07,0.01C3.38,5.22,3.37,5.24,3.36,5.28C3.33,5.18,3.33,5.19,3.33,5.19z"/>
				<path d="M8.44,12.27c-0.02,0.03-0.01,0.03-0.05,0C8.4,12.25,8.39,12.25,8.44,12.27z"/>
				<path d="M8.07,2.04C8.09,2.07,8.1,2.06,8.06,2.09C8.03,2.06,8.03,2.07,8.07,2.04z"/>
				<path d="M15.07,9.9c-0.06,0.03-0.04,0.03-0.08,0C15.04,9.87,15.02,9.88,15.07,9.9z"/>
				<path d="M2.45,4.94c-0.04,0.03-0.02,0.03-0.07,0C2.4,4.91,2.39,4.91,2.45,4.94z"/>
				<path d="M2.71,6.41c0.01,0.07,0.02,0.05-0.02,0.08C2.66,6.44,2.66,6.47,2.71,6.41z"/>
				<path d="M3.63,8.76C3.59,8.78,3.6,8.78,3.59,8.76C3.62,8.74,3.61,8.74,3.63,8.76z"/>
			</g>
		</g>
	</g>
</mask>
<g class="st2">
	<polygon class="st3" points="7.8,4.56 6.05,7.59 4.94,6.95 4.28,8.08 6.52,9.38 8.93,5.21 	"/>
	<g>
		<path class="st3" d="M10.8,9.37c-0.06,0.02-0.12,0.06-0.16,0.13l-0.09,0.14l0.43,0.27l0.09-0.14c0.04-0.07,0.06-0.13,0.05-0.2
			C11.11,9.5,11.07,9.45,11,9.41C10.93,9.36,10.87,9.35,10.8,9.37z"/>
		<path class="st3" d="M4.09,2.83c0.04-0.03,0.07-0.06,0.08-0.1c0.01-0.03,0-0.07-0.02-0.11C4.13,2.59,4.1,2.57,4.06,2.57
			c-0.04,0-0.08,0.01-0.12,0.04L3.82,2.69l0.15,0.23L4.09,2.83z"/>
		<path class="st3" d="M6.5,11.58l-0.15-0.01l-0.02,0.27l0.15,0.01c0.05,0,0.1-0.01,0.12-0.03c0.03-0.02,0.04-0.05,0.05-0.1
			c0-0.04-0.01-0.08-0.03-0.1C6.6,11.59,6.56,11.58,6.5,11.58z"/>
		<path class="st3" d="M7.71,10.27c1.84-0.49,2.93-2.39,2.44-4.22C9.65,4.21,7.76,3.12,5.92,3.61S2.99,6,3.48,7.83
			C3.98,9.67,5.87,10.77,7.71,10.27z M6.02,3.98c1.64-0.44,3.32,0.53,3.75,2.17c0.44,1.63-0.53,3.31-2.17,3.75
			c-1.63,0.44-3.31-0.53-3.75-2.17C3.42,6.1,4.39,4.42,6.02,3.98z"/>
		<path class="st3" d="M13.14,5.25C13.08,5,12.93,4.78,12.71,4.63c-0.22-0.15-0.37-0.37-0.44-0.62c-0.03-0.11-0.04-0.22-0.04-0.34
			c0.01-0.12-0.01-0.23-0.04-0.34c-0.1-0.39-0.42-0.7-0.83-0.78c-0.19-0.04-0.35-0.13-0.49-0.25c-0.14-0.12-0.25-0.28-0.31-0.46
			c-0.09-0.25-0.26-0.45-0.48-0.58C9.87,1.14,9.61,1.09,9.35,1.14C9.16,1.17,8.97,1.16,8.8,1.1C8.62,1.04,8.47,0.94,8.34,0.8
			C8.06,0.49,7.63,0.37,7.25,0.47C7.14,0.5,7.03,0.55,6.93,0.61C6.62,0.82,6.21,0.85,5.87,0.68C5.63,0.57,5.36,0.55,5.12,0.61
			C4.88,0.68,4.66,0.83,4.5,1.05C4.35,1.27,4.13,1.42,3.89,1.48C3.78,1.51,3.66,1.53,3.55,1.52C3.43,1.51,3.32,1.53,3.21,1.56
			c-0.39,0.1-0.7,0.42-0.78,0.83C2.38,2.57,2.3,2.74,2.18,2.87C2.06,3.01,1.9,3.12,1.72,3.18C1.47,3.27,1.27,3.45,1.14,3.67
			C1.01,3.88,0.96,4.15,1.01,4.41C1.05,4.6,1.03,4.79,0.97,4.96c-0.06,0.17-0.16,0.33-0.3,0.46C0.36,5.7,0.24,6.13,0.35,6.51
			c0.03,0.11,0.08,0.21,0.14,0.31c0.06,0.1,0.11,0.2,0.14,0.31c0.07,0.25,0.04,0.51-0.07,0.75C0.44,8.13,0.42,8.39,0.49,8.64
			C0.55,8.88,0.7,9.1,0.92,9.26C1.14,9.4,1.29,9.62,1.36,9.87c0.03,0.11,0.04,0.22,0.04,0.34c-0.01,0.12,0.01,0.23,0.04,0.34
			c0.1,0.39,0.42,0.7,0.83,0.79c0.19,0.04,0.35,0.13,0.49,0.25c0.14,0.12,0.24,0.28,0.31,0.46c0.09,0.25,0.26,0.45,0.48,0.58
			c0.22,0.13,0.48,0.18,0.74,0.13c0.19-0.03,0.38-0.02,0.55,0.04c0.17,0.06,0.33,0.16,0.46,0.3C5.57,13.4,6,13.52,6.38,13.41
			c0.11-0.03,0.21-0.08,0.31-0.14c0.1-0.06,0.2-0.11,0.31-0.14c0.25-0.07,0.51-0.04,0.75,0.07c0.24,0.12,0.51,0.13,0.75,0.07
			c0.24-0.07,0.46-0.21,0.62-0.44c0.15-0.22,0.37-0.37,0.62-0.44c0.11-0.03,0.22-0.04,0.34-0.04c0.12,0.01,0.23-0.01,0.34-0.04
			c0.39-0.1,0.7-0.42,0.78-0.83c0.04-0.19,0.13-0.35,0.25-0.49c0.12-0.14,0.28-0.25,0.46-0.31c0.25-0.09,0.45-0.26,0.58-0.48
			c0.13-0.22,0.18-0.48,0.13-0.74c-0.03-0.19-0.02-0.38,0.04-0.55c0.06-0.17,0.16-0.33,0.3-0.46c0.31-0.28,0.43-0.71,0.32-1.09
			c-0.03-0.11-0.08-0.21-0.14-0.31c-0.06-0.1-0.11-0.2-0.14-0.31C12.94,6.5,12.96,6.24,13.08,6C13.19,5.76,13.21,5.49,13.14,5.25z
			 M3.41,10.7l-0.27-0.27l0.14-0.14l0.27,0.27L3.41,10.7z M2.17,5.88L1.99,5.83l0.1-0.37l0.19,0.05L2.17,5.88z M7.87,1.65l0.7,0.19
			l-0.05,0.2L8.06,1.91L8.02,2.06l0.4,0.11L8.36,2.36l-0.4-0.11L7.92,2.42l0.47,0.13l-0.05,0.2l-0.72-0.2L7.87,1.65z M7.21,1.56
			l0.26,0.03l-0.1,0.92L7.11,2.49L7.21,1.56z M6.16,1.57l0.73-0.04l0.01,0.2L6.43,1.76l0.01,0.2l0.41-0.02l0.01,0.2L6.45,2.17
			l0.02,0.32L6.21,2.5L6.16,1.57z M5.51,1.7l0.26-0.06l0.2,0.91L5.71,2.61L5.51,1.7z M10.38,5.99c0.53,1.96-0.64,3.99-2.61,4.52
			C5.81,11.03,3.78,9.86,3.25,7.9C2.73,5.93,3.9,3.91,5.86,3.38C7.83,2.85,9.85,4.02,10.38,5.99z M5.22,1.77l0.08,0.19l-0.26,0.1
			l0.26,0.67l-0.24,0.1L4.78,2.16l-0.27,0.1L4.44,2.07L5.22,1.77z M3.84,2.43c0.07-0.05,0.14-0.08,0.21-0.09
			c0.07-0.01,0.13,0,0.19,0.02c0.06,0.02,0.1,0.07,0.14,0.12C4.41,2.54,4.43,2.6,4.43,2.66c0,0.06-0.01,0.12-0.05,0.17l0.33,0.13
			L4.48,3.12L4.2,3L4.08,3.08l0.14,0.21L4,3.43L3.49,2.66L3.84,2.43z M3.17,2.93l0.15,0.14L2.99,3.41L3.1,3.51l0.29-0.3l0.14,0.14
			l-0.29,0.3l0.12,0.12L3.7,3.42l0.15,0.14L3.34,4.1L2.67,3.45L3.17,2.93z M2.13,4.33c0-0.09,0.03-0.17,0.08-0.26
			C2.25,4,2.31,3.94,2.37,3.9c0.06-0.04,0.13-0.07,0.2-0.08l0.04,0.22C2.52,4.05,2.45,4.1,2.4,4.17C2.38,4.21,2.36,4.26,2.36,4.3
			c0,0.05,0.01,0.09,0.03,0.13c0.02,0.04,0.06,0.07,0.1,0.1c0.04,0.03,0.09,0.04,0.14,0.04c0.05,0,0.09-0.01,0.13-0.03
			c0.04-0.02,0.07-0.05,0.1-0.1C2.9,4.37,2.91,4.29,2.88,4.2l0.22-0.06C3.12,4.2,3.13,4.28,3.12,4.35C3.11,4.42,3.08,4.5,3.04,4.57
			C2.99,4.65,2.92,4.72,2.85,4.76C2.77,4.81,2.69,4.83,2.61,4.83c-0.09,0-0.17-0.02-0.25-0.07C2.28,4.71,2.22,4.65,2.18,4.57
			C2.14,4.49,2.12,4.41,2.13,4.33z M4.54,11.01c-0.05,0-0.09,0.01-0.13,0.04c-0.04,0.02-0.07,0.06-0.1,0.11
			c-0.03,0.05-0.04,0.09-0.04,0.14c0,0.05,0.01,0.09,0.03,0.13c0.02,0.04,0.06,0.07,0.1,0.09c0.07,0.04,0.16,0.05,0.24,0.01
			l0.07,0.21c-0.07,0.03-0.14,0.04-0.21,0.03c-0.07-0.01-0.15-0.03-0.22-0.07c-0.09-0.05-0.15-0.11-0.2-0.18
			c-0.05-0.07-0.07-0.15-0.08-0.24s0.02-0.17,0.06-0.25c0.05-0.08,0.1-0.14,0.18-0.19c0.07-0.04,0.16-0.06,0.24-0.06
			c0.09,0,0.17,0.03,0.26,0.07C4.84,10.89,4.9,10.94,4.94,11c0.04,0.06,0.07,0.12,0.09,0.2l-0.22,0.05
			c-0.02-0.09-0.06-0.16-0.14-0.2C4.63,11.02,4.58,11.01,4.54,11.01z M5.72,11.82l-0.4-0.12l-0.05,0.16l0.47,0.14L5.68,12.2
			l-0.71-0.21l0.26-0.89l0.7,0.21L5.87,11.5l-0.45-0.13l-0.04,0.15l0.4,0.12L5.72,11.82z M6.92,11.74c0,0.07-0.02,0.12-0.06,0.17
			C6.83,11.96,6.78,12,6.72,12.02l0.18,0.3l-0.28-0.02l-0.15-0.26l-0.14-0.01l-0.02,0.25l-0.26-0.02l0.06-0.93l0.42,0.03
			c0.08,0.01,0.16,0.02,0.22,0.06c0.06,0.03,0.1,0.08,0.13,0.13C6.91,11.61,6.92,11.67,6.92,11.74z M7.86,11.48l-0.28,0.04l0.1,0.71
			l-0.26,0.04l-0.1-0.71L7.04,11.6l-0.03-0.21l0.82-0.12L7.86,11.48z M8.23,12.11l-0.27-0.89l0.25-0.08l0.27,0.89L8.23,12.11z
			 M9.06,11.8l-0.24,0.12l-0.41-0.83l0.65-0.32l0.09,0.18l-0.42,0.2l0.09,0.18l0.37-0.18l0.09,0.18l-0.37,0.18L9.06,11.8z
			 M9.74,11.42L9.2,10.66l0.21-0.15l0.53,0.76L9.74,11.42z M10.25,11.05L9.6,10.39l0.52-0.51l0.14,0.14l-0.33,0.33l0.11,0.11
			l0.29-0.29l0.14,0.14l-0.29,0.29l0.12,0.12l0.35-0.34l0.14,0.14L10.25,11.05z M11.35,9.61c-0.01,0.09-0.04,0.17-0.1,0.26
			l-0.24,0.37l-0.78-0.5l0.24-0.37c0.05-0.09,0.12-0.15,0.19-0.2c0.07-0.05,0.15-0.07,0.23-0.07c0.08,0,0.16,0.03,0.24,0.08
			c0.08,0.05,0.14,0.11,0.17,0.19C11.35,9.44,11.36,9.52,11.35,9.61z M9.64,2.62c0,0.08-0.02,0.16-0.06,0.25
			C9.53,2.95,9.47,3.01,9.4,3.05C9.33,3.09,9.25,3.11,9.16,3.1c-0.09,0-0.18-0.03-0.26-0.08L8.51,2.81L8.96,2l0.38,0.21
			c0.09,0.05,0.16,0.11,0.21,0.18C9.61,2.46,9.63,2.54,9.64,2.62z M10.16,3.35l0.27,0.28l-0.14,0.14l-0.27-0.28L10.16,3.35z
			 M11.57,8.56l-0.19-0.05l0.1-0.37l0.19,0.05L11.57,8.56z"/>
		<path class="st3" d="M9.09,2.31L8.85,2.75l0.15,0.08c0.07,0.04,0.14,0.05,0.2,0.03c0.06-0.02,0.12-0.06,0.15-0.13
			c0.04-0.07,0.05-0.14,0.03-0.2C9.35,2.47,9.31,2.42,9.24,2.39L9.09,2.31z"/>
	</g>
</g>
</svg>
