<?xml version="1.0" encoding="UTF-8" standalone="no"?>
<!-- Generator: Adobe Illustrator 24.2.0, SVG Export Plug-In . SVG Version: 6.00 Build 0)  -->

<svg
   xmlns:dc="http://purl.org/dc/elements/1.1/"
   xmlns:cc="http://creativecommons.org/ns#"
   xmlns:rdf="http://www.w3.org/1999/02/22-rdf-syntax-ns#"
   xmlns:svg="http://www.w3.org/2000/svg"
   xmlns="http://www.w3.org/2000/svg"
   xmlns:sodipodi="http://sodipodi.sourceforge.net/DTD/sodipodi-0.dtd"
   xmlns:inkscape="http://www.inkscape.org/namespaces/inkscape"
   version="1.1"
   x="0px"
   y="0px"
   viewBox="0 0 152.09547 44.766854"
   xml:space="preserve"
   id="svg49"
   sodipodi:docname="google-play.svg"
   width="152.09547"
   height="44.766853"
   inkscape:version="0.92.4 (5da689c313, 2019-01-14)"><metadata
   id="metadata55"><rdf:RDF><cc:Work
       rdf:about=""><dc:format>image/svg+xml</dc:format><dc:type
         rdf:resource="http://purl.org/dc/dcmitype/StillImage" /></cc:Work></rdf:RDF></metadata><defs
   id="defs53" /><sodipodi:namedview
   pagecolor="#ffffff"
   bordercolor="#666666"
   borderopacity="1"
   objecttolerance="10"
   gridtolerance="10"
   guidetolerance="10"
   inkscape:pageopacity="0"
   inkscape:pageshadow="2"
   inkscape:window-width="1366"
   inkscape:window-height="705"
   id="namedview51"
   showgrid="false"
   inkscape:zoom="2.5889675"
   inkscape:cx="186.52063"
   inkscape:cy="39.246286"
   inkscape:window-x="-8"
   inkscape:window-y="-8"
   inkscape:window-maximized="1"
   inkscape:current-layer="svg49" />
<style
   type="text/css"
   id="style2">
	.st0{fill:#A7A9AC;}
	.st1{fill:#FFFFFF;}
	.st2{fill:#5BC9F4;}
	.st3{fill:url(#SVGID_1_);}
	.st4{fill:url(#SVGID_2_);}
	.st5{fill:url(#SVGID_3_);}
</style>
<g
   id="Google_Play"
   transform="translate(-2.98,-22.333148)">
</g>
<g
   id="App_Store"
   transform="matrix(0.69893604,0,0,0.69893604,-2.0828294,-2.1317549)">
	<g
   id="g9">
		<path
   d="M 212.4,66.29 H 11.17 c -4.08,0 -7.38,-3.31 -7.38,-7.38 V 11.24 C 3.79,7.16 7.1,3.86 11.17,3.86 H 212.4 c 4.08,0 7.38,3.31 7.38,7.38 v 47.67 c 0.01,4.08 -3.3,7.38 -7.38,7.38 z"
   id="path5"
   inkscape:connector-curvature="0" />
		<path
   class="st0"
   d="M 212.4,67.1 H 11.17 C 6.65,67.1 2.98,63.43 2.98,58.91 V 11.24 c 0,-4.52 3.67,-8.19 8.19,-8.19 H 212.4 c 4.52,0 8.19,3.67 8.19,8.19 v 47.67 c 0,4.51 -3.67,8.19 -8.19,8.19 z M 11.17,4.66 C 7.54,4.66 4.6,7.61 4.6,11.24 v 47.67 c 0,3.63 2.95,6.57 6.57,6.57 H 212.4 c 3.63,0 6.57,-2.95 6.57,-6.57 V 11.24 c 0,-3.63 -2.95,-6.58 -6.57,-6.58 z"
   id="path7"
   inkscape:connector-curvature="0"
   style="fill:#a7a9ac" />
	</g>
	<path
   class="st1"
   d="m 112.75,33.07 c -3.78,0 -6.87,2.88 -6.87,6.84 0,3.94 3.08,6.84 6.87,6.84 3.78,0 6.87,-2.9 6.87,-6.84 0,-3.96 -3.08,-6.84 -6.87,-6.84 z m 0,10.99 c -2.07,0 -3.86,-1.71 -3.86,-4.15 0,-2.46 1.79,-4.15 3.86,-4.15 2.07,0 3.86,1.68 3.86,4.15 0.01,2.44 -1.78,4.15 -3.86,4.15 z M 97.77,33.07 c -3.78,0 -6.87,2.88 -6.87,6.84 0,3.94 3.08,6.84 6.87,6.84 3.78,0 6.87,-2.9 6.87,-6.84 0,-3.96 -3.08,-6.84 -6.87,-6.84 z m 0,10.99 c -2.07,0 -3.86,-1.71 -3.86,-4.15 0,-2.46 1.79,-4.15 3.86,-4.15 2.07,0 3.86,1.68 3.86,4.15 0.01,2.44 -1.78,4.15 -3.86,4.15 z M 79.96,35.17 v 2.9 h 6.94 c -0.21,1.63 -0.75,2.82 -1.58,3.65 -1.01,1.01 -2.59,2.12 -5.36,2.12 -4.28,0 -7.62,-3.45 -7.62,-7.72 0,-4.27 3.34,-7.72 7.62,-7.72 2.31,0 3.99,0.91 5.23,2.07 l 2.05,-2.05 c -1.74,-1.66 -4.04,-2.93 -7.28,-2.93 -5.86,0 -10.78,4.77 -10.78,10.62 0,5.86 4.92,10.62 10.78,10.62 3.16,0 5.55,-1.04 7.41,-2.98 1.92,-1.92 2.51,-4.61 2.51,-6.79 0,-0.67 -0.05,-1.3 -0.16,-1.81 h -9.76 z m 72.87,2.26 c -0.57,-1.53 -2.31,-4.35 -5.86,-4.35 -3.52,0 -6.45,2.77 -6.45,6.84 0,3.83 2.9,6.84 6.79,6.84 3.14,0 4.95,-1.92 5.7,-3.03 l -2.33,-1.55 c -0.78,1.14 -1.84,1.89 -3.37,1.89 -1.53,0 -2.62,-0.7 -3.32,-2.07 l 9.15,-3.78 z m -9.33,2.28 c -0.08,-2.64 2.05,-3.99 3.58,-3.99 1.19,0 2.2,0.6 2.54,1.45 z m -7.44,6.63 h 3.01 V 26.23 h -3.01 z M 131.14,34.6 h -0.1 c -0.67,-0.8 -1.97,-1.53 -3.6,-1.53 -3.42,0 -6.56,3.01 -6.56,6.87 0,3.83 3.14,6.81 6.56,6.81 1.63,0 2.93,-0.73 3.6,-1.55 h 0.1 v 0.98 c 0,2.62 -1.4,4.02 -3.65,4.02 -1.84,0 -2.98,-1.32 -3.45,-2.44 l -2.62,1.09 c 0.75,1.81 2.75,4.04 6.06,4.04 3.52,0 6.5,-2.07 6.5,-7.13 V 33.49 h -2.85 v 1.11 z m -3.45,9.46 c -2.07,0 -3.81,-1.74 -3.81,-4.12 0,-2.41 1.74,-4.17 3.81,-4.17 2.05,0 3.65,1.76 3.65,4.17 0.01,2.38 -1.6,4.12 -3.65,4.12 z m 39.22,-17.83 h -7.19 v 20.11 h 3 v -7.62 h 4.19 c 3.33,0 6.6,-2.41 6.6,-6.24 0,-3.83 -3.27,-6.25 -6.6,-6.25 z m 0.08,9.69 h -4.27 v -6.89 h 4.27 c 2.24,0 3.52,1.86 3.52,3.45 -0.01,1.56 -1.28,3.44 -3.52,3.44 z m 18.54,-2.88 c -2.17,0 -4.42,0.96 -5.35,3.08 l 2.66,1.11 c 0.57,-1.11 1.63,-1.47 2.74,-1.47 1.55,0 3.13,0.93 3.16,2.59 v 0.21 c -0.54,-0.31 -1.71,-0.78 -3.13,-0.78 -2.87,0 -5.79,1.58 -5.79,4.53 0,2.69 2.35,4.42 4.99,4.42 2.02,0 3.13,-0.91 3.83,-1.97 h 0.1 v 1.55 h 2.9 V 38.6 c 0,-3.57 -2.67,-5.56 -6.11,-5.56 z m -0.36,11.02 c -0.98,0 -2.35,-0.49 -2.35,-1.71 0,-1.55 1.71,-2.15 3.18,-2.15 1.32,0 1.94,0.28 2.74,0.67 -0.23,1.87 -1.84,3.19 -3.57,3.19 z m 17.02,-10.58 -3.44,8.72 h -0.1 l -3.57,-8.72 h -3.23 l 5.35,12.18 -3.05,6.78 h 3.13 l 8.25,-18.96 z m -27.03,12.86 h 3 V 26.23 h -3 z"
   id="path11"
   inkscape:connector-curvature="0"
   style="fill:#ffffff" />
	<g
   id="g46">
		<path
   class="st2"
   d="m 19.95,15.23 c -0.47,0.49 -0.74,1.26 -0.74,2.26 v 35.54 c 0,1 0.28,1.76 0.74,2.26 L 20.07,55.41 39.98,35.5 V 35.26 35.03 L 20.07,15.11 Z"
   id="path13"
   inkscape:connector-curvature="0"
   style="fill:#5bc9f4" />
		<linearGradient
   id="SVGID_1_"
   gradientUnits="userSpaceOnUse"
   x1="53.168499"
   y1="35.257599"
   x2="14.2829"
   y2="35.257599">
			<stop
   offset="0"
   style="stop-color:#FEE000"
   id="stop15" />
			<stop
   offset="0.1941"
   style="stop-color:#FCCF0B"
   id="stop17" />
			<stop
   offset="0.5469"
   style="stop-color:#FAB318"
   id="stop19" />
			<stop
   offset="0.8279"
   style="stop-color:#F9A21B"
   id="stop21" />
			<stop
   offset="1"
   style="stop-color:#F99B1C"
   id="stop23" />
		</linearGradient>
		<path
   class="st3"
   d="m 46.61,42.13 -6.64,-6.64 v -0.24 -0.23 l 6.64,-6.64 0.15,0.09 7.86,4.47 c 2.25,1.28 2.25,3.36 0,4.64 l -7.86,4.47 z"
   id="path26"
   style="fill:url(#SVGID_1_)"
   inkscape:connector-curvature="0" />
		<linearGradient
   id="SVGID_2_"
   gradientUnits="userSpaceOnUse"
   x1="43.077202"
   y1="38.945301"
   x2="6.5036001"
   y2="75.518898">
			<stop
   offset="0"
   style="stop-color:#EF4547"
   id="stop28" />
			<stop
   offset="1"
   style="stop-color:#C6186D"
   id="stop30" />
		</linearGradient>
		<path
   class="st4"
   d="M 46.77,42.04 39.98,35.25 19.95,55.29 c 0.74,0.78 1.96,0.88 3.34,0.1 L 46.77,42.04"
   id="path33"
   style="fill:url(#SVGID_2_)"
   inkscape:connector-curvature="0" />
		<linearGradient
   id="SVGID_3_"
   gradientUnits="userSpaceOnUse"
   x1="6.3406"
   y1="-5.1680002"
   x2="36.202"
   y2="24.693399">
			<stop
   offset="0"
   style="stop-color:#279E6F"
   id="stop35" />
			<stop
   offset="0.3168"
   style="stop-color:#4DAB6D"
   id="stop37" />
			<stop
   offset="0.7398"
   style="stop-color:#6ABA6A"
   id="stop39" />
			<stop
   offset="1"
   style="stop-color:#74C169"
   id="stop41" />
		</linearGradient>
		<path
   class="st5"
   d="M 46.77,28.47 23.29,15.13 c -1.38,-0.78 -2.6,-0.69 -3.34,0.1 l 20.03,20.03 z"
   id="path44"
   style="fill:url(#SVGID_3_)"
   inkscape:connector-curvature="0" />
	</g>
</g>
</svg>