<?xml version="1.0" encoding="utf-8"?>
<!-- Generator: Adobe Illustrator 24.2.0, SVG Export Plug-In . SVG Version: 6.00 Build 0)  -->
<svg version="1.1" id="Layer_1" xmlns="http://www.w3.org/2000/svg" xmlns:xlink="http://www.w3.org/1999/xlink" x="0px" y="0px"
	 viewBox="0 0 235.79 138.64" style="enable-background:new 0 0 235.79 138.64;" xml:space="preserve">
<style type="text/css">
	.st0{fill:#65A7DD;}
	.st1{fill:#31364C;}
	.st2{fill:#FFFFFF;}
	.st3{fill:#F0CB6D;}
	.st4{fill:#414965;}
</style>
<g id="XMLID_344_">
	<path class="st0" d="M83.97,99.78V33.3c0-3.04-2.46-5.5-5.5-5.5H18.88c-3.04,0-5.5,2.46-5.5,5.5v75.02c0,3.04,2.46,5.5,5.5,5.5
		h52.23L83.97,99.78z"/>
	<path class="st1" d="M71.47,114.65H18.88c-3.49,0-6.32-2.84-6.32-6.32V33.3c0-3.49,2.84-6.32,6.32-6.32h59.59
		c3.49,0,6.32,2.84,6.32,6.32v66.8L71.47,114.65z M18.88,28.62c-2.58,0-4.68,2.1-4.68,4.68v75.02c0,2.58,2.1,4.68,4.68,4.68h51.87
		l12.4-13.54V33.3c0-2.58-2.1-4.68-4.68-4.68H18.88z"/>
</g>
<g id="XMLID_342_">
	<polygon class="st1" points="70.14,114.24 68.5,114.24 68.5,98.15 83.3,98.15 83.3,99.79 70.14,99.79 	"/>
</g>
<g id="XMLID_341_">
	<path class="st2" d="M72.81,105.89V39.42c0-3.04-2.46-5.5-5.5-5.5H7.72c-3.04,0-5.5,2.46-5.5,5.5v75.02c0,3.04,2.46,5.5,5.5,5.5
		h52.23L72.81,105.89z"/>
	<path class="st1" d="M60.31,120.76H7.72c-3.49,0-6.32-2.84-6.32-6.32V39.41c0-3.49,2.84-6.32,6.32-6.32H67.3
		c3.49,0,6.32,2.84,6.32,6.32v66.8L60.31,120.76z M7.72,34.73c-2.58,0-4.68,2.1-4.68,4.68v75.02c0,2.58,2.1,4.68,4.68,4.68h51.87
		l12.4-13.54V39.41c0-2.58-2.1-4.68-4.68-4.68H7.72z"/>
</g>
<g id="XMLID_340_">
	<polygon class="st1" points="59.94,119.94 58.3,119.94 58.3,104.17 72.81,104.17 72.81,105.81 59.94,105.81 	"/>
</g>
<path id="XMLID_336_" class="st3" d="M229.42,58.93h-24.11l0,0h-18.76c-1.59,0-2.88-1.29-2.88-2.88c0-1.59,1.29-2.88,2.88-2.88
	h18.76h11.7c2.6,0,4.71-2.11,4.71-4.71v0c0-2.6-2.11-4.71-4.71-4.71h-16.16H138.1H12.31c-2.46,0-4.46,2-4.46,4.46v29.99
	c0,2.46,2,4.46,4.46,4.46h126.25c0.43,0.13,0.88-0.02,1.35-0.02h78.92c2.6,0,4.71-1.89,4.71-4.49l0,0c0-2.6-2.11-4.71-4.71-4.71
	H193.3c-0.62-0.53-1.02-1.32-1.02-2.19c0-1.59,1.29-2.88,2.88-2.88h34.26c2.6,0,4.71-2.11,4.71-4.71l0,0
	C234.13,61.04,232.03,58.93,229.42,58.93z"/>
<g id="XMLID_331_">
	<g id="XMLID_334_">
		<path class="st0" d="M80.62,9.72c-0.19,0-0.38-0.07-0.53-0.22c-0.29-0.29-0.29-0.77,0-1.06l5.37-5.37c0.29-0.29,0.77-0.29,1.06,0
			c0.29,0.29,0.29,0.77,0,1.06L81.15,9.5C81,9.65,80.81,9.72,80.62,9.72z"/>
	</g>
	<g id="XMLID_333_">
		<path class="st0" d="M85.99,9.72c-0.19,0-0.38-0.07-0.53-0.22l-5.37-5.37c-0.29-0.29-0.29-0.77,0-1.06c0.29-0.29,0.77-0.29,1.06,0
			l5.37,5.37c0.29,0.29,0.29,0.77,0,1.06C86.37,9.65,86.18,9.72,85.99,9.72z"/>
	</g>
</g>
<g id="XMLID_328_">
	<g id="XMLID_330_">
		<path class="st0" d="M145.65,105.31c-0.19,0-0.38-0.07-0.53-0.22c-0.29-0.29-0.29-0.77,0-1.06l5.37-5.37
			c0.29-0.29,0.77-0.29,1.06,0c0.29,0.29,0.29,0.77,0,1.06l-5.37,5.37C146.04,105.24,145.85,105.31,145.65,105.31z"/>
	</g>
	<g id="XMLID_329_">
		<path class="st0" d="M151.02,105.31c-0.19,0-0.38-0.07-0.53-0.22l-5.37-5.37c-0.29-0.29-0.29-0.77,0-1.06
			c0.29-0.29,0.77-0.29,1.06,0l5.37,5.37c0.29,0.29,0.29,0.77,0,1.06C151.41,105.24,151.21,105.31,151.02,105.31z"/>
	</g>
</g>
<g id="XMLID_327_">
	<path class="st0" d="M131.48,27.12c-2.01,0-3.64-1.63-3.64-3.64c0-2.01,1.63-3.64,3.64-3.64s3.64,1.63,3.64,3.64
		C135.12,25.49,133.48,27.12,131.48,27.12z M131.48,21.34c-1.18,0-2.14,0.96-2.14,2.14c0,1.18,0.96,2.14,2.14,2.14
		c1.18,0,2.14-0.96,2.14-2.14C133.62,22.3,132.66,21.34,131.48,21.34z"/>
</g>
<g id="XMLID_324_">
	<g id="XMLID_326_">
		<path class="st0" d="M209.91,18.66c-0.19,0-0.38-0.07-0.53-0.22c-0.29-0.29-0.29-0.77,0-1.06l5.37-5.37
			c0.29-0.29,0.77-0.29,1.06,0c0.29,0.29,0.29,0.77,0,1.06l-5.37,5.37C210.3,18.59,210.1,18.66,209.91,18.66z"/>
	</g>
	<g id="XMLID_325_">
		<path class="st0" d="M215.28,18.66c-0.19,0-0.38-0.07-0.53-0.22l-5.37-5.37c-0.29-0.29-0.29-0.77,0-1.06
			c0.29-0.29,0.77-0.29,1.06,0l5.37,5.37c0.29,0.29,0.29,0.77,0,1.06C215.66,18.59,215.47,18.66,215.28,18.66z"/>
	</g>
</g>
<g id="XMLID_321_">
	<g id="XMLID_323_">
		<path class="st0" d="M33.97,137.46c-0.19,0-0.38-0.07-0.53-0.22c-0.29-0.29-0.29-0.77,0-1.06l5.37-5.37
			c0.29-0.29,0.77-0.29,1.06,0c0.29,0.29,0.29,0.77,0,1.06l-5.37,5.37C34.36,137.38,34.17,137.46,33.97,137.46z"/>
	</g>
	<g id="XMLID_322_">
		<path class="st0" d="M39.34,137.46c-0.19,0-0.38-0.07-0.53-0.22l-5.37-5.37c-0.29-0.29-0.29-0.77,0-1.06
			c0.29-0.29,0.77-0.29,1.06,0l5.37,5.37c0.29,0.29,0.29,0.77,0,1.06C39.73,137.38,39.53,137.46,39.34,137.46z"/>
	</g>
</g>
<g id="XMLID_310_">
	<path class="st0" d="M202.71,116.7c-1.4,0-2.55-1.14-2.55-2.55c0-1.4,1.14-2.55,2.55-2.55c1.4,0,2.55,1.14,2.55,2.55
		C205.25,115.56,204.11,116.7,202.71,116.7z M202.71,112.65c-0.83,0-1.5,0.67-1.5,1.5c0,0.83,0.67,1.5,1.5,1.5
		c0.83,0,1.5-0.67,1.5-1.5C204.2,113.33,203.53,112.65,202.71,112.65z"/>
</g>
<g id="XMLID_309_">
	<path class="st0" d="M106.15,128.28c-2.01,0-3.64-1.63-3.64-3.64c0-2.01,1.63-3.64,3.64-3.64c2.01,0,3.64,1.63,3.64,3.64
		C109.79,126.64,108.16,128.28,106.15,128.28z M106.15,122.49c-1.18,0-2.14,0.96-2.14,2.14c0,1.18,0.96,2.14,2.14,2.14
		c1.18,0,2.14-0.96,2.14-2.14C108.3,123.46,107.34,122.49,106.15,122.49z"/>
</g>
<g id="XMLID_308_">
	<path class="st0" d="M193.4,95.77h-13.77c-0.41,0-0.75-0.34-0.75-0.75c0-0.41,0.34-0.75,0.75-0.75h13.77
		c0.41,0,0.75,0.34,0.75,0.75C194.15,95.44,193.82,95.77,193.4,95.77z"/>
</g>
<g id="XMLID_307_">
	<path class="st0" d="M157.97,24.23h-15.71c-0.41,0-0.75-0.34-0.75-0.75s0.34-0.75,0.75-0.75h15.71c0.41,0,0.75,0.34,0.75,0.75
		S158.38,24.23,157.97,24.23z"/>
</g>
<g id="XMLID_305_">
	<path class="st0" d="M128.04,125.39h-12.82c-0.41,0-0.75-0.34-0.75-0.75s0.34-0.75,0.75-0.75h12.82c0.41,0,0.75,0.34,0.75,0.75
		S128.45,125.39,128.04,125.39z"/>
</g>
<g>
	<path class="st1" d="M21.48,56.96c2.07,1.54,3.11,4.83,3.11,7.22c0,1.74-0.42,3.76-1.34,5.3c0.37,0.47,1.05,1.39,1.05,1.72
		c0,0.45-0.35,0.8-0.8,0.8c-0.25,0-0.55-0.12-0.67-0.37l-0.65-0.85c-0.77,0.77-1.74,1.29-2.89,1.29c-0.82,0-1.54-0.25-2.21-0.67
		c-2.21-1.49-3.09-4.73-3.09-7.22c0-2.39,1.05-5.67,3.09-7.22c0.65-0.42,1.44-0.67,2.21-0.67C20.04,56.29,20.84,56.54,21.48,56.96z
		 M21.51,67.22l0.65,0.9c0.6-1.19,0.85-2.61,0.85-3.93c0-1.97-0.77-4.65-2.41-5.87c-0.37-0.25-0.87-0.42-1.29-0.42
		c-0.42,0-0.95,0.17-1.32,0.42c-1.64,1.22-2.41,3.91-2.41,5.87c0,2.02,0.7,4.7,2.41,5.87c0.4,0.3,0.85,0.42,1.32,0.42
		c0.75,0,1.42-0.42,1.94-0.95c-0.42-0.57-1.14-1.57-1.14-1.84c0-0.4,0.35-0.8,0.8-0.8C21.13,66.89,21.33,66.99,21.51,67.22z"/>
	<path class="st1" d="M37.08,57.24v10.33c0,2.89-1.99,4.45-4.75,4.45c-2.71,0-4.75-1.62-4.75-4.45V57.24c0-0.4,0.35-0.8,0.8-0.8
		c0.42,0,0.8,0.4,0.8,0.8v10.33c0,1.89,1.34,2.86,3.16,2.86c1.84,0,3.16-0.95,3.16-2.86V57.24c0-0.4,0.4-0.8,0.8-0.8
		C36.74,56.44,37.08,56.84,37.08,57.24z"/>
	<path class="st1" d="M39.7,71.12c0-0.22,4.28-13.19,4.63-14.23c0.1-0.37,0.45-0.55,0.77-0.55c0.32,0,0.65,0.17,0.77,0.55
		c0.07,0.35,0.6,1.84,1.22,3.78c1.39,4.16,3.41,10.28,3.41,10.45c0,0.4-0.4,0.8-0.8,0.8c-0.32,0-0.67-0.22-0.77-0.57l-1.64-5.05
		h-4.38c-0.55,1.74-1.12,3.33-1.67,5.05c-0.12,0.35-0.42,0.57-0.75,0.57C40.05,71.92,39.7,71.52,39.7,71.12z M43.43,64.7h3.31
		l-1.64-5.1L43.43,64.7z"/>
	<path class="st1" d="M53.46,70.95V57.29c0-0.45,0.35-0.8,0.8-0.8c0.42,0,0.8,0.35,0.8,0.8v12.86h5.5c0.45,0,0.8,0.4,0.8,0.8
		c0,0.45-0.35,0.8-0.8,0.8h-6.3C53.81,71.74,53.46,71.4,53.46,70.95z"/>
	<path class="st1" d="M64.78,70.08h0.5V58.28h-0.5c-0.45,0-0.8-0.35-0.8-0.8c0-0.4,0.35-0.8,0.8-0.8h2.59c0.4,0,0.8,0.4,0.8,0.8
		c0,0.45-0.4,0.8-0.8,0.8h-0.5v11.79h0.5c0.4,0,0.8,0.35,0.8,0.8c0,0.4-0.4,0.8-0.8,0.8h-2.59c-0.45,0-0.8-0.4-0.8-0.8
		C63.98,70.43,64.33,70.08,64.78,70.08z"/>
	<path class="st1" d="M79.48,57.49c0,0.45-0.37,0.8-0.8,0.8h-2.81V71c0,0.45-0.35,0.8-0.8,0.8c-0.45,0-0.8-0.35-0.8-0.8V58.28h-2.81
		c-0.45,0-0.8-0.35-0.8-0.8c0-0.45,0.35-0.8,0.8-0.8h7.22C79.11,56.69,79.48,57.04,79.48,57.49z"/>
	<path class="st1" d="M91.35,57.31c0,0.32-2.02,4.03-3.14,6.15l-0.62,1.17v6.42c0,0.45-0.35,0.8-0.8,0.8c-0.45,0-0.8-0.35-0.8-0.8
		V64.6c-0.07-0.12-0.2-0.3-0.27-0.45v0.02c-0.95-1.74-3.48-6.54-3.48-6.87c0-0.4,0.35-0.8,0.8-0.8c0.27,0,0.55,0.17,0.7,0.45
		c1.14,2.19,1.92,3.56,3.06,5.72c0.92-1.77,2.09-3.86,3.04-5.67c0.12-0.3,0.42-0.5,0.72-0.5C91,56.52,91.35,56.91,91.35,57.31z"/>
	<path class="st1" d="M104.64,71.35c-2.24-1.47-3.11-4.73-3.11-7.19c0-2.51,0.9-5.72,3.11-7.24c0.65-0.4,1.37-0.67,2.19-0.67
		c1.59,0,3.01,1.22,3.86,2.44c0.17,0.25,0.7,1.17,0.7,1.49c0,0.45-0.4,0.8-0.8,0.8c-0.35,0-0.62-0.22-0.75-0.47
		c-0.6-1.27-1.54-2.66-3.01-2.66c-0.45,0-0.9,0.17-1.29,0.45c-1.77,1.14-2.41,3.83-2.41,5.87c0,1.97,0.77,4.65,2.41,5.85
		c0.37,0.25,0.87,0.42,1.29,0.42c1.47,0,2.41-1.39,3.01-2.66c0.12-0.25,0.4-0.45,0.75-0.45c0.4,0,0.8,0.37,0.8,0.77
		c0,0.35-0.52,1.24-0.7,1.52c-0.85,1.24-2.24,2.41-3.86,2.41C106.01,72.02,105.29,71.77,104.64,71.35z"/>
	<path class="st1" d="M121.71,56.94c2.24,1.49,3.11,4.73,3.11,7.22c0,2.49-0.9,5.72-3.11,7.22c-0.65,0.42-1.37,0.67-2.19,0.67
		c-0.82,0-1.54-0.25-2.21-0.67c-2.21-1.49-3.09-4.73-3.09-7.22c0-2.49,0.85-5.72,3.09-7.22c0.67-0.42,1.39-0.67,2.21-0.67
		C120.32,56.27,121.06,56.52,121.71,56.94z M120.81,70.03c1.77-1.14,2.41-3.86,2.41-5.87c0-1.97-0.77-4.65-2.41-5.87
		c-0.37-0.22-0.87-0.42-1.29-0.42s-0.95,0.2-1.32,0.42c-1.64,1.22-2.41,3.91-2.41,5.87c0,2.02,0.67,4.73,2.41,5.87
		c0.4,0.3,0.85,0.42,1.32,0.42C119.99,70.45,120.42,70.33,120.81,70.03z"/>
	<path class="st1" d="M135.4,71.84c-0.27,0-0.55-0.2-0.7-0.45c-1.92-3.88-3.33-6.69-5.32-10.67V71.1c0,0.45-0.35,0.8-0.8,0.8
		c-0.45,0-0.8-0.35-0.8-0.8V57.29c0-0.4,0.35-0.77,0.8-0.77c0.27,0,0.55,0.15,0.7,0.42l5.32,10.7V57.26c0-0.45,0.35-0.8,0.8-0.8
		c0.45,0,0.8,0.35,0.8,0.8v13.78C136.19,71.45,135.84,71.84,135.4,71.84z"/>
	<path class="st1" d="M147.86,57.49c0,0.45-0.37,0.8-0.8,0.8h-2.81V71c0,0.45-0.35,0.8-0.8,0.8c-0.45,0-0.8-0.35-0.8-0.8V58.28
		h-2.81c-0.45,0-0.8-0.35-0.8-0.8c0-0.45,0.35-0.8,0.8-0.8h7.22C147.49,56.69,147.86,57.04,147.86,57.49z"/>
	<path class="st1" d="M156.84,66.27c1,1.82,2.41,4.53,2.41,4.78c0,0.45-0.35,0.8-0.8,0.8c-0.25,0-0.57-0.2-0.7-0.42
		c-1.05-1.97-2.04-3.86-3.09-5.85c-0.35,0.02-0.75,0.02-1.12,0.02c-0.27,0-0.55-0.02-0.8-0.02h-0.45v5.5c0,0.45-0.35,0.8-0.8,0.8
		c-0.45,0-0.8-0.35-0.8-0.8V57.41c0-0.45,0.35-0.8,0.8-0.8h3.01c2.49,0,4.5,1.99,4.5,4.48c0,1.92-0.97,3.51-2.74,4.11L156.84,66.27z
		 M157.47,61.1c0-1.62-1.34-2.89-2.94-2.89h-2.21v5.75h2.21C156.12,63.96,157.47,62.69,157.47,61.1z"/>
	<path class="st1" d="M169.21,56.94c2.24,1.49,3.11,4.73,3.11,7.22c0,2.49-0.9,5.72-3.11,7.22c-0.65,0.42-1.37,0.67-2.19,0.67
		c-0.82,0-1.54-0.25-2.21-0.67c-2.21-1.49-3.09-4.73-3.09-7.22c0-2.49,0.85-5.72,3.09-7.22c0.67-0.42,1.39-0.67,2.21-0.67
		C167.82,56.27,168.56,56.52,169.21,56.94z M168.31,70.03c1.77-1.14,2.41-3.86,2.41-5.87c0-1.97-0.77-4.65-2.41-5.87
		c-0.37-0.22-0.87-0.42-1.29-0.42c-0.42,0-0.95,0.2-1.32,0.42c-1.64,1.22-2.41,3.91-2.41,5.87c0,2.02,0.67,4.73,2.41,5.87
		c0.4,0.3,0.85,0.42,1.32,0.42C167.49,70.45,167.92,70.33,168.31,70.03z"/>
	<path class="st1" d="M175.28,70.95V57.29c0-0.45,0.35-0.8,0.8-0.8c0.42,0,0.8,0.35,0.8,0.8v12.86h5.5c0.45,0,0.8,0.4,0.8,0.8
		c0,0.45-0.35,0.8-0.8,0.8h-6.3C175.63,71.74,175.28,71.4,175.28,70.95z"/>
</g>
<g id="XMLID_303_">
	<path class="st0" d="M10.67,15.51c-1.4,0-2.55-1.14-2.55-2.55c0-1.4,1.14-2.55,2.55-2.55c1.4,0,2.55,1.14,2.55,2.55
		C13.21,14.36,12.07,15.51,10.67,15.51z M10.67,11.46c-0.83,0-1.5,0.67-1.5,1.5c0,0.83,0.67,1.5,1.5,1.5c0.83,0,1.5-0.67,1.5-1.5
		C12.17,12.13,11.49,11.46,10.67,11.46z"/>
</g>
<path id="XMLID_294_" class="st1" d="M63.54,23.42h-4.52v-6.04c0-0.63-0.51-1.15-1.15-1.15h-18.4c-0.63,0-1.15,0.51-1.15,1.15v6.04
	H33.8c-0.63,0-1.15,0.51-1.15,1.15v8.06c0,0.63,0.51,1.15,1.15,1.15h29.74c0.63,0,1.15-0.51,1.15-1.15v-8.06
	C64.69,23.93,64.17,23.42,63.54,23.42z M46.27,21.02c0-1.33,1.08-2.4,2.4-2.4c1.33,0,2.4,1.08,2.4,2.4c0,1.33-1.07,2.4-2.4,2.4
	C47.35,23.42,46.27,22.34,46.27,21.02z"/>
<path id="XMLID_392_" class="st4" d="M52.38,29.81h-4.52v-6.04c0-0.63-0.51-1.15-1.15-1.15h-18.4c-0.63,0-1.15,0.51-1.15,1.15v6.04
	h-4.52c-0.63,0-1.15,0.51-1.15,1.15v8.06c0,0.63,0.51,1.15,1.15,1.15h29.74c0.63,0,1.15-0.51,1.15-1.15v-8.06
	C53.53,30.32,53.01,29.81,52.38,29.81z M35.11,27.4c0-1.33,1.07-2.4,2.4-2.4s2.4,1.08,2.4,2.4c0,1.33-1.07,2.4-2.4,2.4
	S35.11,28.73,35.11,27.4z"/>
<g id="XMLID_140_">
	<path class="st3" d="M28.13,97.87h-8.61c-0.45,0-0.82-0.37-0.82-0.82v-8.61c0-0.45,0.37-0.82,0.82-0.82h8.61
		c0.45,0,0.82,0.37,0.82,0.82v8.61C28.95,97.5,28.58,97.87,28.13,97.87z M20.33,96.23h6.97v-6.97h-6.97V96.23z"/>
</g>
<g id="XMLID_145_">
	<path class="st3" d="M27.66,113.87h-8.15c-0.45,0-0.82-0.37-0.82-0.82v-8.15c0-0.45,0.37-0.82,0.82-0.82h8.15
		c0.45,0,0.82,0.37,0.82,0.82v8.15C28.48,113.5,28.12,113.87,27.66,113.87z M20.33,112.22h6.51v-6.51h-6.51V112.22z"/>
</g>
<g id="XMLID_147_">
	<path class="st1" d="M23.92,96l-2.48-2.71c-0.31-0.33-0.28-0.85,0.05-1.16c0.33-0.31,0.85-0.28,1.16,0.05l1.36,1.49l9.62-8.93
		c0.33-0.31,0.85-0.29,1.16,0.04c0.31,0.33,0.29,0.85-0.04,1.16L23.92,96z"/>
</g>
<g id="XMLID_150_">
	<path class="st3" d="M58.34,93.56H34.57c-0.45,0-0.82-0.37-0.82-0.82c0-0.45,0.37-0.82,0.82-0.82h23.77c0.45,0,0.82,0.37,0.82,0.82
		C59.16,93.19,58.79,93.56,58.34,93.56z"/>
</g>
<g id="XMLID_148_">
	<path class="st3" d="M51.66,109.75H33.83c-0.43,0-0.78-0.35-0.78-0.78c0-0.43,0.35-0.78,0.78-0.78h17.82
		c0.43,0,0.78,0.35,0.78,0.78C52.43,109.4,52.08,109.75,51.66,109.75z"/>
</g>
</svg>
