<?xml version="1.0" encoding="UTF-8" standalone="no"?>
<!-- Created with Inkscape (http://www.inkscape.org/) -->

<svg
   xmlns:dc="http://purl.org/dc/elements/1.1/"
   xmlns:cc="http://creativecommons.org/ns#"
   xmlns:rdf="http://www.w3.org/1999/02/22-rdf-syntax-ns#"
   xmlns:svg="http://www.w3.org/2000/svg"
   xmlns="http://www.w3.org/2000/svg"
   xmlns:sodipodi="http://sodipodi.sourceforge.net/DTD/sodipodi-0.dtd"
   xmlns:inkscape="http://www.inkscape.org/namespaces/inkscape"
   version="1.1"
   id="svg2"
   xml:space="preserve"
   width="434.20996"
   height="354.11057"
   viewBox="0 0 434.20996 354.11057"
   sodipodi:docname="4125356.svg"
   inkscape:version="0.92.4 (5da689c313, 2019-01-14)"><metadata
     id="metadata8"><rdf:RDF><cc:Work
         rdf:about=""><dc:format>image/svg+xml</dc:format><dc:type
           rdf:resource="http://purl.org/dc/dcmitype/StillImage" /><dc:title></dc:title></cc:Work></rdf:RDF></metadata><defs
     id="defs6"><clipPath
       clipPathUnits="userSpaceOnUse"
       id="clipPath20"><path
         d="M 0,500 H 750 V 0 H 0 Z"
         id="path18"
         inkscape:connector-curvature="0" /></clipPath><clipPath
       clipPathUnits="userSpaceOnUse"
       id="clipPath28"><path
         d="M 86.1511,428.517 H 666.666 V 68.6945 H 86.1511 Z"
         id="path26"
         inkscape:connector-curvature="0" /></clipPath><clipPath
       clipPathUnits="userSpaceOnUse"
       id="clipPath44"><path
         d="M 0,500 H 750 V 0 H 0 Z"
         id="path42"
         inkscape:connector-curvature="0" /></clipPath><clipPath
       clipPathUnits="userSpaceOnUse"
       id="clipPath96"><path
         d="M 0,500 H 750 V 0 H 0 Z"
         id="path94"
         inkscape:connector-curvature="0" /></clipPath><clipPath
       clipPathUnits="userSpaceOnUse"
       id="clipPath120"><path
         d="M 0,500 H 750 V 0 H 0 Z"
         id="path118"
         inkscape:connector-curvature="0" /></clipPath><clipPath
       clipPathUnits="userSpaceOnUse"
       id="clipPath500"><path
         d="m 364.852,221.188 h 54.663 V 186.11 h -54.663 z"
         id="path498"
         inkscape:connector-curvature="0" /></clipPath><clipPath
       clipPathUnits="userSpaceOnUse"
       id="clipPath552"><path
         d="m 332.729,194.317 h 22.886 v -7.21 h -22.886 z"
         id="path550"
         inkscape:connector-curvature="0" /></clipPath><clipPath
       clipPathUnits="userSpaceOnUse"
       id="clipPath608"><path
         d="m 332.885,203.198 h 21.928 v -6.908 h -21.928 z"
         id="path606"
         inkscape:connector-curvature="0" /></clipPath><clipPath
       clipPathUnits="userSpaceOnUse"
       id="clipPath664"><path
         d="m 339.222,211.369 h 21.928 v -6.908 h -21.928 z"
         id="path662"
         inkscape:connector-curvature="0" /></clipPath></defs><sodipodi:namedview
     pagecolor="#ffffff"
     bordercolor="#666666"
     borderopacity="1"
     objecttolerance="10"
     gridtolerance="10"
     guidetolerance="10"
     inkscape:pageopacity="0"
     inkscape:pageshadow="2"
     inkscape:window-width="1366"
     inkscape:window-height="705"
     id="namedview4"
     showgrid="false"
     inkscape:zoom="0.93055252"
     inkscape:cx="269.11123"
     inkscape:cy="133.41542"
     inkscape:window-x="-8"
     inkscape:window-y="-8"
     inkscape:window-maximized="1"
     inkscape:current-layer="g10" /><g
     id="g10"
     inkscape:groupmode="layer"
     inkscape:label="4125356"
     transform="matrix(1.3333333,0,0,-1.3333333,-421.62706,518.66655)"><g
       id="g122"
       transform="translate(407.5209,164.8672)"><path
         d="m 0,0 c -2.893,0.272 -5.77,0.674 -8.621,1.258 -44.44,9.097 -78.319,66.036 -55.585,108.188 13.299,24.658 45.749,33.058 54.194,61.302 4.505,15.068 0.675,36.094 15.241,46.127 10.76,7.411 25.301,8.654 37.796,5.94 24.049,-5.223 43.512,-29.082 69.17,-26.062 19.581,2.306 36.532,15.908 56.424,18.009 47.98,5.067 6.718,-67.324 27.146,-86.717 12.544,-11.908 29.222,-10.97 36.228,-29.433 C 242.055,72.097 218.412,12.798 191.001,2.567 188.935,1.796 186.678,1.757 184.473,1.728 129.959,0.995 75.446,0.264 20.933,-0.469 13.956,-0.562 6.934,-0.652 0,0"
         style="fill:#cfebf9;fill-opacity:1;fill-rule:nonzero;stroke:none"
         id="path124"
         inkscape:connector-curvature="0" /></g><g
       id="g126"
       transform="translate(379.0834,337.3818)"><path
         d="m 0,0 c 0,-9.579 -7.766,-17.344 -17.344,-17.344 -9.579,0 -17.344,7.765 -17.344,17.344 0,9.579 7.765,17.344 17.344,17.344 C -7.766,17.344 0,9.579 0,0"
         style="fill:#cfebf9;fill-opacity:1;fill-rule:nonzero;stroke:none"
         id="path128"
         inkscape:connector-curvature="0" /></g><g
       id="g130"
       transform="translate(532.4945,173.0059)"><path
         d="m 0,0 c 10.619,-7.604 51.408,-5.678 60.179,3.414 2.491,2.584 5.992,8.873 -2.675,14.109 -5.754,3.477 -6.613,1.451 -12.034,4.792 -2.158,1.33 -7.028,6.57 -0.403,10.126 3.36,1.805 10.273,1.285 15.116,2.008 2.152,0.322 9.677,1.985 10.314,7.462 0.339,2.902 -1.688,7.617 -7.976,7.961 -1.364,0.076 -6.072,1.563 -6,4.591 0,0 0.734,5.976 7.343,4.75 0,0 15.272,-1.773 14.755,7.609 -0.113,2.077 -1.542,5.046 -7.899,4.769 0,0 -6.728,0.895 -4.204,5.496 0,0 0.664,0.866 4.808,3.675 0,0 15.29,8.766 4.223,16.948 -2.914,2.152 -8.649,4.635 -14.193,-2.894 0,0 -4.622,-9.383 -7.713,-4.554 -1.977,3.085 -5.898,11.307 -13.722,6.285 -1.265,-0.812 -4.68,-5.579 1.126,-13.608 1.241,-1.719 3.556,-6.167 1.501,-9.235 -0.376,-0.56 -6.759,-8.643 -12.922,4.25 -1.715,3.583 -10.763,10.441 -16.001,2.281 -5.054,-7.87 -0.952,-17.877 2.483,-22.664 4.369,-6.084 4.49,-12.561 0.518,-13.633 -2.282,-0.617 -6.138,1.031 -7.09,4.359 C 8.233,52.845 6.505,65.011 -6.182,60.573 -12.727,58.284 -11.807,49.018 -11.057,36.187 -10.338,23.878 -8.187,5.863 0,0"
         style="fill:#95d6f4;fill-opacity:1;fill-rule:nonzero;stroke:none"
         id="path132"
         inkscape:connector-curvature="0" /></g><g
       id="g134"
       transform="translate(534.3529,178.4766)"><path
         d="m 0,0 c -0.012,0.006 -0.023,0.014 -0.035,0.022 -0.107,0.082 -0.128,0.235 -0.046,0.341 2.719,3.576 66.624,87.616 69.269,89.181 0.115,0.068 0.264,0.029 0.333,-0.086 0.068,-0.115 0.03,-0.265 -0.085,-0.333 C 67.384,87.912 23.319,30.341 0.306,0.068 0.233,-0.026 0.104,-0.054 0,0"
         style="fill:#ffffff;fill-opacity:1;fill-rule:nonzero;stroke:none"
         id="path136"
         inkscape:connector-curvature="0" /></g><g
       id="g138"
       transform="translate(589.642,246.3047)"><path
         d="m 0,0 c -1.306,0.677 -2.166,1.171 -2.297,1.246 l -0.081,0.077 c -0.351,0.539 -8.613,13.245 -8.784,16.467 -0.008,0.134 0.096,0.249 0.229,0.256 0.136,0.007 0.249,-0.096 0.257,-0.23 0.159,-2.997 8.101,-15.295 8.674,-16.177 0.872,-0.495 12.716,-7.153 17.91,-5.756 0.131,0.034 0.264,-0.043 0.299,-0.172 0.034,-0.13 -0.042,-0.264 -0.172,-0.298 C 11.861,-5.709 3.924,-2.033 0,0"
         style="fill:#ffffff;fill-opacity:1;fill-rule:nonzero;stroke:none"
         id="path140"
         inkscape:connector-curvature="0" /></g><g
       id="g142"
       transform="translate(567.5551,221.9648)"><path
         d="m 0,0 -0.051,0.069 c -0.165,0.225 -16.16,24.78 -15.233,30.662 0.02,0.133 0.144,0.224 0.278,0.202 0.133,-0.018 0.224,-0.145 0.202,-0.278 -0.84,-5.33 13.746,-28.306 15.097,-30.23 1.583,-0.427 24.745,-6.618 29.857,-4.837 0.128,0.044 0.266,-0.024 0.31,-0.15 0.044,-0.126 -0.023,-0.265 -0.149,-0.31 -5.409,-1.885 -29.219,4.574 -30.229,4.851 z"
         style="fill:#ffffff;fill-opacity:1;fill-rule:nonzero;stroke:none"
         id="path144"
         inkscape:connector-curvature="0" /></g><g
       id="g146"
       transform="translate(542.9476,189.8623)"><path
         d="m 0,0 -0.045,0.113 c -0.498,1.238 -12.217,30.405 -12.751,38.437 -0.009,0.135 0.093,0.25 0.227,0.259 0.134,0.009 0.25,-0.093 0.258,-0.227 0.513,-7.707 11.855,-36.137 12.672,-38.175 2.367,-0.621 38.825,-10.075 46.254,-4.44 0.109,0.081 0.262,0.056 0.342,-0.047 0.081,-0.107 0.061,-0.26 -0.047,-0.341 -7.83,-5.937 -45.205,3.965 -46.792,4.39 z"
         style="fill:#ffffff;fill-opacity:1;fill-rule:nonzero;stroke:none"
         id="path148"
         inkscape:connector-curvature="0" /></g><g
       id="g150"
       transform="translate(432.5775,167.1582)"><path
         d="m 0,0 c 10.638,6.908 23.344,44.474 18.229,55.624 -1.454,3.169 -5.9,8.562 -13.706,2.58 -5.18,-3.971 -3.653,-5.466 -8.595,-9.183 -1.966,-1.482 -8.43,-4.029 -9.299,3.222 -0.442,3.676 2.477,9.744 3.539,14.378 0.471,2.061 1.634,9.454 -3.094,11.971 -2.503,1.334 -7.485,1.171 -10.024,-4.393 -0.552,-1.206 -3.564,-4.936 -6.276,-3.799 0,0 -5.144,2.781 -1.694,8.323 0,0 7.012,13.18 -1.654,16.038 -1.919,0.633 -5.109,0.392 -7.111,-5.455 0,0 -3.192,-5.766 -6.459,-1.854 0,0 -0.546,0.907 -1.619,5.65 0,0 -2.51,16.93 -13.83,9.821 -2.978,-1.872 -7.254,-6.179 -2.41,-13.858 0,0 6.848,-7.503 1.386,-8.588 -3.489,-0.695 -12.314,-1.328 -10.544,-10.182 0.286,-1.431 3.387,-6.208 12.703,-3.802 1.994,0.514 6.837,1.031 8.883,-1.914 0.374,-0.538 5.422,-9.173 -8.421,-10.179 -3.847,-0.281 -13.252,-6.033 -7.731,-13.66 5.328,-7.358 15.829,-7.194 21.373,-5.783 7.05,1.795 12.95,-0.391 12.512,-4.361 -0.251,-2.283 -3.106,-5.185 -6.452,-4.867 -4.574,0.434 -16.186,3.181 -16.668,-9.863 C -57.211,9.138 -48.506,6.687 -36.638,2.82 -25.254,-0.89 -8.202,-5.326 0,0"
         style="fill:#95d6f4;fill-opacity:1;fill-rule:nonzero;stroke:none"
         id="path152"
         inkscape:connector-curvature="0" /></g><g
       id="g154"
       transform="translate(428.2894,170.7764)"><path
         d="m 0,0 c -0.01,-0.008 -0.021,-0.017 -0.033,-0.023 -0.112,-0.069 -0.257,-0.034 -0.324,0.079 -2.272,3.724 -55.626,91.278 -56.105,94.225 -0.02,0.128 0.068,0.249 0.196,0.271 0.129,0.02 0.25,-0.067 0.272,-0.196 0.37,-2.285 36.818,-62.522 56.04,-94.055 C 0.106,0.202 0.085,0.075 0,0"
         style="fill:#ffffff;fill-opacity:1;fill-rule:nonzero;stroke:none"
         id="path156"
         inkscape:connector-curvature="0" /></g><g
       id="g158"
       transform="translate(386.5414,244.7969)"><path
         d="m 0,0 c -1.074,-0.941 -1.827,-1.544 -1.94,-1.635 l -0.099,-0.047 c -0.612,-0.127 -15.027,-3.096 -18.001,-2.11 -0.124,0.041 -0.191,0.176 -0.15,0.299 0.042,0.125 0.174,0.191 0.298,0.15 2.766,-0.917 16.7,1.908 17.701,2.114 0.756,0.612 10.971,8.964 11.549,14.156 0.015,0.13 0.132,0.223 0.261,0.208 0.129,-0.014 0.223,-0.131 0.208,-0.26 C 9.363,8.704 3.228,2.828 0,0"
         style="fill:#ffffff;fill-opacity:1;fill-rule:nonzero;stroke:none"
         id="path160"
         inkscape:connector-curvature="0" /></g><g
       id="g162"
       transform="translate(400.726,216.2031)"><path
         d="m 0,0 -0.08,-0.021 c -0.262,-0.07 -28.131,-5.835 -33.122,-2.914 -0.112,0.067 -0.151,0.21 -0.084,0.324 0.063,0.114 0.211,0.15 0.323,0.084 4.523,-2.648 30.465,2.403 32.683,2.943 0.947,1.28 14.75,20.031 14.95,25.284 0.006,0.131 0.115,0.233 0.245,0.228 0.131,-0.005 0.232,-0.116 0.227,-0.245 C 14.931,20.125 0.656,0.883 0.049,0.066 Z"
         style="fill:#ffffff;fill-opacity:1;fill-rule:nonzero;stroke:none"
         id="path164"
         inkscape:connector-curvature="0" /></g><g
       id="g166"
       transform="translate(421.0375,182.5811)"><path
         d="m 0,0 -0.117,-0.001 c -1.296,-0.012 -31.821,-0.276 -39.273,2.086 -0.125,0.04 -0.194,0.173 -0.154,0.297 0.039,0.124 0.172,0.192 0.296,0.153 7.151,-2.266 36.876,-2.081 39.008,-2.063 1.4,1.918 22.863,31.537 20.4,40.251 -0.036,0.126 0.041,0.256 0.163,0.292 0.125,0.035 0.256,-0.037 0.292,-0.163 C 23.21,31.668 1.017,1.381 0.071,0.096 Z"
         style="fill:#ffffff;fill-opacity:1;fill-rule:nonzero;stroke:none"
         id="path168"
         inkscape:connector-curvature="0" /></g><g
       id="g170"
       transform="translate(436.0404,347.8091)"><path
         d="m 0,0 c -2.582,0 -4.684,-2.101 -4.684,-4.684 v -169.695 c 0,-2.583 2.102,-4.684 4.684,-4.684 h 92.226 c 2.583,0 4.684,2.101 4.684,4.684 V -4.684 C 96.91,-2.101 94.809,0 92.226,0 Z"
         style="fill:#ffffff;fill-opacity:1;fill-rule:nonzero;stroke:none"
         id="path172"
         inkscape:connector-curvature="0" /></g><g
       id="g174"
       transform="translate(436.0404,347.8091)"><path
         d="m 0,0 c -2.582,0 -4.684,-2.101 -4.684,-4.684 v -169.695 c 0,-2.583 2.102,-4.684 4.684,-4.684 h 92.226 c 2.583,0 4.684,2.101 4.684,4.684 V -4.684 C 96.91,-2.101 94.809,0 92.226,0 Z M 92.226,-182.206 H 0 c -4.314,0 -7.825,3.511 -7.825,7.827 V -4.684 c 0,4.315 3.511,7.826 7.825,7.826 h 92.226 c 4.316,0 7.827,-3.511 7.827,-7.826 v -169.695 c 0,-4.316 -3.511,-7.827 -7.827,-7.827"
         style="fill:#1747b3;fill-opacity:1;fill-rule:nonzero;stroke:none"
         id="path176"
         inkscape:connector-curvature="0" /></g><path
       d="m 524.153,287.206 h -34.171 v 45.602 h 34.171 z"
       style="fill:#cfebf9;fill-opacity:1;fill-rule:nonzero;stroke:none"
       id="path178"
       inkscape:connector-curvature="0" /><g
       id="g180"
       transform="translate(503.2426,300.9375)"><path
         d="M 0,0 V -7.777 H 9.277 L 9.026,0 Z"
         style="fill:#ffc999;fill-opacity:1;fill-rule:nonzero;stroke:none"
         id="path182"
         inkscape:connector-curvature="0" /></g><g
       id="g184"
       transform="translate(512.2299,301.5869)"><path
         d="m 0,0 0.109,-1.844 c -2.428,-1.306 -4.23,-1.306 -4.23,-1.306 -2.606,-0.194 -4.866,1.448 -4.866,1.448 l 0.031,1.547 z"
         style="fill:#ff9570;fill-opacity:1;fill-rule:nonzero;stroke:none"
         id="path186"
         inkscape:connector-curvature="0" /></g><g
       id="g188"
       transform="translate(500.1332,309.9214)"><path
         d="m 0,0 c 0,-0.957 -0.775,-1.732 -1.732,-1.732 -0.956,0 -1.732,0.775 -1.732,1.732 0,0.957 0.776,1.732 1.732,1.732 C -0.775,1.732 0,0.957 0,0"
         style="fill:#ff9570;fill-opacity:1;fill-rule:nonzero;stroke:none"
         id="path190"
         inkscape:connector-curvature="0" /></g><g
       id="g192"
       transform="translate(515.2787,309.9214)"><path
         d="m 0,0 c 0,-0.957 0.776,-1.732 1.732,-1.732 0.957,0 1.733,0.775 1.733,1.732 0,0.957 -0.776,1.732 -1.733,1.732 C 0.776,1.732 0,0.957 0,0"
         style="fill:#ff9570;fill-opacity:1;fill-rule:nonzero;stroke:none"
         id="path194"
         inkscape:connector-curvature="0" /></g><g
       id="g196"
       transform="translate(516.3363,311.498)"><path
         d="m 0,0 c 0.215,-1.653 -0.144,-4.409 -0.144,-4.409 -0.981,-4.13 -4.737,-8.109 -8.867,-7.858 -3.809,0.232 -6.777,3.902 -8.034,7.622 0,0 -0.526,3.464 -0.239,4.724 V 6.614 H 0 Z"
         style="fill:#ffc999;fill-opacity:1;fill-rule:nonzero;stroke:none"
         id="path198"
         inkscape:connector-curvature="0" /></g><g
       id="g200"
       transform="translate(499.4418,307.9502)"><path
         d="m 0,0 c 0,0 -5.79,11.207 0.598,14.232 0,0 0.448,0.299 -1.121,0.971 0,0 6.574,6.238 14.494,2.316 0,0 4.706,-2.316 3.473,-5.08 0,0 3.586,-0.149 1.793,-6.574 0,0 -1.643,-4.446 -2.503,-5.304 0,0 0.449,4.818 -0.298,6.424 0,0 -0.672,3.325 -5.043,2.167 0,0 -3.175,-1.121 -6.239,0.037 0,0 -4.93,1.195 -5.043,-3.25 z"
         style="fill:#00143f;fill-opacity:1;fill-rule:nonzero;stroke:none"
         id="path202"
         inkscape:connector-curvature="0" /></g><g
       id="g204"
       transform="translate(513.3929,295.8437)"><path
         d="M 0,0 C 9.293,0 10.729,-8.638 10.729,-8.638 H -23.38 C -20.014,0.044 -11.141,0 -11.141,0 c 0,0 1.975,-2.22 5.613,-2.054 0,0 3.388,-0.116 5.398,1.894 z"
         style="fill:#013299;fill-opacity:1;fill-rule:nonzero;stroke:none"
         id="path206"
         inkscape:connector-curvature="0" /></g><path
       d="m 486.701,325.548 h -47.228 v 2.425 h 47.228 z"
       style="fill:#00143f;fill-opacity:1;fill-rule:nonzero;stroke:none"
       id="path208"
       inkscape:connector-curvature="0" /><path
       d="m 439.473,319.386 h 47.228 v 2.425 h -47.228 z"
       style="fill:#95d6f4;fill-opacity:1;fill-rule:nonzero;stroke:none"
       id="path210"
       inkscape:connector-curvature="0" /><path
       d="m 439.473,316.037 h 47.228 v 2.425 h -47.228 z"
       style="fill:#95d6f4;fill-opacity:1;fill-rule:nonzero;stroke:none"
       id="path212"
       inkscape:connector-curvature="0" /><path
       d="m 439.473,312.688 h 36.205 v 2.425 h -36.205 z"
       style="fill:#95d6f4;fill-opacity:1;fill-rule:nonzero;stroke:none"
       id="path214"
       inkscape:connector-curvature="0" /><path
       d="m 439.473,309.339 h 26.1 v 2.425 h -26.1 z"
       style="fill:#95d6f4;fill-opacity:1;fill-rule:nonzero;stroke:none"
       id="path216"
       inkscape:connector-curvature="0" /><g
       id="g218"
       transform="translate(442.9144,302.9155)"><path
         d="M 0,0 0.829,-1.395 2.685,-1.618 1.343,-2.703 1.659,-4.235 0,-3.512 l -1.66,-0.723 0.317,1.532 -1.343,1.085 1.856,0.223 z"
         style="fill:#fca927;fill-opacity:1;fill-rule:nonzero;stroke:none"
         id="path220"
         inkscape:connector-curvature="0" /></g><g
       id="g222"
       transform="translate(450.8138,302.9155)"><path
         d="M 0,0 0.829,-1.395 2.685,-1.618 1.342,-2.703 1.659,-4.235 0,-3.512 l -1.66,-0.723 0.317,1.532 -1.343,1.085 1.856,0.223 z"
         style="fill:#fca927;fill-opacity:1;fill-rule:nonzero;stroke:none"
         id="path224"
         inkscape:connector-curvature="0" /></g><g
       id="g226"
       transform="translate(458.7133,302.9155)"><path
         d="M 0,0 0.83,-1.395 2.685,-1.618 1.343,-2.703 1.659,-4.235 0,-3.512 l -1.66,-0.723 0.317,1.532 -1.343,1.085 1.856,0.223 z"
         style="fill:#fca927;fill-opacity:1;fill-rule:nonzero;stroke:none"
         id="path228"
         inkscape:connector-curvature="0" /></g><g
       id="g230"
       transform="translate(466.6127,302.9155)"><path
         d="M 0,0 0.829,-1.395 2.685,-1.618 1.343,-2.703 1.659,-4.235 0,-3.512 l -1.66,-0.723 0.317,1.532 -1.343,1.085 1.856,0.223 z"
         style="fill:#fca927;fill-opacity:1;fill-rule:nonzero;stroke:none"
         id="path232"
         inkscape:connector-curvature="0" /></g><g
       id="g234"
       transform="translate(474.5121,302.9155)"><path
         d="M 0,0 0.83,-1.395 2.686,-1.618 1.343,-2.703 1.659,-4.235 0,-3.512 l -1.66,-0.723 0.317,1.532 -1.343,1.085 1.856,0.223 z"
         style="fill:#fca927;fill-opacity:1;fill-rule:nonzero;stroke:none"
         id="path236"
         inkscape:connector-curvature="0" /></g><path
       d="m 524.153,181.167 h -34.171 v 45.603 h 34.171 z"
       style="fill:#cfebf9;fill-opacity:1;fill-rule:nonzero;stroke:none"
       id="path238"
       inkscape:connector-curvature="0" /><g
       id="g240"
       transform="translate(503.2426,194.8984)"><path
         d="M 0,0 V -7.777 H 9.277 L 9.026,0 Z"
         style="fill:#d8633f;fill-opacity:1;fill-rule:nonzero;stroke:none"
         id="path242"
         inkscape:connector-curvature="0" /></g><g
       id="g244"
       transform="translate(512.2299,195.5479)"><path
         d="m 0,0 0.109,-1.844 c -2.428,-1.306 -4.23,-1.306 -4.23,-1.306 -2.606,-0.194 -4.866,1.448 -4.866,1.448 l 0.031,1.547 z"
         style="fill:#ce4f32;fill-opacity:1;fill-rule:nonzero;stroke:none"
         id="path246"
         inkscape:connector-curvature="0" /></g><g
       id="g248"
       transform="translate(500.0814,204.3135)"><path
         d="m 0,0 c 0.311,-1.29 -0.822,-2.422 -2.111,-2.111 -0.607,0.146 -1.103,0.643 -1.249,1.249 -0.312,1.29 0.821,2.422 2.111,2.111 C -0.644,1.103 -0.146,0.605 0,0"
         style="fill:#ce4f32;fill-opacity:1;fill-rule:nonzero;stroke:none"
         id="path250"
         inkscape:connector-curvature="0" /></g><g
       id="g252"
       transform="translate(515.3314,204.3135)"><path
         d="m 0,0 c -0.312,-1.29 0.821,-2.422 2.11,-2.111 0.607,0.146 1.104,0.643 1.249,1.249 C 3.671,0.428 2.538,1.56 1.249,1.249 0.643,1.103 0.146,0.605 0,0"
         style="fill:#ce4f32;fill-opacity:1;fill-rule:nonzero;stroke:none"
         id="path254"
         inkscape:connector-curvature="0" /></g><g
       id="g256"
       transform="translate(516.3363,205.459)"><path
         d="m 0,0 c 0.215,-1.653 -0.144,-4.409 -0.144,-4.409 -0.981,-4.13 -4.737,-8.11 -8.867,-7.859 -3.809,0.233 -6.777,3.903 -8.034,7.622 0,0 -0.526,3.465 -0.239,4.725 V 6.613 H 0 Z"
         style="fill:#d8633f;fill-opacity:1;fill-rule:nonzero;stroke:none"
         id="path258"
         inkscape:connector-curvature="0" /></g><g
       id="g260"
       transform="translate(513.3929,189.8047)"><path
         d="M 0,0 C 9.293,0 10.729,-8.638 10.729,-8.638 H -23.38 C -20.014,0.044 -11.141,0 -11.141,0 c 0,0 1.975,-2.221 5.613,-2.055 0,0 3.388,-0.116 5.398,1.895 z"
         style="fill:#1747b6;fill-opacity:1;fill-rule:nonzero;stroke:none"
         id="path262"
         inkscape:connector-curvature="0" /></g><path
       d="m 486.701,219.509 h -47.228 v 2.425 h 47.228 z"
       style="fill:#00143f;fill-opacity:1;fill-rule:nonzero;stroke:none"
       id="path264"
       inkscape:connector-curvature="0" /><path
       d="m 439.473,213.347 h 47.228 v 2.426 h -47.228 z"
       style="fill:#95d6f4;fill-opacity:1;fill-rule:nonzero;stroke:none"
       id="path266"
       inkscape:connector-curvature="0" /><path
       d="m 439.473,209.998 h 23.874 v 2.425 h -23.874 z"
       style="fill:#95d6f4;fill-opacity:1;fill-rule:nonzero;stroke:none"
       id="path268"
       inkscape:connector-curvature="0" /><path
       d="m 439.473,206.648 h 36.205 v 2.426 h -36.205 z"
       style="fill:#95d6f4;fill-opacity:1;fill-rule:nonzero;stroke:none"
       id="path270"
       inkscape:connector-curvature="0" /><path
       d="m 438.876,203.3 h 11.043 v 2.425 h -11.043 z"
       style="fill:#95d6f4;fill-opacity:1;fill-rule:nonzero;stroke:none"
       id="path272"
       inkscape:connector-curvature="0" /><g
       id="g274"
       transform="translate(442.9144,196.876)"><path
         d="M 0,0 0.829,-1.394 2.685,-1.617 1.343,-2.703 1.659,-4.235 0,-3.512 l -1.66,-0.723 0.317,1.532 -1.343,1.086 1.856,0.223 z"
         style="fill:#fca927;fill-opacity:1;fill-rule:nonzero;stroke:none"
         id="path276"
         inkscape:connector-curvature="0" /></g><g
       id="g278"
       transform="translate(450.8138,196.876)"><path
         d="M 0,0 0.829,-1.394 2.685,-1.617 1.342,-2.703 1.659,-4.235 0,-3.512 l -1.66,-0.723 0.317,1.532 -1.343,1.086 1.856,0.223 z"
         style="fill:#fca927;fill-opacity:1;fill-rule:nonzero;stroke:none"
         id="path280"
         inkscape:connector-curvature="0" /></g><g
       id="g282"
       transform="translate(458.7133,196.876)"><path
         d="M 0,0 0.83,-1.394 2.685,-1.617 1.343,-2.703 1.659,-4.235 0,-3.512 l -1.66,-0.723 0.317,1.532 -1.343,1.086 1.856,0.223 z"
         style="fill:#fca927;fill-opacity:1;fill-rule:nonzero;stroke:none"
         id="path284"
         inkscape:connector-curvature="0" /></g><g
       id="g286"
       transform="translate(466.6127,196.876)"><path
         d="M 0,0 0.829,-1.394 2.685,-1.617 1.343,-2.703 1.659,-4.235 0,-3.512 l -1.66,-0.723 0.317,1.532 -1.343,1.086 1.856,0.223 z"
         style="fill:#fca927;fill-opacity:1;fill-rule:nonzero;stroke:none"
         id="path288"
         inkscape:connector-curvature="0" /></g><g
       id="g290"
       transform="translate(474.5121,196.876)"><path
         d="M 0,0 0.83,-1.394 2.686,-1.617 1.343,-2.703 1.659,-4.235 0,-3.512 l -1.66,-0.723 0.317,1.532 -1.343,1.086 1.856,0.223 z"
         style="fill:#1747b3;fill-opacity:1;fill-rule:nonzero;stroke:none"
         id="path292"
         inkscape:connector-curvature="0" /></g><path
       d="m 523.865,235.655 h -34.171 v 45.603 h 34.171 z"
       style="fill:#cfebf9;fill-opacity:1;fill-rule:nonzero;stroke:none"
       id="path294"
       inkscape:connector-curvature="0" /><path
       d="m 486.412,273.998 h -47.228 v 2.425 h 47.228 z"
       style="fill:#00143f;fill-opacity:1;fill-rule:nonzero;stroke:none"
       id="path296"
       inkscape:connector-curvature="0" /><path
       d="m 439.185,267.835 h 28.62 v 2.425 h -28.62 z"
       style="fill:#95d6f4;fill-opacity:1;fill-rule:nonzero;stroke:none"
       id="path298"
       inkscape:connector-curvature="0" /><path
       d="m 439.185,264.486 h 47.228 v 2.425 h -47.228 z"
       style="fill:#95d6f4;fill-opacity:1;fill-rule:nonzero;stroke:none"
       id="path300"
       inkscape:connector-curvature="0" /><path
       d="m 439.185,261.137 h 47.228 v 2.425 h -47.228 z"
       style="fill:#95d6f4;fill-opacity:1;fill-rule:nonzero;stroke:none"
       id="path302"
       inkscape:connector-curvature="0" /><path
       d="m 439.185,257.788 h 42.34 v 2.425 h -42.34 z"
       style="fill:#95d6f4;fill-opacity:1;fill-rule:nonzero;stroke:none"
       id="path304"
       inkscape:connector-curvature="0" /><g
       id="g306"
       transform="translate(442.6263,251.3647)"><path
         d="M 0,0 0.83,-1.394 2.686,-1.618 1.343,-2.703 1.659,-4.235 0,-3.512 l -1.659,-0.723 0.316,1.532 -1.343,1.085 1.856,0.224 z"
         style="fill:#fca927;fill-opacity:1;fill-rule:nonzero;stroke:none"
         id="path308"
         inkscape:connector-curvature="0" /></g><g
       id="g310"
       transform="translate(450.5258,251.3647)"><path
         d="M 0,0 0.83,-1.394 2.686,-1.618 1.343,-2.703 1.659,-4.235 0,-3.512 l -1.659,-0.723 0.316,1.532 -1.343,1.085 1.856,0.224 z"
         style="fill:#fca927;fill-opacity:1;fill-rule:nonzero;stroke:none"
         id="path312"
         inkscape:connector-curvature="0" /></g><g
       id="g314"
       transform="translate(458.4252,251.3647)"><path
         d="M 0,0 0.83,-1.394 2.686,-1.618 1.343,-2.703 1.659,-4.235 0,-3.512 l -1.659,-0.723 0.316,1.532 -1.343,1.085 1.856,0.224 z"
         style="fill:#fca927;fill-opacity:1;fill-rule:nonzero;stroke:none"
         id="path316"
         inkscape:connector-curvature="0" /></g><g
       id="g318"
       transform="translate(466.3246,251.3647)"><path
         d="M 0,0 0.83,-1.394 2.686,-1.618 1.343,-2.703 1.66,-4.235 0,-3.512 l -1.659,-0.723 0.316,1.532 -1.343,1.085 1.856,0.224 z"
         style="fill:#1747b3;fill-opacity:1;fill-rule:nonzero;stroke:none"
         id="path320"
         inkscape:connector-curvature="0" /></g><g
       id="g322"
       transform="translate(474.224,251.3647)"><path
         d="M 0,0 0.83,-1.394 2.686,-1.618 1.343,-2.703 1.66,-4.235 0,-3.512 l -1.659,-0.723 0.316,1.532 -1.343,1.085 1.856,0.224 z"
         style="fill:#1747b3;fill-opacity:1;fill-rule:nonzero;stroke:none"
         id="path324"
         inkscape:connector-curvature="0" /></g><g
       id="g326"
       transform="translate(504.681,273.3506)"><path
         d="m 0,0 c -6.559,0 -11.876,-6.778 -11.876,-15.139 0,-8.361 5.317,-15.138 11.876,-15.138 z"
         style="fill:#fca927;fill-opacity:1;fill-rule:nonzero;stroke:none"
         id="path328"
         inkscape:connector-curvature="0" /></g><g
       id="g330"
       transform="translate(510.4574,273.3506)"><path
         d="M 0,0 C 6.559,0 11.876,-6.778 11.876,-15.139 11.876,-23.5 6.559,-30.277 0,-30.277 Z"
         style="fill:#fca927;fill-opacity:1;fill-rule:nonzero;stroke:none"
         id="path332"
         inkscape:connector-curvature="0" /></g><g
       id="g334"
       transform="translate(511.2513,245.626)"><path
         d="M 0,0 -0.81,0.813 -0.839,3.619 H -6.658 V 0.821 l -2.629,-2.154 c 0,0 0.711,-3.082 2.984,-5.191 0.222,-0.012 2.662,0.001 2.902,0 1.24,1.134 5.156,5.069 5.156,5.069 z"
         style="fill:#ffdce0;fill-opacity:1;fill-rule:nonzero;stroke:none"
         id="path336"
         inkscape:connector-curvature="0" /></g><g
       id="g338"
       transform="translate(510.3949,250.022)"><path
         d="m 0,0 0.035,-1.287 c -1.74,-0.986 -2.99,-0.845 -2.99,-0.845 -1.752,0.017 -2.857,0.979 -2.857,0.979 l 0.009,0.765 z"
         style="fill:#fcbec7;fill-opacity:1;fill-rule:nonzero;stroke:none"
         id="path340"
         inkscape:connector-curvature="0" /></g><g
       id="g342"
       transform="translate(499.5638,259.4424)"><path
         d="m 0,0 c 0,-0.938 -0.798,-1.698 -1.782,-1.698 -0.984,0 -1.781,0.76 -1.781,1.698 0,0.938 0.797,1.698 1.781,1.698 C -0.798,1.698 0,0.938 0,0"
         style="fill:#fcbec7;fill-opacity:1;fill-rule:nonzero;stroke:none"
         id="path344"
         inkscape:connector-curvature="0" /></g><g
       id="g346"
       transform="translate(515.4945,259.4424)"><path
         d="m 0,0 c 0,-0.938 0.798,-1.698 1.782,-1.698 0.984,0 1.781,0.76 1.781,1.698 0,0.938 -0.797,1.698 -1.781,1.698 C 0.798,1.698 0,0.938 0,0"
         style="fill:#fcbec7;fill-opacity:1;fill-rule:nonzero;stroke:none"
         id="path348"
         inkscape:connector-curvature="0" /></g><g
       id="g350"
       transform="translate(516.8334,261.1802)"><path
         d="m 0,0 c 0.233,-1.679 -0.156,-4.477 -0.156,-4.477 -1.069,-4.194 -5.155,-8.234 -9.649,-7.98 -4.145,0.236 -7.374,3.962 -8.742,7.74 0,0 -0.572,3.518 -0.26,4.797 V 6.715 H 0 Z"
         style="fill:#ffdce0;fill-opacity:1;fill-rule:nonzero;stroke:none"
         id="path352"
         inkscape:connector-curvature="0" /></g><g
       id="g354"
       transform="translate(501.4125,265.0117)"><path
         d="m 0,0 h 15.874 c 0,5.449 -4.417,9.867 -9.866,9.867 C 0.56,9.867 -3.858,5.449 -3.858,0 h 1.122 L -1.97,2.223 V 0 h 0.396 l 0.357,1.039 V 0 h 0.491 L 0,2.105 Z"
         style="fill:#fec868;fill-opacity:1;fill-rule:nonzero;stroke:none"
         id="path356"
         inkscape:connector-curvature="0" /></g><g
       id="g358"
       transform="translate(513.1049,244.293)"><path
         d="M 0,0 C 9.293,0 10.729,-8.638 10.729,-8.638 H -23.38 C -20.014,0.045 -11.141,0 -11.141,0 c 0,0 1.975,-2.22 5.613,-2.054 0,0 3.388,-0.116 5.398,1.894 z"
         style="fill:#009c59;fill-opacity:1;fill-rule:nonzero;stroke:none"
         id="path360"
         inkscape:connector-curvature="0" /></g><g
       id="g362"
       transform="translate(499.0521,209.998)"><path
         d="m 0,0 h 17.284 v -4.539 c 0,0 5.009,12.088 -9.269,12.088 0,0 -12.355,0.455 -8.015,-12.009 z"
         style="fill:#2e2829;fill-opacity:1;fill-rule:nonzero;stroke:none"
         id="path364"
         inkscape:connector-curvature="0" /></g><g
       id="g366"
       transform="translate(499.3959,212.0723)"><path
         d="m 0,0 c 0,-0.703 -0.57,-1.274 -1.274,-1.274 -0.705,0 -1.275,0.571 -1.275,1.274 0,0.704 0.57,1.274 1.275,1.274 C -0.57,1.274 0,0.704 0,0"
         style="fill:#2e2829;fill-opacity:1;fill-rule:nonzero;stroke:none"
         id="path368"
         inkscape:connector-curvature="0" /></g><g
       id="g370"
       transform="translate(502.2279,215.7725)"><path
         d="m 0,0 c 0,-0.704 -0.57,-1.274 -1.274,-1.274 -0.704,0 -1.275,0.57 -1.275,1.274 0,0.703 0.571,1.274 1.275,1.274 C -0.57,1.274 0,0.703 0,0"
         style="fill:#2e2829;fill-opacity:1;fill-rule:nonzero;stroke:none"
         id="path372"
         inkscape:connector-curvature="0" /></g><g
       id="g374"
       transform="translate(508.5443,218.0801)"><path
         d="m 0,0 c 0,-0.704 -0.571,-1.274 -1.274,-1.274 -0.705,0 -1.275,0.57 -1.275,1.274 0,0.704 0.57,1.274 1.275,1.274 C -0.571,1.274 0,0.704 0,0"
         style="fill:#2e2829;fill-opacity:1;fill-rule:nonzero;stroke:none"
         id="path376"
         inkscape:connector-curvature="0" /></g><g
       id="g378"
       transform="translate(504.6918,217.3594)"><path
         d="m 0,0 c 0,-0.397 -0.322,-0.72 -0.72,-0.72 -0.398,0 -0.72,0.323 -0.72,0.72 0,0.398 0.322,0.721 0.72,0.721 C -0.322,0.721 0,0.398 0,0"
         style="fill:#2e2829;fill-opacity:1;fill-rule:nonzero;stroke:none"
         id="path380"
         inkscape:connector-curvature="0" /></g><g
       id="g382"
       transform="translate(511.1957,217.3594)"><path
         d="m 0,0 c 0,-0.397 -0.322,-0.72 -0.72,-0.72 -0.398,0 -0.72,0.323 -0.72,0.72 0,0.398 0.322,0.721 0.72,0.721 C -0.322,0.721 0,0.398 0,0"
         style="fill:#2e2829;fill-opacity:1;fill-rule:nonzero;stroke:none"
         id="path384"
         inkscape:connector-curvature="0" /></g><g
       id="g386"
       transform="translate(516.4574,214.6318)"><path
         d="m 0,0 c 0,-0.397 -0.323,-0.72 -0.721,-0.72 -0.397,0 -0.719,0.323 -0.719,0.72 0,0.398 0.322,0.721 0.719,0.721 C -0.323,0.721 0,0.398 0,0"
         style="fill:#2e2829;fill-opacity:1;fill-rule:nonzero;stroke:none"
         id="path388"
         inkscape:connector-curvature="0" /></g><g
       id="g390"
       transform="translate(499.6791,214.0674)"><path
         d="m 0,0 c 0,-0.397 -0.322,-0.721 -0.72,-0.721 -0.398,0 -0.72,0.324 -0.72,0.721 0,0.397 0.322,0.721 0.72,0.721 C -0.322,0.721 0,0.397 0,0"
         style="fill:#2e2829;fill-opacity:1;fill-rule:nonzero;stroke:none"
         id="path392"
         inkscape:connector-curvature="0" /></g><g
       id="g394"
       transform="translate(515.2787,216.4912)"><path
         d="m 0,0 c 0,-0.704 -0.57,-1.274 -1.274,-1.274 -0.704,0 -1.274,0.57 -1.274,1.274 0,0.703 0.57,1.274 1.274,1.274 C -0.57,1.274 0,0.703 0,0"
         style="fill:#2e2829;fill-opacity:1;fill-rule:nonzero;stroke:none"
         id="path396"
         inkscape:connector-curvature="0" /></g><g
       id="g398"
       transform="translate(518.2855,212.0723)"><path
         d="m 0,0 c 0,-0.704 -0.57,-1.274 -1.274,-1.274 -0.705,0 -1.275,0.57 -1.275,1.274 0,0.704 0.57,1.274 1.275,1.274 C -0.57,1.274 0,0.704 0,0"
         style="fill:#2e2829;fill-opacity:1;fill-rule:nonzero;stroke:none"
         id="path400"
         inkscape:connector-curvature="0" /></g><g
       id="g410"
       transform="translate(600.7894,133.2754)"><path
         d="m 0,0 -0.181,-3.989 -3.813,0.096 v 4.657 z"
         style="fill:#fcbec7;fill-opacity:1;fill-rule:nonzero;stroke:none"
         id="path412"
         inkscape:connector-curvature="0" /></g><g
       id="g414"
       transform="translate(596.6234,130.7734)"><path
         d="M 0,0 -0.795,-2.05 -16.262,-4.614 -16.33,-6.139 -16.382,-6.746 5.448,-6.443 5.422,-5.874 4.28,0.128 Z"
         style="fill:#00143f;fill-opacity:1;fill-rule:nonzero;stroke:none"
         id="path416"
         inkscape:connector-curvature="0" /></g><g
       id="g418"
       transform="translate(570.1898,133.2754)"><path
         d="m 0,0 -0.442,-3.982 -3.552,0.089 0.381,4.583 z"
         style="fill:#fcbec7;fill-opacity:1;fill-rule:nonzero;stroke:none"
         id="path420"
         inkscape:connector-curvature="0" /></g><g
       id="g422"
       transform="translate(566.1342,130.8018)"><path
         d="M 0,0 -0.883,-2.013 -16.446,-3.9 -16.582,-5.421 -16.66,-6.025 5.163,-6.675 5.161,-6.104 4.282,-0.059 Z"
         style="fill:#00143f;fill-opacity:1;fill-rule:nonzero;stroke:none"
         id="path424"
         inkscape:connector-curvature="0" /></g><g
       id="g426"
       transform="translate(597.6,223.3818)"><path
         d="m 0,0 -18.228,-50.59 -9.107,-40.069 -4.054,0.014 4.252,41.026 6.548,50.319 z"
         style="fill:#021242;fill-opacity:1;fill-rule:nonzero;stroke:none"
         id="path428"
         inkscape:connector-curvature="0" /></g><g
       id="g430"
       transform="translate(593.5082,291.8101)"><path
         d="M 0,0 0.048,-12.083 -9.9,-15.992 v 13.959 z"
         style="fill:#ffdcdc;fill-opacity:1;fill-rule:nonzero;stroke:none"
         id="path432"
         inkscape:connector-curvature="0" /></g><g
       id="g434"
       transform="translate(592.6293,289.2661)"><path
         d="m 0,0 c -2.813,-1.688 -5.669,-0.878 -8.426,-2.658 -0.189,-0.123 -0.378,-0.254 -0.566,-0.387 l -0.029,-2.131 c 0.199,0.141 0.373,0.332 0.599,0.41 3.079,1.074 5.652,1.783 8.467,3.471 0,0 0.333,0.222 0.847,0.666 L 0.886,0.699 C 0.349,0.23 0,0 0,0"
         style="fill:#fcbec7;fill-opacity:1;fill-rule:nonzero;stroke:none"
         id="path436"
         inkscape:connector-curvature="0" /></g><g
       id="g438"
       transform="translate(582.8246,313.7983)"><path
         d="M 0,0 -1.621,-1.109 C -1.91,-2.214 -2.2,-3.318 -2.49,-4.422 c -1.726,-6.575 -2.489,-13.518 -2.989,-20.285 -0.064,-0.868 -0.287,-1.777 -0.15,-2.646 0.139,-0.877 0.667,-1.631 1.598,-1.637 1.831,-0.011 3.924,1.064 5.652,1.593 2.004,0.612 4.019,1.19 6.025,1.795 0,0 5.903,2.661 9.136,10.866 z"
         style="fill:#ffdcdc;fill-opacity:1;fill-rule:nonzero;stroke:none"
         id="path440"
         inkscape:connector-curvature="0" /></g><g
       id="g442"
       transform="translate(591.4105,288.5527)"><path
         d="m 0,0 -0.108,2.509 c 0.001,1.17 0.153,2.334 0.363,3.483 0.105,0.576 0.225,1.151 0.35,1.723 0.144,0.653 0.111,0.682 -0.379,1.122 -1.299,1.164 -2.939,2.22 -3.147,4.036 -0.109,0.948 0.4,2.305 0.008,3.175 -0.363,0.807 -1.191,1.322 -2.047,1.55 -0.854,0.229 -1.752,0.215 -2.636,0.248 -2.497,0.094 -5.13,0.648 -6.931,2.38 0.419,-0.072 0.859,-0.011 1.243,0.171 -0.439,0.306 -0.772,0.76 -0.931,1.27 0.546,-0.334 1.341,-0.163 1.7,0.366 -0.251,0.301 -0.427,0.664 -0.511,1.047 1.349,0.9 2.741,1.819 4.328,2.156 2.003,0.426 4.079,-0.125 6.011,-0.804 C 0.756,23.221 4.14,21.52 6.546,18.775 8.896,16.096 8.852,11.333 7.654,7.822 6.493,4.418 5.5,2.633 2.425,0.831 2.292,0.753 0.014,-0.312 0,0"
         style="fill:#013299;fill-opacity:1;fill-rule:nonzero;stroke:none"
         id="path444"
         inkscape:connector-curvature="0" /></g><g
       id="g446"
       transform="translate(591.6185,298.1445)"><path
         d="m 0,0 c 1.434,0.664 2.243,-2.188 1.699,-3.671 -0.545,-1.483 -2.188,-2.244 -3.672,-1.699 0,0 1.789,5.286 1.973,5.37"
         style="fill:#fcbec7;fill-opacity:1;fill-rule:nonzero;stroke:none"
         id="path448"
         inkscape:connector-curvature="0" /></g><g
       id="g450"
       transform="translate(590.4095,299.3721)"><path
         d="m 0,0 c 0,0 -0.345,-4.625 -1.788,-5.324 0,0 3.535,-0.133 4.292,4.033 z"
         style="fill:#013299;fill-opacity:1;fill-rule:nonzero;stroke:none"
         id="path452"
         inkscape:connector-curvature="0" /></g><g
       id="g454"
       transform="translate(601.2113,132.6689)"><path
         d="M 0,0 -1.35,32.366 0,89.364 -18.344,91.984 -14.734,64.519 -9.172,29.39 -4.56,0 Z"
         style="fill:#011c5e;fill-opacity:1;fill-rule:nonzero;stroke:none"
         id="path456"
         inkscape:connector-curvature="0" /></g><g
       id="g458"
       transform="translate(582.7133,275.5742)"><path
         d="m 0,0 -4.671,-13.235 c -0.22,-0.621 -0.35,-1.27 -0.386,-1.927 l -2.411,-37.423 18.311,-1.19 8.636,-0.361 -0.251,24.832 4.358,23.307 -12.333,11.554 z"
         style="fill:#fec868;fill-opacity:1;fill-rule:nonzero;stroke:none"
         id="path460"
         inkscape:connector-curvature="0" /></g><g
       id="g462"
       transform="translate(615.5131,243.7178)"><path
         d="m 0,0 c -1.185,3.433 -2.37,6.864 -3.555,10.296 -1.697,4.914 -3.399,9.827 -5.088,14.743 -0.248,0.722 -1.033,1.255 -1.581,1.77 l -2.039,1.919 c -0.9,0.847 -1.795,1.701 -2.702,2.542 0.003,-0.003 0.003,-0.012 0.005,-0.016 -0.002,0.002 -0.005,0.005 -0.007,0.007 0.045,-0.037 0.002,-0.215 -0.089,-0.463 -0.276,-0.755 -0.992,-2.155 -1.063,-2.316 -0.536,-1.215 -1.082,-2.425 -1.613,-3.642 -0.337,-0.771 -0.775,-1.584 -1.067,-2.407 -0.098,-0.276 -0.18,-0.553 -0.236,-0.83 -0.232,-1.14 0.584,-1.849 1.125,-2.76 0.693,-1.168 1.385,-2.337 2.076,-3.507 0.487,-0.825 0.975,-1.65 1.462,-2.475 h 0.007 c 0.87,-1.472 1.739,-2.945 2.61,-4.418 1.946,-3.292 3.894,-6.583 5.841,-9.874 0.036,-0.062 0.073,-0.124 0.109,-0.185 l 1.914,-7.813 5.394,-16.7 4.057,1.217 C 4.436,-19.487 0,0 0,0"
         style="fill:#fca927;fill-opacity:1;fill-rule:nonzero;stroke:none"
         id="path464"
         inkscape:connector-curvature="0" /></g><g
       id="g466"
       transform="translate(622.4838,214.751)"><path
         d="M 0,0 C -0.055,0.406 -0.298,0.773 -0.439,1.153 -0.719,1.901 -0.998,2.65 -1.277,3.398 -1.314,3.583 -1.36,3.81 -1.411,4.055 L -5.468,2.838 -5.414,2.673 C -5.443,2.628 -5.478,2.587 -5.506,2.542 -6.354,1.199 -6.83,-0.487 -6.492,-2.08 c 0.153,-0.728 0.34,-1.526 0.728,-2.169 0.134,-0.221 0.401,-0.682 0.682,-0.731 0.228,-0.041 0.479,0.188 0.648,0.309 0.077,0.054 -0.242,1.145 -0.278,1.31 -0.067,0.31 -0.218,0.688 -0.149,1.011 0.065,0.311 0.271,0.748 0.543,0.93 0.747,0.499 0.81,-1.114 0.876,-1.491 0.282,-1.65 0.081,-3.483 -0.531,-5.042 -0.173,-0.443 -0.565,-0.836 -0.673,-1.295 -0.034,-0.142 -0.084,-0.099 0.016,-0.232 0.31,-0.416 0.773,-0.17 1.067,0.063 0.596,0.475 1.121,1.039 1.549,1.67 0.528,0.776 1.043,1.726 1.258,2.645 0.293,1.249 0.362,2.548 0.611,3.808 C -0.062,-0.881 0.058,-0.424 0,0"
         style="fill:#fcbec7;fill-opacity:1;fill-rule:nonzero;stroke:none"
         id="path468"
         inkscape:connector-curvature="0" /></g><g
       id="g470"
       transform="translate(582.7133,275.5742)"><path
         d="M 0,0 -9.495,5.003 -9.534,4.985 c -1.427,0.861 -2.853,1.721 -4.287,2.569 -7.568,4.477 -15.235,8.787 -22.993,12.925 -0.772,0.412 -1.556,0.83 -2.185,1.438 -0.081,0.079 -0.154,0.163 -0.23,0.244 l -1.554,-3.831 c 0.142,-0.093 0.284,-0.188 0.424,-0.285 7.882,-5.456 16.223,-11.954 24.106,-17.411 l 12.459,-11.542 z"
         style="fill:#fca927;fill-opacity:1;fill-rule:nonzero;stroke:none"
         id="path472"
         inkscape:connector-curvature="0" /></g><g
       id="g474"
       transform="translate(540.3773,300.75)"><path
         d="m 0,0 c -0.706,0.635 -1.106,0.912 -1.875,1.531 -0.682,0.55 -1.344,1.141 -2.484,1.787 -1.66,0.939 -3.379,1.724 -5.21,2.301 -0.186,0.059 -0.434,0.182 -0.634,0.119 -0.466,-0.147 -0.249,-0.909 -0.051,-1.181 0.25,-0.341 0.634,-0.553 0.998,-0.769 0.779,-0.462 1.521,-0.99 2.212,-1.576 0.492,-0.416 1.351,-1.016 1.633,-1.597 0.299,-0.614 0.063,-1.558 0.215,-2.242 0.277,-1.258 1.017,-2.432 2.02,-3.268 0.511,-0.425 1.09,-0.769 1.712,-1.003 0.698,-0.265 1.446,-0.263 2.148,-0.503 0.308,-0.106 0.593,-0.267 0.869,-0.445 l 1.553,3.831 C 1.999,-1.839 1.23,-1.107 0,0"
         style="fill:#ffc5c5;fill-opacity:1;fill-rule:nonzero;stroke:none"
         id="path476"
         inkscape:connector-curvature="0" /></g><g
       id="g478"
       transform="translate(582.7133,275.5742)"><path
         d="M 0,0 3.487,-3.53 13.725,3.242 11.253,5.557 Z"
         style="fill:#fca927;fill-opacity:1;fill-rule:nonzero;stroke:none"
         id="path480"
         inkscape:connector-curvature="0" /></g><g
       id="g482"
       transform="translate(316.8763,186.2764)"><path
         d="m 0,0 c -0.362,0 -0.656,-0.293 -0.656,-0.656 v -3.145 c 0,-0.362 0.294,-0.656 0.656,-0.656 H 150.701 V 0 Z"
         style="fill:#011c5e;fill-opacity:1;fill-rule:nonzero;stroke:none"
         id="path484"
         inkscape:connector-curvature="0" /></g><g
       id="g486"
       transform="translate(417.1459,222.0811)"><path
         d="m 0,0 h -48.287 c -2.207,0 -3.996,-1.789 -3.996,-3.996 l 1.641,-31.809 H 2.354 L 3.996,-3.996 C 3.996,-1.789 2.207,0 0,0"
         style="fill:#ffffff;fill-opacity:1;fill-rule:nonzero;stroke:none"
         id="path488"
         inkscape:connector-curvature="0" /></g><g
       id="g490"
       transform="translate(396.0131,208.0107)"><path
         d="m 0,0 c 0,-1.663 -1.348,-3.011 -3.011,-3.011 -1.663,0 -3.01,1.348 -3.01,3.011 0,1.663 1.347,3.012 3.01,3.012 C -1.348,3.012 0,1.663 0,0"
         style="fill:#1747b6;fill-opacity:1;fill-rule:nonzero;stroke:none"
         id="path492"
         inkscape:connector-curvature="0" /></g><g
       id="g494"><g
         id="g496" /><g
         id="g508"><g
           clip-path="url(#clipPath500)"
           id="g506"
           style="opacity:0.27999902"><g
             transform="translate(364.8519,217.918)"
             id="g504"><path
               d="m 0,0 1.643,-31.808 h 52.995 l 0.025,0.498 C 35.813,-20.685 14.22,-5.698 1.708,3.27 0.678,2.547 0,1.354 0,0"
               style="fill:#d4d5d6;fill-opacity:1;fill-rule:nonzero;stroke:none"
               id="path502"
               inkscape:connector-curvature="0" /></g></g></g></g><path
       d="m 335.877,123.417 h -4.875 v 58.5 h 4.875 z"
       style="fill:#021242;fill-opacity:1;fill-rule:nonzero;stroke:none"
       id="path510"
       inkscape:connector-curvature="0" /><path
       d="m 446.377,123.417 h -4.875 v 58.5 h 4.875 z"
       style="fill:#021242;fill-opacity:1;fill-rule:nonzero;stroke:none"
       id="path512"
       inkscape:connector-curvature="0" /><path
       d="m 359.975,194.487 h -27.907 v -0.485 h 27.907 z"
       style="fill:#ffffff;fill-opacity:1;fill-rule:nonzero;stroke:none"
       id="path514"
       inkscape:connector-curvature="0" /><path
       d="m 360.066,194.002 h -27.998 v -0.485 h 27.998 z"
       style="fill:#ffffff;fill-opacity:1;fill-rule:nonzero;stroke:none"
       id="path516"
       inkscape:connector-curvature="0" /><path
       d="m 360.154,193.517 h -28.086 v -0.485 h 28.086 z"
       style="fill:#ffcf9f;fill-opacity:1;fill-rule:nonzero;stroke:none"
       id="path518"
       inkscape:connector-curvature="0" /><path
       d="m 360.066,193.031 h -27.998 v -0.484 h 27.998 z"
       style="fill:#ffffff;fill-opacity:1;fill-rule:nonzero;stroke:none"
       id="path520"
       inkscape:connector-curvature="0" /><path
       d="m 359.975,192.547 h -27.907 v -0.485 h 27.907 z"
       style="fill:#ffffff;fill-opacity:1;fill-rule:nonzero;stroke:none"
       id="path522"
       inkscape:connector-curvature="0" /><path
       d="m 360.154,192.062 h -28.086 v -0.485 h 28.086 z"
       style="fill:#ffcf9f;fill-opacity:1;fill-rule:nonzero;stroke:none"
       id="path524"
       inkscape:connector-curvature="0" /><path
       d="m 360.154,191.576 h -28.086 v -0.485 h 28.086 z"
       style="fill:#ffcf9f;fill-opacity:1;fill-rule:nonzero;stroke:none"
       id="path526"
       inkscape:connector-curvature="0" /><path
       d="m 359.975,191.091 h -27.907 v -0.485 h 27.907 z"
       style="fill:#ffffff;fill-opacity:1;fill-rule:nonzero;stroke:none"
       id="path528"
       inkscape:connector-curvature="0" /><path
       d="m 360.066,190.605 h -27.998 v -0.484 h 27.998 z"
       style="fill:#ffffff;fill-opacity:1;fill-rule:nonzero;stroke:none"
       id="path530"
       inkscape:connector-curvature="0" /><path
       d="m 360.066,190.121 h -27.998 v -0.485 h 27.998 z"
       style="fill:#ffcf9f;fill-opacity:1;fill-rule:nonzero;stroke:none"
       id="path532"
       inkscape:connector-curvature="0" /><path
       d="m 359.975,189.636 h -27.907 v -0.485 h 27.907 z"
       style="fill:#ffffff;fill-opacity:1;fill-rule:nonzero;stroke:none"
       id="path534"
       inkscape:connector-curvature="0" /><path
       d="m 359.975,189.15 h -27.907 v -0.485 h 27.907 z"
       style="fill:#ffffff;fill-opacity:1;fill-rule:nonzero;stroke:none"
       id="path536"
       inkscape:connector-curvature="0" /><path
       d="m 359.871,188.665 h -27.804 v -0.485 h 27.804 z"
       style="fill:#ffcf9f;fill-opacity:1;fill-rule:nonzero;stroke:none"
       id="path538"
       inkscape:connector-curvature="0" /><path
       d="m 359.871,188.18 h -27.804 v -0.484 h 27.804 z"
       style="fill:#ffffff;fill-opacity:1;fill-rule:nonzero;stroke:none"
       id="path540"
       inkscape:connector-curvature="0" /><path
       d="m 359.975,187.695 h -27.907 v -0.485 h 27.907 z"
       style="fill:#ffffff;fill-opacity:1;fill-rule:nonzero;stroke:none"
       id="path542"
       inkscape:connector-curvature="0" /><path
       d="m 359.975,187.21 h -27.907 v -0.485 h 27.907 z"
       style="fill:#f5e2d5;fill-opacity:1;fill-rule:nonzero;stroke:none"
       id="path544"
       inkscape:connector-curvature="0" /><g
       id="g546"><g
         id="g548" /><g
         id="g560"><g
           clip-path="url(#clipPath552)"
           id="g558"
           style="opacity:0.28999299"><g
             transform="translate(332.9476,194.3174)"
             id="g556"><path
               d="M 0,0 C 0,0 6.617,-6.742 22.667,-7.208 H 1.083 c 0,0 -0.593,-0.031 -1.083,0.17 C -0.491,-6.837 0,0 0,0"
               style="fill:#cccccc;fill-opacity:1;fill-rule:nonzero;stroke:none"
               id="path554"
               inkscape:connector-curvature="0" /></g></g></g></g><g
       id="g562"
       transform="translate(332.9476,194.3174)"><path
         d="m 0,0 c 0,0 2.224,-3.179 0,-7.038 0,0 -4.771,0.254 -2.028,6.261 0,0 1.533,1.746 2.028,0.777"
         style="fill:#00143f;fill-opacity:1;fill-rule:nonzero;stroke:none"
         id="path564"
         inkscape:connector-curvature="0" /></g><g
       id="g566"
       transform="translate(360.889,186.1299)"><path
         d="m 0,0 h -26.858 c -2.49,0 -4.516,2.025 -4.516,4.516 v 0.305 c 0,2.49 2.026,4.516 4.516,4.516 H 0 c 0.271,0 0.489,-0.22 0.489,-0.49 C 0.489,8.576 0.271,8.357 0,8.357 h -26.858 c -1.95,0 -3.537,-1.586 -3.537,-3.536 V 4.516 c 0,-1.951 1.587,-3.537 3.537,-3.537 L 0,0.979 C 0.271,0.979 0.489,0.76 0.489,0.489 0.489,0.219 0.271,0 0,0"
         style="fill:#ff4b4f;fill-opacity:1;fill-rule:nonzero;stroke:none"
         id="path568"
         inkscape:connector-curvature="0" /></g><path
       d="m 356.303,202.735 h -24.035 v -0.418 h 24.035 z"
       style="fill:#ffffff;fill-opacity:1;fill-rule:nonzero;stroke:none"
       id="path570"
       inkscape:connector-curvature="0" /><path
       d="m 356.381,202.317 h -24.113 v -0.418 h 24.113 z"
       style="fill:#ffffff;fill-opacity:1;fill-rule:nonzero;stroke:none"
       id="path572"
       inkscape:connector-curvature="0" /><path
       d="m 356.457,201.899 h -24.189 v -0.418 h 24.189 z"
       style="fill:#ffcf9f;fill-opacity:1;fill-rule:nonzero;stroke:none"
       id="path574"
       inkscape:connector-curvature="0" /><path
       d="m 356.381,201.481 h -24.113 v -0.418 h 24.113 z"
       style="fill:#ffffff;fill-opacity:1;fill-rule:nonzero;stroke:none"
       id="path576"
       inkscape:connector-curvature="0" /><path
       d="m 356.303,201.063 h -24.035 v -0.418 h 24.035 z"
       style="fill:#ffffff;fill-opacity:1;fill-rule:nonzero;stroke:none"
       id="path578"
       inkscape:connector-curvature="0" /><path
       d="m 356.457,200.646 h -24.189 v -0.418 h 24.189 z"
       style="fill:#ffcf9f;fill-opacity:1;fill-rule:nonzero;stroke:none"
       id="path580"
       inkscape:connector-curvature="0" /><path
       d="m 356.457,200.228 h -24.189 v -0.418 h 24.189 z"
       style="fill:#ffffff;fill-opacity:1;fill-rule:nonzero;stroke:none"
       id="path582"
       inkscape:connector-curvature="0" /><path
       d="m 356.303,199.81 h -24.035 v -0.418 h 24.035 z"
       style="fill:#ffffff;fill-opacity:1;fill-rule:nonzero;stroke:none"
       id="path584"
       inkscape:connector-curvature="0" /><path
       d="m 356.381,199.392 h -24.113 v -0.417 h 24.113 z"
       style="fill:#ffcf9f;fill-opacity:1;fill-rule:nonzero;stroke:none"
       id="path586"
       inkscape:connector-curvature="0" /><path
       d="m 356.381,198.975 h -24.113 v -0.418 h 24.113 z"
       style="fill:#ffcf9f;fill-opacity:1;fill-rule:nonzero;stroke:none"
       id="path588"
       inkscape:connector-curvature="0" /><path
       d="m 356.303,198.557 h -24.035 v -0.418 h 24.035 z"
       style="fill:#ffffff;fill-opacity:1;fill-rule:nonzero;stroke:none"
       id="path590"
       inkscape:connector-curvature="0" /><path
       d="m 356.303,198.139 h -24.035 v -0.418 h 24.035 z"
       style="fill:#ffffff;fill-opacity:1;fill-rule:nonzero;stroke:none"
       id="path592"
       inkscape:connector-curvature="0" /><path
       d="m 356.214,197.721 h -23.946 v -0.418 h 23.946 z"
       style="fill:#ffcf9f;fill-opacity:1;fill-rule:nonzero;stroke:none"
       id="path594"
       inkscape:connector-curvature="0" /><path
       d="m 356.214,197.303 h -23.946 v -0.418 h 23.946 z"
       style="fill:#ffffff;fill-opacity:1;fill-rule:nonzero;stroke:none"
       id="path596"
       inkscape:connector-curvature="0" /><path
       d="m 356.303,196.885 h -24.035 v -0.418 h 24.035 z"
       style="fill:#ffffff;fill-opacity:1;fill-rule:nonzero;stroke:none"
       id="path598"
       inkscape:connector-curvature="0" /><path
       d="m 356.303,196.467 h -24.035 v -0.418 h 24.035 z"
       style="fill:#f5e2d5;fill-opacity:1;fill-rule:nonzero;stroke:none"
       id="path600"
       inkscape:connector-curvature="0" /><g
       id="g602"><g
         id="g604" /><g
         id="g616"><g
           clip-path="url(#clipPath608)"
           id="g614"
           style="opacity:0.27999902"><g
             transform="translate(333.0941,203.1973)"
             id="g612"><path
               d="M 0,0 C 0,0 6.341,-6.46 21.719,-6.906 H 1.038 c 0,0 -0.568,-0.03 -1.038,0.163 C -0.471,-6.55 0,0 0,0"
               style="fill:#cccccc;fill-opacity:1;fill-rule:nonzero;stroke:none"
               id="path610"
               inkscape:connector-curvature="0" /></g></g></g></g><g
       id="g618"
       transform="translate(333.0248,202.5879)"><path
         d="m 0,0 c 0,0 1.915,-2.737 0,-6.062 0,0 -4.108,0.22 -1.746,5.394 0,0 1.32,1.503 1.746,0.668"
         style="fill:#00143f;fill-opacity:1;fill-rule:nonzero;stroke:none"
         id="path620"
         inkscape:connector-curvature="0" /></g><g
       id="g622"
       transform="translate(357.0902,195.5371)"><path
         d="m 0,0 h -23.132 c -2.144,0 -3.889,1.744 -3.889,3.889 v 0.263 c 0,2.145 1.745,3.889 3.889,3.889 H 0 C 0.233,8.041 0.422,7.853 0.422,7.619 0.422,7.387 0.233,7.198 0,7.198 h -23.132 c -1.68,0 -3.046,-1.367 -3.046,-3.046 V 3.889 c 0,-1.68 1.366,-3.046 3.046,-3.046 H 0 C 0.233,0.843 0.422,0.654 0.422,0.422 0.422,0.188 0.233,0 0,0"
         style="fill:#00143f;fill-opacity:1;fill-rule:nonzero;stroke:none"
         id="path624"
         inkscape:connector-curvature="0" /></g><path
       d="m 362.64,210.906 h -24.035 v -0.418 h 24.035 z"
       style="fill:#ffffff;fill-opacity:1;fill-rule:nonzero;stroke:none"
       id="path626"
       inkscape:connector-curvature="0" /><path
       d="m 362.718,210.488 h -24.113 v -0.418 h 24.113 z"
       style="fill:#ffffff;fill-opacity:1;fill-rule:nonzero;stroke:none"
       id="path628"
       inkscape:connector-curvature="0" /><path
       d="m 362.794,210.07 h -24.189 v -0.418 h 24.189 z"
       style="fill:#ffcf9f;fill-opacity:1;fill-rule:nonzero;stroke:none"
       id="path630"
       inkscape:connector-curvature="0" /><path
       d="m 362.718,209.652 h -24.113 v -0.417 h 24.113 z"
       style="fill:#ffffff;fill-opacity:1;fill-rule:nonzero;stroke:none"
       id="path632"
       inkscape:connector-curvature="0" /><path
       d="m 362.64,209.235 h -24.035 v -0.418 h 24.035 z"
       style="fill:#ffffff;fill-opacity:1;fill-rule:nonzero;stroke:none"
       id="path634"
       inkscape:connector-curvature="0" /><path
       d="m 362.794,208.817 h -24.189 v -0.418 h 24.189 z"
       style="fill:#ffcf9f;fill-opacity:1;fill-rule:nonzero;stroke:none"
       id="path636"
       inkscape:connector-curvature="0" /><path
       d="m 362.794,208.399 h -24.189 v -0.418 h 24.189 z"
       style="fill:#ffffff;fill-opacity:1;fill-rule:nonzero;stroke:none"
       id="path638"
       inkscape:connector-curvature="0" /><path
       d="m 362.64,207.981 h -24.035 v -0.418 h 24.035 z"
       style="fill:#ffffff;fill-opacity:1;fill-rule:nonzero;stroke:none"
       id="path640"
       inkscape:connector-curvature="0" /><path
       d="m 362.718,207.563 h -24.113 v -0.418 h 24.113 z"
       style="fill:#ffcf9f;fill-opacity:1;fill-rule:nonzero;stroke:none"
       id="path642"
       inkscape:connector-curvature="0" /><path
       d="m 362.718,207.146 h -24.113 v -0.418 h 24.113 z"
       style="fill:#ffcf9f;fill-opacity:1;fill-rule:nonzero;stroke:none"
       id="path644"
       inkscape:connector-curvature="0" /><path
       d="M 362.64,206.728 H 338.605 V 206.31 H 362.64 Z"
       style="fill:#ffffff;fill-opacity:1;fill-rule:nonzero;stroke:none"
       id="path646"
       inkscape:connector-curvature="0" /><path
       d="m 362.64,206.31 h -24.035 v -0.417 h 24.035 z"
       style="fill:#ffffff;fill-opacity:1;fill-rule:nonzero;stroke:none"
       id="path648"
       inkscape:connector-curvature="0" /><path
       d="m 362.551,205.893 h -23.946 v -0.418 h 23.946 z"
       style="fill:#ffcf9f;fill-opacity:1;fill-rule:nonzero;stroke:none"
       id="path650"
       inkscape:connector-curvature="0" /><path
       d="m 362.551,205.475 h -23.946 v -0.418 h 23.946 z"
       style="fill:#ffffff;fill-opacity:1;fill-rule:nonzero;stroke:none"
       id="path652"
       inkscape:connector-curvature="0" /><path
       d="m 362.64,205.057 h -24.035 v -0.418 h 24.035 z"
       style="fill:#ffffff;fill-opacity:1;fill-rule:nonzero;stroke:none"
       id="path654"
       inkscape:connector-curvature="0" /><path
       d="m 362.64,204.639 h -24.035 v -0.418 h 24.035 z"
       style="fill:#f5e2d5;fill-opacity:1;fill-rule:nonzero;stroke:none"
       id="path656"
       inkscape:connector-curvature="0" /><g
       id="g658"><g
         id="g660" /><g
         id="g672"><g
           clip-path="url(#clipPath664)"
           id="g670"
           style="opacity:0.27999902"><g
             transform="translate(339.431,211.3691)"
             id="g668"><path
               d="M 0,0 C 0,0 6.341,-6.46 21.719,-6.906 H 1.038 c 0,0 -0.567,-0.031 -1.038,0.163 C -0.471,-6.551 0,0 0,0"
               style="fill:#cccccc;fill-opacity:1;fill-rule:nonzero;stroke:none"
               id="path666"
               inkscape:connector-curvature="0" /></g></g></g></g><g
       id="g674"
       transform="translate(339.3617,210.7598)"><path
         d="m 0,0 c 0,0 1.916,-2.737 0,-6.062 0,0 -4.108,0.219 -1.746,5.393 0,0 1.32,1.504 1.746,0.669"
         style="fill:#00143f;fill-opacity:1;fill-rule:nonzero;stroke:none"
         id="path676"
         inkscape:connector-curvature="0" /></g><g
       id="g678"
       transform="translate(363.4271,203.708)"><path
         d="m 0,0 h -23.132 c -2.144,0 -3.889,1.745 -3.889,3.89 v 0.262 c 0,2.145 1.745,3.89 3.889,3.89 H 0 C 0.233,8.042 0.422,7.854 0.422,7.62 0.422,7.387 0.233,7.198 0,7.198 h -23.132 c -1.679,0 -3.045,-1.366 -3.045,-3.046 V 3.89 c 0,-1.68 1.366,-3.046 3.045,-3.046 L 0,0.844 C 0.233,0.844 0.422,0.655 0.422,0.422 0.422,0.189 0.233,0 0,0"
         style="fill:#ff8800;fill-opacity:1;fill-rule:nonzero;stroke:none"
         id="path680"
         inkscape:connector-curvature="0" /></g><g
       id="g682"
       transform="translate(366.4213,187.7637)"><path
         d="M 0,0 H 53.162 L 53.079,-1.617 H 0.083 Z"
         style="fill:#1747b6;fill-opacity:1;fill-rule:nonzero;stroke:none"
         id="path684"
         inkscape:connector-curvature="0" /></g></g></svg>